<svg width="23" height="20" viewBox="0 0 23 20" fill="none" xmlns="http://www.w3.org/2000/svg">
<path d="M1.57944 11.5463V2.94581C1.57944 2.19257 2.1925 1.57953 2.94572 1.57953H15.8584C16.3145 1.57953 16.7331 1.79968 16.9779 2.1679C16.9848 2.17777 16.9947 2.18271 17.0016 2.19159C17.2494 2.5302 17.7183 2.62201 18.0727 2.38706C18.436 2.1452 18.5338 1.65456 18.2919 1.29226C17.7529 0.483742 16.8427 0.000987206 15.8575 0.000987206L2.94576 0C1.3218 0 0 1.32188 0 2.94576V11.5462C0 12.5196 0.480758 13.4278 1.28533 13.9758C1.42157 14.0686 1.57655 14.113 1.72957 14.113C1.9823 14.113 2.23009 13.9925 2.38309 13.7674C2.5756 13.4841 2.55289 13.1238 2.36236 12.8622C2.31004 12.7911 2.25179 12.723 2.17479 12.6697C1.80162 12.417 1.57944 11.9974 1.57944 11.5463Z" fill="#707070"/>
<path d="M18.6522 3.31333H6.77109C4.86381 3.31333 3.3118 4.86521 3.3118 6.77262V14.3377C3.3118 16.246 4.86466 17.7988 6.77286 17.7988H11.8097C13.2332 17.7988 14.6321 18.2854 15.7486 19.167L16.0458 19.402C16.4259 19.7021 16.882 19.8571 17.343 19.8571C17.6539 19.8571 17.9669 19.787 18.2611 19.6448C18.9916 19.2914 19.4447 18.5678 19.4447 17.7563V17.7079C20.9719 17.3496 22.1133 15.9754 22.1133 14.3396V6.77354C22.1133 4.86527 20.5604 3.31333 18.6522 3.31333ZM17.8644 17.0087V17.756C17.8644 18.0493 17.66 18.1805 17.5722 18.223C17.4843 18.2655 17.2563 18.3454 17.0253 18.1628L16.7281 17.9278C15.3342 16.8261 13.5868 16.219 11.8098 16.219H6.77304C5.73548 16.219 4.89143 15.3749 4.89143 14.3374V6.7723C4.89143 5.73573 5.73449 4.89266 6.77107 4.89266H18.6522C19.6897 4.89266 20.5338 5.73671 20.5338 6.77329V14.3394C20.5338 15.3759 19.6907 16.219 18.6541 16.219C18.2178 16.219 17.8644 16.5724 17.8644 17.0087Z" fill="#707070"/>
</svg>
