<svg width="15" height="13" viewBox="0 0 15 13" fill="none" xmlns="http://www.w3.org/2000/svg">
<path d="M7.77743 6.57668C8.82991 5.96735 9.54241 4.8297 9.54241 3.52658C9.54241 1.58434 7.96161 0 6.01583 0C4.06952 0 2.48925 1.5808 2.48925 3.52658C2.48925 4.83041 3.20175 5.96744 4.25423 6.57668C1.79475 7.33349 0 9.62678 0 12.33C0 12.5329 0.166181 12.699 0.369054 12.699C0.571927 12.699 0.738108 12.5329 0.738108 12.33C0.738108 9.42382 3.09779 7.05652 6.00059 7.0489H6.01513H6.02967C8.93229 7.05651 11.2921 9.42329 11.2921 12.33C11.2921 12.5329 11.4583 12.699 11.6612 12.699C11.8641 12.699 12.0303 12.5329 12.0303 12.33C12.0303 9.62324 10.2355 7.33003 7.77603 6.57668H7.77743ZM3.22754 3.52658C3.22754 1.99009 4.47943 0.738286 6.01583 0.738286C7.55223 0.738286 8.80412 1.99018 8.80412 3.52658C8.80412 5.06297 7.5633 6.30388 6.0309 6.31487H6.01636H6.00181C4.47295 6.30725 3.22859 5.05951 3.22859 3.52658H3.22754Z" fill="white"/>
<path d="M12.11 5.37923C12.11 5.37923 12.1134 5.37923 12.1176 5.37577C12.1176 5.37577 12.1252 5.37577 12.1252 5.3723C12.7934 4.88138 13.1922 4.0948 13.1922 3.27089C13.1922 1.83412 12.0213 0.66394 10.5886 0.66394C10.3892 0.66394 10.1933 0.686098 10.0015 0.730413C9.80206 0.774728 9.68019 0.974144 9.72451 1.17356C9.76882 1.37298 9.96824 1.4983 10.1677 1.45053C10.3041 1.41729 10.4481 1.40275 10.5886 1.40275C11.619 1.40275 12.4534 2.24128 12.4534 3.2716C12.4534 3.86223 12.1688 4.42724 11.689 4.7783H11.6855C11.4639 4.94448 11.2126 5.05181 10.9398 5.10304C10.9322 5.10304 10.9287 5.11066 10.9211 5.11066C10.9024 5.11412 10.8879 5.1252 10.8733 5.12935C10.8435 5.14043 10.8179 5.15151 10.7923 5.17021C10.7778 5.18129 10.7667 5.19583 10.7556 5.2069C10.7369 5.2256 10.7148 5.24776 10.7002 5.26992C10.6891 5.28861 10.6815 5.30661 10.6746 5.32877C10.6635 5.35439 10.6524 5.37655 10.649 5.40286C10.649 5.41048 10.6455 5.41394 10.6455 5.4174C10.6455 5.4361 10.6455 5.4541 10.649 5.47626C10.649 5.49495 10.6455 5.51295 10.649 5.53165C10.649 5.53927 10.6524 5.54273 10.6566 5.54619C10.6601 5.56489 10.6711 5.58289 10.6788 5.60158C10.6898 5.6272 10.7009 5.64936 10.7155 5.67152C10.7265 5.68606 10.7376 5.70129 10.7521 5.71237C10.7708 5.73107 10.7888 5.74907 10.811 5.7643C10.8255 5.77538 10.8408 5.783 10.8588 5.78992C10.8844 5.801 10.9107 5.81208 10.9363 5.81554C10.9474 5.81554 10.9585 5.82662 10.9696 5.82662C12.6757 6.04474 13.9608 7.51058 13.9608 9.23532C13.9608 9.43819 14.127 9.60437 14.3299 9.60437C14.5327 9.60437 14.6989 9.43819 14.6989 9.23532C14.6989 7.51466 13.643 6.00796 12.1177 5.37638L12.11 5.37923Z" fill="white"/>
</svg>
