<svg width="39" height="39" viewBox="0 0 39 39" fill="none" xmlns="http://www.w3.org/2000/svg">
<circle cx="19.4344" cy="19.4344" r="19.4344" fill="#A5B785"/>
<path d="M13.8631 31.9991V30.4311H14.9831C15.3671 30.4311 15.7085 30.3884 16.0071 30.3031C16.3058 30.1964 16.5405 29.9937 16.7111 29.6951C16.9031 29.3964 16.9991 28.9377 16.9991 28.3191V10.9751H14.2471C13.6071 10.9751 13.1058 11.0817 12.7431 11.2951C12.3805 11.4871 12.1138 11.7644 11.9431 12.1271C11.7725 12.4897 11.6551 12.9057 11.5911 13.3751L11.3991 15.1351H9.44713L9.60713 9.15106H28.8071L28.9671 15.1351H27.0151L26.7911 13.3751C26.7485 12.9057 26.6311 12.4897 26.4391 12.1271C26.2685 11.7644 26.0018 11.4871 25.6391 11.2951C25.2765 11.0817 24.7751 10.9751 24.1351 10.9751H21.3831V28.2871C21.3831 28.9057 21.4685 29.3751 21.6391 29.6951C21.8098 29.9937 22.0551 30.1964 22.3751 30.3031C22.6951 30.3884 23.0365 30.4311 23.3991 30.4311H24.5191V31.9991H13.8631Z" fill="black"/>
</svg>
