<svg width="18" height="16" viewBox="0 0 18 16" fill="none" xmlns="http://www.w3.org/2000/svg">
<path d="M9.37104 7.92425C10.6392 7.19007 11.4977 5.81931 11.4977 4.24918C11.4977 1.90898 9.59295 0 7.24848 0C4.90337 0 2.99931 1.90471 2.99931 4.24918C2.99931 5.82016 3.85779 7.19017 5.12592 7.92425C2.1625 8.83613 0 11.5993 0 14.8564C0 15.1009 0.200231 15.3011 0.444674 15.3011C0.689116 15.3011 0.889347 15.1009 0.889347 14.8564C0.889347 11.3548 3.73253 8.50241 7.23011 8.49323H7.24763H7.26515C10.7625 8.5024 13.6059 11.3541 13.6059 14.8564C13.6059 15.1009 13.8061 15.3011 14.0506 15.3011C14.295 15.3011 14.4953 15.1009 14.4953 14.8564C14.4953 11.5951 12.3328 8.83196 9.36934 7.92425H9.37104ZM3.88887 4.24918C3.88887 2.39786 5.39728 0.889561 7.24848 0.889561C9.09969 0.889561 10.6081 2.39797 10.6081 4.24918C10.6081 6.10038 9.11304 7.59555 7.26663 7.60879H7.24911H7.23159C5.38947 7.59961 3.89013 6.09622 3.89013 4.24918H3.88887Z" fill="white"/>
<path d="M14.5909 6.48163C14.5909 6.48163 14.5951 6.48163 14.6001 6.47746C14.6001 6.47746 14.6093 6.47746 14.6093 6.47329C15.4144 5.88178 15.8949 4.93401 15.8949 3.94129C15.8949 2.21012 14.4841 0.800171 12.7579 0.800171C12.5176 0.800171 12.2815 0.826868 12.0504 0.880263C11.8101 0.933658 11.6633 1.17394 11.7167 1.41421C11.77 1.65449 12.0103 1.80549 12.2506 1.74793C12.415 1.70789 12.5885 1.69037 12.7579 1.69037C13.9993 1.69037 15.0047 2.70071 15.0047 3.94214C15.0047 4.65379 14.6618 5.33458 14.0837 5.75757H14.0795C13.8125 5.9578 13.5096 6.08713 13.1809 6.14885C13.1718 6.14885 13.1676 6.15803 13.1584 6.15803C13.1359 6.1622 13.1184 6.17555 13.1009 6.18055C13.065 6.1939 13.0341 6.20725 13.0032 6.22978C12.9857 6.24313 12.9724 6.26065 12.959 6.274C12.9365 6.29652 12.9098 6.32322 12.8923 6.34992C12.8789 6.37244 12.8698 6.39413 12.8614 6.42083C12.8481 6.4517 12.8347 6.4784 12.8305 6.5101C12.8305 6.51928 12.8264 6.52345 12.8264 6.52762C12.8264 6.55015 12.8264 6.57184 12.8305 6.59854C12.8305 6.62106 12.8264 6.64275 12.8305 6.66528C12.8305 6.67446 12.8347 6.67863 12.8397 6.6828C12.8439 6.70533 12.8572 6.72702 12.8664 6.74955C12.8798 6.78041 12.8931 6.80711 12.9106 6.83381C12.924 6.85133 12.9373 6.86968 12.9549 6.88303C12.9774 6.90556 12.9991 6.92725 13.0258 6.94561C13.0433 6.95895 13.0616 6.96813 13.0833 6.97647C13.1142 6.98982 13.1459 7.00317 13.1768 7.00734C13.1901 7.00734 13.2035 7.02069 13.2168 7.02069C15.2725 7.2835 16.821 9.0497 16.821 11.1278C16.821 11.3723 17.0212 11.5725 17.2657 11.5725C17.5101 11.5725 17.7103 11.3723 17.7103 11.1278C17.7103 9.05462 16.438 7.23918 14.6002 6.4782L14.5909 6.48163Z" fill="white"/>
</svg>
