<svg width="96" height="42" viewBox="0 0 96 42" fill="none" xmlns="http://www.w3.org/2000/svg">
<circle cx="18.0472" cy="3.02333" r="2" transform="rotate(-1.36808 18.0472 3.02333)" fill="#4C4C4C"/>
<circle cx="18.0472" cy="15.0233" r="2" transform="rotate(-1.36808 18.0472 15.0233)" fill="#4C4C4C"/>
<circle cx="18.0472" cy="27.0233" r="2" transform="rotate(-1.36808 18.0472 27.0233)" fill="#4C4C4C"/>
<circle cx="18.0472" cy="39.0233" r="2" transform="rotate(-1.36808 18.0472 39.0233)" fill="#4C4C4C"/>
<circle cx="3.04718" cy="3.02333" r="2" transform="rotate(-1.36808 3.04718 3.02333)" fill="#4C4C4C"/>
<circle cx="2.55898" cy="14.559" r="2.5" transform="rotate(-1.36808 2.55898 14.559)" fill="white"/>
<circle cx="3.04718" cy="27.0233" r="2" transform="rotate(-1.36808 3.04718 27.0233)" fill="#4C4C4C"/>
<circle cx="3.04718" cy="39.0233" r="2" transform="rotate(-1.36808 3.04718 39.0233)" fill="#4C4C4C"/>
<circle cx="32.559" cy="2.55898" r="2.5" transform="rotate(-1.36808 32.559 2.55898)" fill="white"/>
<circle cx="33.0472" cy="15.0233" r="2" transform="rotate(-1.36808 33.0472 15.0233)" fill="#4C4C4C"/>
<circle cx="32.559" cy="26.559" r="2.5" transform="rotate(-1.36808 32.559 26.559)" fill="white"/>
<circle cx="33.0472" cy="39.0233" r="2" transform="rotate(-1.36808 33.0472 39.0233)" fill="#4C4C4C"/>
<circle cx="47.559" cy="2.55898" r="2.5" transform="rotate(-1.36808 47.559 2.55898)" fill="white"/>
<circle cx="47.559" cy="14.559" r="2.5" transform="rotate(-1.36808 47.559 14.559)" fill="white"/>
<circle cx="48.0472" cy="27.0233" r="2" transform="rotate(-1.36808 48.0472 27.0233)" fill="#4C4C4C"/>
<circle cx="48.0472" cy="39.0233" r="2" transform="rotate(-1.36808 48.0472 39.0233)" fill="#4C4C4C"/>
<circle cx="62.559" cy="2.55898" r="2.5" transform="rotate(-1.36808 62.559 2.55898)" fill="white"/>
<circle cx="63.0472" cy="15.0233" r="2" transform="rotate(-1.36808 63.0472 15.0233)" fill="#4C4C4C"/>
<circle cx="62.559" cy="26.559" r="2.5" transform="rotate(-1.36808 62.559 26.559)" fill="white"/>
<circle cx="62.559" cy="38.559" r="2.5" transform="rotate(-1.36808 62.559 38.559)" fill="white"/>
<circle cx="77.559" cy="2.55898" r="2.5" transform="rotate(-1.36808 77.559 2.55898)" fill="white"/>
<circle cx="77.559" cy="14.559" r="2.5" transform="rotate(-1.36808 77.559 14.559)" fill="white"/>
<circle cx="78.0472" cy="27.0233" r="2" transform="rotate(-1.36808 78.0472 27.0233)" fill="#4C4C4C"/>
<circle cx="78.0472" cy="39.0233" r="2" transform="rotate(-1.36808 78.0472 39.0233)" fill="#4C4C4C"/>
<circle cx="92.559" cy="2.55898" r="2.5" transform="rotate(-1.36808 92.559 2.55898)" fill="white"/>
<circle cx="93.0472" cy="15.0233" r="2" transform="rotate(-1.36808 93.0472 15.0233)" fill="#4C4C4C"/>
<circle cx="93.0472" cy="27.0233" r="2" transform="rotate(-1.36808 93.0472 27.0233)" fill="#4C4C4C"/>
<circle cx="93.0472" cy="39.0233" r="2" transform="rotate(-1.36808 93.0472 39.0233)" fill="#4C4C4C"/>
</svg>
