<svg width="19" height="18" viewBox="0 0 19 18" fill="none" xmlns="http://www.w3.org/2000/svg">
<path d="M9.3682 0C8.56409 0 7.79221 0.300075 7.2233 0.832561L1.25591 6.42723C0.451795 7.18112 0 8.20487 0 9.27083V15.1262C0 16.4683 1.17102 17.5662 2.6026 17.5662H16.1347C17.5653 17.5662 18.7373 16.4683 18.7373 15.1262V9.27083C18.7363 8.20497 18.2845 7.18119 17.4804 6.42723L11.513 0.832561C10.9441 0.300099 10.1723 0 9.3682 0ZM9.3682 0.976204C9.89712 0.976204 10.4036 1.17291 10.7773 1.52331L16.7447 7.11798C17.3536 7.68887 17.6952 8.46288 17.6952 9.27073V15.1261C17.6952 15.9404 17.0023 16.5899 16.1338 16.5899H12.491V12.1984C12.491 11.396 11.7855 10.7346 10.9296 10.7346H7.80692C6.9511 10.7346 6.24556 11.396 6.24556 12.1984V16.5899H2.60272C1.73421 16.5899 1.04136 15.9404 1.04136 15.1261V9.27073C1.04136 8.46288 1.38291 7.68887 1.99282 7.11706L7.95921 1.52333C8.33296 1.17292 8.83929 0.976204 9.3682 0.976204ZM7.80684 11.7107H10.9296C11.2233 11.7107 11.4497 11.923 11.4497 12.1983V16.5899H7.28672V12.1983C7.28672 11.923 7.51312 11.7107 7.80684 11.7107Z" fill="white"/>
</svg>
