<svg width="96" height="54" viewBox="0 0 96 54" fill="none" xmlns="http://www.w3.org/2000/svg">
<circle cx="17.559" cy="14.559" r="2.5" transform="rotate(-1.36808 17.559 14.559)" fill="white"/>
<circle cx="18.0472" cy="27.0233" r="2" transform="rotate(-1.36808 18.0472 27.0233)" fill="#4C4C4C"/>
<circle cx="17.559" cy="38.559" r="2.5" transform="rotate(-1.36808 17.559 38.559)" fill="white"/>
<circle cx="18.0472" cy="51.0234" r="2" transform="rotate(-1.36808 18.0472 51.0234)" fill="#4C4C4C"/>
<circle cx="3.04718" cy="15.0233" r="2" transform="rotate(-1.36808 3.04718 15.0233)" fill="#4C4C4C"/>
<circle cx="2.55898" cy="26.559" r="2.5" transform="rotate(-1.36808 2.55898 26.559)" fill="white"/>
<circle cx="3.04718" cy="39.0234" r="2" transform="rotate(-1.36808 3.04718 39.0234)" fill="#4C4C4C"/>
<circle cx="3.04718" cy="51.0234" r="2" transform="rotate(-1.36808 3.04718 51.0234)" fill="#4C4C4C"/>
<circle cx="33.0472" cy="15.0233" r="2" transform="rotate(-1.36808 33.0472 15.0233)" fill="#4C4C4C"/>
<circle cx="33.0472" cy="27.0233" r="2" transform="rotate(-1.36808 33.0472 27.0233)" fill="#4C4C4C"/>
<circle cx="33.0472" cy="39.0234" r="2" transform="rotate(-1.36808 33.0472 39.0234)" fill="#4C4C4C"/>
<circle cx="32.559" cy="50.559" r="2.5" transform="rotate(-1.36808 32.559 50.559)" fill="white"/>
<circle cx="48.0472" cy="15.0233" r="2" transform="rotate(-1.36808 48.0472 15.0233)" fill="#4C4C4C"/>
<circle cx="47.559" cy="26.559" r="2.5" transform="rotate(-1.36808 47.559 26.559)" fill="white"/>
<circle cx="47.559" cy="38.559" r="2.5" transform="rotate(-1.36808 47.559 38.559)" fill="white"/>
<circle cx="48.0472" cy="51.0234" r="2" transform="rotate(-1.36808 48.0472 51.0234)" fill="#4C4C4C"/>
<circle cx="62.559" cy="2.55898" r="2.5" transform="rotate(-1.36808 62.559 2.55898)" fill="white"/>
<circle cx="63.0472" cy="15.0233" r="2" transform="rotate(-1.36808 63.0472 15.0233)" fill="#4C4C4C"/>
<circle cx="63.0472" cy="27.0233" r="2" transform="rotate(-1.36808 63.0472 27.0233)" fill="#4C4C4C"/>
<circle cx="63.0472" cy="39.0234" r="2" transform="rotate(-1.36808 63.0472 39.0234)" fill="#4C4C4C"/>
<circle cx="62.559" cy="50.559" r="2.5" transform="rotate(-1.36808 62.559 50.559)" fill="white"/>
<circle cx="78.0472" cy="3.02337" r="2" transform="rotate(-1.36808 78.0472 3.02337)" fill="#4C4C4C"/>
<circle cx="77.559" cy="14.559" r="2.5" transform="rotate(-1.36808 77.559 14.559)" fill="white"/>
<circle cx="78.0472" cy="27.0233" r="2" transform="rotate(-1.36808 78.0472 27.0233)" fill="#4C4C4C"/>
<circle cx="78.0472" cy="39.0234" r="2" transform="rotate(-1.36808 78.0472 39.0234)" fill="#4C4C4C"/>
<circle cx="78.0472" cy="51.0234" r="2" transform="rotate(-1.36808 78.0472 51.0234)" fill="#4C4C4C"/>
<circle cx="93.0472" cy="3.02337" r="2" transform="rotate(-1.36808 93.0472 3.02337)" fill="#4C4C4C"/>
<circle cx="93.0472" cy="15.0233" r="2" transform="rotate(-1.36808 93.0472 15.0233)" fill="#4C4C4C"/>
<circle cx="92.559" cy="26.559" r="2.5" transform="rotate(-1.36808 92.559 26.559)" fill="white"/>
<circle cx="93.0472" cy="39.0234" r="2" transform="rotate(-1.36808 93.0472 39.0234)" fill="#4C4C4C"/>
<circle cx="93.0472" cy="51.0234" r="2" transform="rotate(-1.36808 93.0472 51.0234)" fill="#4C4C4C"/>
</svg>
