<svg width="96" height="54" viewBox="0 0 96 54" fill="none" xmlns="http://www.w3.org/2000/svg">
<circle cx="17.559" cy="2.55895" r="2.5" transform="rotate(-1.36808 17.559 2.55895)" fill="white"/>
<circle cx="18.0472" cy="15.0471" r="2" transform="rotate(-1.36808 18.0472 15.0471)" fill="#4C4C4C"/>
<circle cx="18.0472" cy="27.0471" r="2" transform="rotate(-1.36808 18.0472 27.0471)" fill="#4C4C4C"/>
<circle cx="18.0472" cy="39.0471" r="2" transform="rotate(-1.36808 18.0472 39.0471)" fill="#4C4C4C"/>
<circle cx="3.04718" cy="39.0471" r="2" transform="rotate(-1.36808 3.04718 39.0471)" fill="#4C4C4C"/>
<circle cx="18.0472" cy="51.0472" r="2" transform="rotate(-1.36808 18.0472 51.0472)" fill="#4C4C4C"/>
<circle cx="3.04718" cy="3.04711" r="2" transform="rotate(-1.36808 3.04718 3.04711)" fill="#4C4C4C"/>
<circle cx="2.55898" cy="14.559" r="2.5" transform="rotate(-1.36808 2.55898 14.559)" fill="white"/>
<circle cx="3.04718" cy="27.0471" r="2" transform="rotate(-1.36808 3.04718 27.0471)" fill="#4C4C4C"/>
<circle cx="3.04718" cy="51.0471" r="2" transform="rotate(-1.36808 3.04718 51.0471)" fill="#4C4C4C"/>
<circle cx="33.0472" cy="3.04711" r="2" transform="rotate(-1.36808 33.0472 3.04711)" fill="#4C4C4C"/>
<circle cx="33.0472" cy="15.0471" r="2" transform="rotate(-1.36808 33.0472 15.0471)" fill="#4C4C4C"/>
<circle cx="33.559" cy="27.5112" r="2.5" transform="rotate(-1.36808 33.559 27.5112)" fill="white"/>
<circle cx="33.0472" cy="39.0471" r="2" transform="rotate(-1.36808 33.0472 39.0471)" fill="#4C4C4C"/>
<circle cx="48.0472" cy="39.0471" r="2" transform="rotate(-1.36808 48.0472 39.0471)" fill="#4C4C4C"/>
<circle cx="78.0472" cy="39.0471" r="2" transform="rotate(-1.36808 78.0472 39.0471)" fill="#4C4C4C"/>
<circle cx="33.0472" cy="51.0471" r="2" transform="rotate(-1.36808 33.0472 51.0471)" fill="#4C4C4C"/>
<circle cx="48.0472" cy="3.04711" r="2" transform="rotate(-1.36808 48.0472 3.04711)" fill="#4C4C4C"/>
<circle cx="47.559" cy="14.559" r="2.5" transform="rotate(-1.36808 47.559 14.559)" fill="white"/>
<circle cx="48.0472" cy="27.0471" r="2" transform="rotate(-1.36808 48.0472 27.0471)" fill="#4C4C4C"/>
<circle cx="62.559" cy="2.55895" r="2.5" transform="rotate(-1.36808 62.559 2.55895)" fill="white"/>
<circle cx="63.0472" cy="15.0471" r="2" transform="rotate(-1.36808 63.0472 15.0471)" fill="#4C4C4C"/>
<circle cx="63.0472" cy="27.0471" r="2" transform="rotate(-1.36808 63.0472 27.0471)" fill="#4C4C4C"/>
<circle cx="63.0472" cy="39.0471" r="2" transform="rotate(-1.36808 63.0472 39.0471)" fill="#4C4C4C"/>
<circle cx="78.0472" cy="3.04711" r="2" transform="rotate(-1.36808 78.0472 3.04711)" fill="#4C4C4C"/>
<circle cx="77.559" cy="14.559" r="2.5" transform="rotate(-1.36808 77.559 14.559)" fill="white"/>
<circle cx="78.0472" cy="27.0471" r="2" transform="rotate(-1.36808 78.0472 27.0471)" fill="#4C4C4C"/>
<circle cx="93.0472" cy="27.0471" r="2" transform="rotate(-1.36808 93.0472 27.0471)" fill="#4C4C4C"/>
<circle cx="92.559" cy="2.55895" r="2.5" transform="rotate(-1.36808 92.559 2.55895)" fill="white"/>
<circle cx="93.0472" cy="15.0471" r="2" transform="rotate(-1.36808 93.0472 15.0471)" fill="#4C4C4C"/>
<circle cx="93.0472" cy="39.0471" r="2" transform="rotate(-1.36808 93.0472 39.0471)" fill="#4C4C4C"/>
</svg>
