<svg width="21" height="17" viewBox="0 0 21 17" fill="none" xmlns="http://www.w3.org/2000/svg">
<path d="M8.03789 0.100403C8.62109 0.100403 9.15187 0.429957 9.36894 0.940247L10.2645 3.03693C10.3541 3.2468 10.5723 3.38821 10.826 3.39044H18.6727C19.5604 3.39044 20.2996 4.06442 20.2996 4.90216V14.7879C20.2996 15.6257 19.5604 16.2996 18.6727 16.2996H1.72734C0.839607 16.2996 0.100388 15.6256 0.100388 14.7879V1.60919C0.100584 0.771375 0.839974 0.100403 1.72734 0.100403H8.03789ZM0.924606 14.7879C0.924606 15.1894 1.27283 15.5233 1.72734 15.5233H18.6717C19.1262 15.5233 19.4744 15.1894 19.4744 14.7879V4.90216C19.4744 4.50063 19.1262 4.16681 18.6717 4.16681H0.924606V14.7879ZM1.70683 0.87677C1.26236 0.886868 0.925583 1.21425 0.925583 1.60919V3.38947H9.52617C9.51591 3.36885 9.50507 3.34837 9.4959 3.32697V3.32599L8.60429 1.22931C8.51462 1.01873 8.29382 0.87677 8.03789 0.87677H1.70683Z" fill="white" stroke="white" stroke-width="0.2"/>
</svg>
