<svg width="9" height="9" viewBox="0 0 9 9" fill="none" xmlns="http://www.w3.org/2000/svg">
<path d="M4.5 9C3.885 9 3.30375 8.88187 2.75625 8.64562C2.20875 8.40937 1.73062 8.08687 1.32187 7.67812C0.913125 7.26937 0.590625 6.79125 0.354375 6.24375C0.118125 5.69625 0 5.115 0 4.5C0 3.8775 0.118125 3.2925 0.354375 2.745C0.590625 2.1975 0.913125 1.72125 1.32187 1.31625C1.73062 0.91125 2.20875 0.590625 2.75625 0.354375C3.30375 0.118125 3.885 0 4.5 0C5.1225 0 5.7075 0.118125 6.255 0.354375C6.8025 0.590625 7.27875 0.91125 7.68375 1.31625C8.08875 1.72125 8.40937 2.1975 8.64562 2.745C8.88187 3.2925 9 3.8775 9 4.5C9 5.115 8.88187 5.69625 8.64562 6.24375C8.40937 6.79125 8.08875 7.26937 7.68375 7.67812C7.27875 8.08687 6.8025 8.40937 6.255 8.64562C5.7075 8.88187 5.1225 9 4.5 9ZM4.5 0.9C3.6675 0.9 2.9325 1.14938 2.295 1.64813C1.6575 2.14688 1.23375 2.7825 1.02375 3.555C1.17375 3.5175 1.32937 3.44437 1.49062 3.33562C1.65187 3.22687 1.8375 2.9625 2.0475 2.5425C2.16 2.31 2.325 2.12812 2.5425 1.99687C2.76 1.86562 3 1.8 3.2625 1.8H5.7375C6 1.8 6.24 1.86562 6.4575 1.99687C6.675 2.12812 6.84 2.31 6.9525 2.5425C7.1625 2.97 7.35187 3.23625 7.52062 3.34125C7.68937 3.44625 7.84125 3.5175 7.97625 3.555C7.76625 2.7825 7.34437 2.14688 6.71062 1.64813C6.07688 1.14938 5.34 0.9 4.5 0.9ZM4.5 8.1C5.505 8.1 6.35812 7.7475 7.05937 7.0425C7.76062 6.3375 8.1075 5.4825 8.1 4.4775C7.5675 4.425 7.15875 4.25813 6.87375 3.97688C6.58875 3.69563 6.345 3.3525 6.1425 2.9475C6.105 2.865 6.05063 2.80313 5.97938 2.76188C5.90813 2.72063 5.83125 2.7 5.74875 2.7H3.2625C3.1725 2.7 3.09187 2.72063 3.02062 2.76188C2.94937 2.80313 2.895 2.865 2.8575 2.9475C2.655 3.36 2.4075 3.70687 2.115 3.98812C1.8225 4.26937 1.4175 4.43625 0.9 4.48875C0.9 5.49375 1.25063 6.34688 1.95187 7.04812C2.65312 7.74937 3.5025 8.1 4.5 8.1ZM3.15 5.5125C2.9925 5.5125 2.85938 5.45812 2.75063 5.34937C2.64188 5.24062 2.5875 5.1075 2.5875 4.95C2.5875 4.7925 2.64188 4.65937 2.75063 4.55062C2.85938 4.44187 2.9925 4.3875 3.15 4.3875C3.3075 4.3875 3.44063 4.44187 3.54938 4.55062C3.65813 4.65937 3.7125 4.7925 3.7125 4.95C3.7125 5.1075 3.65813 5.24062 3.54938 5.34937C3.44063 5.45812 3.3075 5.5125 3.15 5.5125ZM5.85 5.5125C5.6925 5.5125 5.55937 5.45812 5.45062 5.34937C5.34187 5.24062 5.2875 5.1075 5.2875 4.95C5.2875 4.7925 5.34187 4.65937 5.45062 4.55062C5.55937 4.44187 5.6925 4.3875 5.85 4.3875C6.0075 4.3875 6.14062 4.44187 6.24937 4.55062C6.35812 4.65937 6.4125 4.7925 6.4125 4.95C6.4125 5.1075 6.35812 5.24062 6.24937 5.34937C6.14062 5.45812 6.0075 5.5125 5.85 5.5125Z" fill="#8C8B91"/>
</svg>
