<svg width="9" height="9" viewBox="0 0 9 9" fill="none" xmlns="http://www.w3.org/2000/svg">
<path d="M8.35639 9L7.11137 7.75352C6.77374 7.97887 6.40973 8.15141 6.01934 8.27113C5.62896 8.39084 5.21571 8.4507 4.7796 8.4507C4.19578 8.4507 3.64713 8.33979 3.13365 8.11796C2.62016 7.89613 2.17351 7.59507 1.79367 7.21479C1.41383 6.83451 1.11313 6.38732 0.891559 5.87324C0.669988 5.35915 0.559203 4.80986 0.559203 4.22535C0.559203 3.78873 0.618992 3.375 0.73857 2.98415C0.858148 2.59331 1.03048 2.22887 1.25557 1.89085L0 0.633803L0.601407 0.0316901L8.9578 8.39789L8.35639 9ZM4.35756 7.58451V6.76056C4.12544 6.76056 3.92673 6.67782 3.76143 6.51232C3.59613 6.34683 3.51348 6.14789 3.51348 5.91549V5.49296L1.48769 3.46479C1.46659 3.59155 1.44724 3.71831 1.42966 3.84507C1.41208 3.97183 1.40328 4.09859 1.40328 4.22535C1.40328 5.07746 1.68288 5.82394 2.24209 6.46479C2.80129 7.10563 3.50645 7.47887 4.35756 7.58451ZM8.30363 6.53873L7.69168 5.92606C7.83939 5.66549 7.95369 5.39261 8.03458 5.10739C8.11547 4.82218 8.15592 4.52817 8.15592 4.22535C8.15592 3.53521 7.96424 2.90493 7.58089 2.33451C7.19754 1.76408 6.68581 1.35211 6.04572 1.09859V1.26761C6.04572 1.5 5.96307 1.69894 5.79777 1.86444C5.63247 2.02993 5.43376 2.11268 5.20164 2.11268H4.35756V2.58803L2.46893 0.697183C2.80657 0.478873 3.16882 0.308099 3.55569 0.184859C3.94256 0.0616197 4.35053 0 4.7796 0C5.36342 0 5.91207 0.110915 6.42556 0.332746C6.93904 0.554577 7.3857 0.855634 7.76553 1.23592C8.14537 1.6162 8.44607 2.06338 8.66764 2.57746C8.88921 3.09155 9 3.64085 9 4.22535C9 4.65493 8.93845 5.06338 8.81536 5.4507C8.69226 5.83803 8.52169 6.2007 8.30363 6.53873Z" fill="#8C8B91"/>
</svg>
