<svg width="17" height="8" viewBox="0 0 17 8" fill="none" xmlns="http://www.w3.org/2000/svg">
<path d="M0 8V6.95C0 6.47222 0.259722 6.08333 0.779167 5.78333C1.29861 5.48333 1.98333 5.33333 2.83333 5.33333C2.98681 5.33333 3.13437 5.33611 3.27604 5.34167C3.41771 5.34722 3.55347 5.36111 3.68333 5.38333C3.51806 5.61667 3.3941 5.86111 3.31146 6.11667C3.22882 6.37222 3.1875 6.63889 3.1875 6.91667V8H0ZM4.25 8V6.91667C4.25 6.56111 4.3533 6.23611 4.5599 5.94167C4.76649 5.64722 5.05868 5.38889 5.43646 5.16667C5.81424 4.94444 6.2658 4.77778 6.79115 4.66667C7.31649 4.55556 7.88611 4.5 8.5 4.5C9.12569 4.5 9.70122 4.55556 10.2266 4.66667C10.7519 4.77778 11.2035 4.94444 11.5812 5.16667C11.959 5.38889 12.2483 5.64722 12.449 5.94167C12.6497 6.23611 12.75 6.56111 12.75 6.91667V8H4.25ZM13.8125 8V6.91667C13.8125 6.62778 13.7741 6.35556 13.6974 6.1C13.6207 5.84444 13.5056 5.60556 13.3521 5.38333C13.4819 5.36111 13.6148 5.34722 13.7505 5.34167C13.8863 5.33611 14.025 5.33333 14.1667 5.33333C15.0167 5.33333 15.7014 5.48056 16.2208 5.775C16.7403 6.06944 17 6.46111 17 6.95V8H13.8125ZM5.75521 6.66667H11.2625C11.1444 6.44444 10.8168 6.25 10.2797 6.08333C9.74253 5.91667 9.14931 5.83333 8.5 5.83333C7.85069 5.83333 7.25747 5.91667 6.72031 6.08333C6.18316 6.25 5.86146 6.44444 5.75521 6.66667ZM2.83333 4.66667C2.44375 4.66667 2.11024 4.53611 1.83281 4.275C1.55538 4.01389 1.41667 3.7 1.41667 3.33333C1.41667 2.95556 1.55538 2.63889 1.83281 2.38333C2.11024 2.12778 2.44375 2 2.83333 2C3.23472 2 3.57118 2.12778 3.84271 2.38333C4.11424 2.63889 4.25 2.95556 4.25 3.33333C4.25 3.7 4.11424 4.01389 3.84271 4.275C3.57118 4.53611 3.23472 4.66667 2.83333 4.66667ZM14.1667 4.66667C13.7771 4.66667 13.4436 4.53611 13.1661 4.275C12.8887 4.01389 12.75 3.7 12.75 3.33333C12.75 2.95556 12.8887 2.63889 13.1661 2.38333C13.4436 2.12778 13.7771 2 14.1667 2C14.5681 2 14.9045 2.12778 15.176 2.38333C15.4476 2.63889 15.5833 2.95556 15.5833 3.33333C15.5833 3.7 15.4476 4.01389 15.176 4.275C14.9045 4.53611 14.5681 4.66667 14.1667 4.66667ZM8.5 4C7.90972 4 7.40799 3.80556 6.99479 3.41667C6.5816 3.02778 6.375 2.55556 6.375 2C6.375 1.43333 6.5816 0.958333 6.99479 0.575C7.40799 0.191667 7.90972 0 8.5 0C9.10208 0 9.60677 0.191667 10.0141 0.575C10.4214 0.958333 10.625 1.43333 10.625 2C10.625 2.55556 10.4214 3.02778 10.0141 3.41667C9.60677 3.80556 9.10208 4 8.5 4ZM8.5 2.66667C8.70069 2.66667 8.86892 2.60278 9.00469 2.475C9.14045 2.34722 9.20833 2.18889 9.20833 2C9.20833 1.81111 9.14045 1.65278 9.00469 1.525C8.86892 1.39722 8.70069 1.33333 8.5 1.33333C8.29931 1.33333 8.13108 1.39722 7.99531 1.525C7.85955 1.65278 7.79167 1.81111 7.79167 2C7.79167 2.18889 7.85955 2.34722 7.99531 2.475C8.13108 2.60278 8.29931 2.66667 8.5 2.66667Z" fill="#8C8B91"/>
</svg>
