<svg width="11" height="9" viewBox="0 0 11 9" fill="none" xmlns="http://www.w3.org/2000/svg">
<path d="M1.04762 8.47059C0.759524 8.47059 0.512897 8.36691 0.307738 8.15956C0.102579 7.95221 0 7.70294 0 7.41176V1.05882C0 0.767647 0.102579 0.518382 0.307738 0.311029C0.512897 0.103676 0.759524 0 1.04762 0L2.09524 2.11765H3.66667L2.61905 0H3.66667L4.71429 2.11765H6.28571L5.2381 0H6.28571L7.33333 2.11765H8.90476L7.85714 0H9.42857C9.71667 0 9.96329 0.103676 10.1685 0.311029C10.3736 0.518382 10.4762 0.767647 10.4762 1.05882V3.17647H1.04762V7.41176H5.2381V8.47059H1.04762ZM6.28571 9V7.37206L9.17976 4.46029C9.25833 4.38088 9.34564 4.32353 9.44167 4.28824C9.5377 4.25294 9.63373 4.23529 9.72976 4.23529C9.83452 4.23529 9.93492 4.25515 10.031 4.29485C10.127 4.33456 10.2143 4.39412 10.2929 4.47353L10.7774 4.96324C10.8472 5.04265 10.9018 5.13088 10.9411 5.22794C10.9804 5.325 11 5.42206 11 5.51912C11 5.61618 10.9825 5.71544 10.9476 5.81691C10.9127 5.91838 10.856 6.00882 10.7774 6.08824L7.89643 9H6.28571ZM7.07143 8.20588H7.56905L9.15357 6.59118L8.91786 6.33971L8.66905 6.10147L7.07143 7.70294V8.20588ZM8.91786 6.33971L8.66905 6.10147L9.15357 6.59118L8.91786 6.33971Z" fill="#8C8B91"/>
</svg>
