<svg width="12" height="11" viewBox="0 0 12 11" fill="none" xmlns="http://www.w3.org/2000/svg">
<path d="M0.857244 6.54506V1.66985C0.857244 1.24287 1.18998 0.895365 1.59879 0.895365H8.60718C8.85473 0.895365 9.0819 1.02016 9.21479 1.22888C9.21854 1.23448 9.2239 1.23728 9.22765 1.24232C9.36214 1.43425 9.61664 1.4863 9.809 1.35312C10.0062 1.21601 10.0592 0.937897 9.92795 0.732522C9.6354 0.274211 9.14138 0.000559602 8.60665 0.000559602L1.59881 0C0.717409 0 0 0.749312 0 1.66982V6.54503C0 7.09681 0.260932 7.61163 0.697615 7.92222C0.771556 7.97482 0.855673 8 0.938727 8C1.07589 8 1.21039 7.93173 1.29343 7.80414C1.39791 7.64353 1.38558 7.43927 1.28217 7.29099C1.25378 7.2507 1.22216 7.21208 1.18037 7.18187C0.97783 7.03861 0.857244 6.80079 0.857244 6.54506Z" fill="#707070"/>
<path d="M10.1591 2H3.83991C2.82547 2 2 2.84424 2 3.8819V7.99738C2 9.0355 2.82593 9.88024 3.84085 9.88024H6.51979C7.27694 9.88024 8.02097 10.145 8.61483 10.6246L8.77287 10.7524C8.97502 10.9157 9.21761 11 9.46281 11C9.62821 11 9.79466 10.9619 9.95113 10.8845C10.3397 10.6923 10.5807 10.2986 10.5807 9.85715V9.83083C11.393 9.63588 12 8.8883 12 7.99843V3.8824C12 2.84427 11.1741 2 10.1591 2ZM9.74014 9.45046V9.857C9.74014 10.0165 9.63145 10.0879 9.58473 10.111C9.538 10.1341 9.41671 10.1776 9.29384 10.0783L9.13579 9.95046C8.39439 9.3511 7.46498 9.02082 6.51989 9.02082H3.84094C3.28909 9.02082 2.84016 8.56165 2.84016 7.99721V3.88172C2.84016 3.31781 3.28857 2.85918 3.8399 2.85918H10.1591C10.711 2.85918 11.1599 3.31835 11.1599 3.88226V7.99829C11.1599 8.5622 10.7115 9.02084 10.1602 9.02084C9.9281 9.02084 9.74014 9.21308 9.74014 9.45046Z" fill="#707070"/>
</svg>
