<svg width="12" height="10" viewBox="0 0 12 10" fill="none" xmlns="http://www.w3.org/2000/svg">
<path d="M3.16185 6.40868e-05C2.35187 6.40868e-05 1.54033 0.299629 0.92413 0.897773C-0.308823 2.09405 -0.307263 4.0327 0.92413 5.22999L5.71214 9.88679C5.78767 9.95892 5.88924 10 5.99551 10C6.10229 10 6.20386 9.95892 6.27887 9.88679C7.87639 8.33632 9.47764 6.78443 11.0753 5.23396C12.3082 4.03769 12.3082 2.10198 11.0753 0.905724C9.84233 -0.290537 7.83278 -0.29055 6.59984 0.905724L6.00393 1.48282L5.39971 0.897708C4.78349 0.299565 3.97194 0 3.16199 0L3.16185 6.40868e-05ZM3.16185 0.761513C3.76348 0.761513 4.36355 0.987441 4.82871 1.4388L5.7163 2.30044C5.79183 2.37408 5.89444 2.41566 6.00175 2.41566C6.10957 2.41566 6.21219 2.37408 6.28719 2.30044L7.16647 1.44682C8.09679 0.543601 9.57407 0.543601 10.5043 1.44682C11.4346 2.35005 11.4346 3.78984 10.5043 4.69294C9.00201 6.15069 7.50184 7.61152 5.99967 9.06927L1.49502 4.68896C0.565223 3.78474 0.564703 2.34197 1.49502 1.43874C1.96018 0.98739 2.56022 0.761513 3.16185 0.761513Z" fill="#707070"/>
</svg>
