<svg width="7" height="9" viewBox="0 0 7 9" fill="none" xmlns="http://www.w3.org/2000/svg">
<path d="M3.5 4.5C3.74063 4.5 3.94661 4.41188 4.11797 4.23563C4.28932 4.05938 4.375 3.8475 4.375 3.6C4.375 3.3525 4.28932 3.14062 4.11797 2.96437C3.94661 2.78812 3.74063 2.7 3.5 2.7C3.25937 2.7 3.05339 2.78812 2.88203 2.96437C2.71068 3.14062 2.625 3.3525 2.625 3.6C2.625 3.8475 2.71068 4.05938 2.88203 4.23563C3.05339 4.41188 3.25937 4.5 3.5 4.5ZM3.5 7.8075C4.38958 6.9675 5.04948 6.20437 5.47969 5.51812C5.9099 4.83187 6.125 4.2225 6.125 3.69C6.125 2.8725 5.87161 2.20312 5.36484 1.68187C4.85807 1.16062 4.23646 0.9 3.5 0.9C2.76354 0.9 2.14193 1.16062 1.63516 1.68187C1.12839 2.20312 0.875 2.8725 0.875 3.69C0.875 4.2225 1.0901 4.83187 1.52031 5.51812C1.95052 6.20437 2.61042 6.9675 3.5 7.8075ZM3.5 9C2.32604 7.9725 1.44922 7.01812 0.869531 6.13687C0.289844 5.25562 0 4.44 0 3.69C0 2.565 0.351823 1.66875 1.05547 1.00125C1.75911 0.33375 2.57396 0 3.5 0C4.42604 0 5.24089 0.33375 5.94453 1.00125C6.64818 1.66875 7 2.565 7 3.69C7 4.44 6.71016 5.25562 6.13047 6.13687C5.55078 7.01812 4.67396 7.9725 3.5 9Z" fill="#8C8B91"/>
</svg>
