<svg width="15" height="13" viewBox="0 0 15 13" fill="none" xmlns="http://www.w3.org/2000/svg">
<path d="M6.01562 0C7.96131 0 9.54185 1.58426 9.54199 3.52637C9.54199 4.82949 8.82982 5.96782 7.77734 6.57715H7.77637C10.2356 7.33065 12.0303 9.6235 12.0303 12.3301C12.0303 12.5329 11.864 12.6992 11.6611 12.6992C11.4583 12.6992 11.292 12.5329 11.292 12.3301C11.292 9.42338 8.93192 7.05644 6.0293 7.04883H6.00098C3.09818 7.05645 0.738281 9.42391 0.738281 12.3301C0.738265 12.5329 0.571937 12.6991 0.369141 12.6992C0.166277 12.6992 1.60755e-05 12.5329 0 12.3301C0 9.627 1.79461 7.33407 4.25391 6.57715C3.20144 5.96791 2.48926 4.83019 2.48926 3.52637C2.4894 1.58076 4.06947 7.76665e-05 6.01562 0ZM10.5889 0.664062C12.0213 0.664215 13.1921 1.83403 13.1924 3.27051C13.1924 4.09439 12.7932 4.88115 12.125 5.37207L12.1172 5.37598C13.6425 6.00755 14.6992 7.51471 14.6992 9.23535C14.6992 9.43814 14.5328 9.60435 14.3301 9.60449C14.1272 9.60449 13.9609 9.43822 13.9609 9.23535C13.9609 7.51072 12.6757 6.04539 10.9697 5.82715C10.9587 5.82715 10.9475 5.81559 10.9365 5.81543C10.9109 5.81197 10.884 5.80112 10.8584 5.79004C10.8405 5.78314 10.825 5.77567 10.8105 5.76465C10.7885 5.74948 10.7706 5.73149 10.752 5.71289C10.7375 5.70191 10.7268 5.6863 10.7158 5.67188C10.7013 5.64972 10.6898 5.62718 10.6787 5.60156C10.6711 5.58289 10.6597 5.56457 10.6562 5.5459C10.6522 5.54253 10.6484 5.53866 10.6484 5.53125C10.6452 5.51283 10.6484 5.49499 10.6484 5.47656C10.645 5.45441 10.6455 5.43569 10.6455 5.41699C10.6458 5.41374 10.6483 5.41031 10.6484 5.40332C10.6519 5.37705 10.6637 5.35467 10.6748 5.3291C10.6817 5.30694 10.6891 5.28823 10.7002 5.26953C10.7147 5.24748 10.7373 5.22563 10.7559 5.20703C10.7669 5.19597 10.7775 5.18096 10.792 5.16992C10.8175 5.1513 10.8434 5.14092 10.873 5.12988C10.8876 5.12573 10.9022 5.11383 10.9209 5.11035C10.9284 5.11035 10.932 5.10371 10.9395 5.10352C11.2123 5.05229 11.464 4.9445 11.6855 4.77832H11.6885C12.1683 4.42726 12.4531 3.86211 12.4531 3.27148C12.453 2.24134 11.619 1.4025 10.5889 1.40234C10.4485 1.40234 10.3042 1.41704 10.168 1.4502C9.96863 1.49795 9.76903 1.37311 9.72461 1.17383C9.68033 0.97455 9.80181 0.774969 10.001 0.730469C10.1928 0.686154 10.3895 0.664062 10.5889 0.664062ZM6.01562 0.738281C4.47938 0.738359 3.22769 1.99005 3.22754 3.52637H3.22852C3.22852 5.05931 4.47309 6.30684 6.00195 6.31445H6.03125C7.56347 6.30324 8.80371 5.06262 8.80371 3.52637C8.80356 1.99009 7.55193 0.738281 6.01562 0.738281Z" fill="white"/>
</svg>
