<svg width="9" height="9" viewBox="0 0 9 9" fill="none" xmlns="http://www.w3.org/2000/svg">
<path d="M9 9L7.2 7.2H2.7C2.4525 7.2 2.24063 7.11188 2.06438 6.93563C1.88813 6.75938 1.8 6.5475 1.8 6.3V5.85H6.75C6.9975 5.85 7.20938 5.76188 7.38563 5.58563C7.56188 5.40938 7.65 5.1975 7.65 4.95V1.8H8.1C8.3475 1.8 8.55938 1.88813 8.73563 2.06438C8.91188 2.24063 9 2.4525 9 2.7V9ZM0.9 4.57875L1.42875 4.05H5.85V0.9H0.9V4.57875ZM0 6.75V0.9C0 0.6525 0.088125 0.440625 0.264375 0.264375C0.440625 0.088125 0.6525 0 0.9 0H5.85C6.0975 0 6.30938 0.088125 6.48563 0.264375C6.66188 0.440625 6.75 0.6525 6.75 0.9V4.05C6.75 4.2975 6.66188 4.50938 6.48563 4.68563C6.30938 4.86188 6.0975 4.95 5.85 4.95H1.8L0 6.75Z" fill="#8C8B91"/>
</svg>
