<svg width="133" height="30" viewBox="0 0 133 30" fill="none" xmlns="http://www.w3.org/2000/svg">
<path d="M37.1391 13.212C36.2391 13.212 35.5011 13.134 34.9251 12.978C34.3491 12.81 33.8931 12.6 33.5571 12.348C33.2331 12.096 33.0051 11.826 32.8731 11.538C32.7411 11.238 32.6751 10.962 32.6751 10.71C32.6751 10.23 32.7831 9.858 32.9991 9.594C33.2151 9.318 33.4911 9.126 33.8271 9.018C34.1631 8.898 34.5231 8.838 34.9071 8.838C34.9071 9.594 35.0271 10.212 35.2671 10.692C35.5071 11.16 35.8251 11.508 36.2211 11.736C36.6171 11.952 37.0371 12.06 37.4811 12.06C38.1531 12.06 38.6691 11.874 39.0291 11.502C39.4011 11.13 39.5871 10.71 39.5871 10.242C39.5871 9.846 39.4611 9.504 39.2091 9.216C38.9691 8.928 38.6211 8.664 38.1651 8.424C37.7091 8.184 37.1511 7.932 36.4911 7.668C35.8311 7.392 35.2791 7.11 34.8351 6.822C34.3911 6.534 34.0371 6.228 33.7731 5.904C33.5091 5.568 33.3231 5.22 33.2151 4.86C33.1071 4.488 33.0531 4.092 33.0531 3.672C33.0531 2.916 33.2571 2.268 33.6651 1.728C34.0731 1.176 34.6251 0.75 35.3211 0.45C36.0291 0.15 36.8211 0 37.6971 0C38.6331 0 39.3951 0.108 39.9831 0.324C40.5831 0.528 41.0211 0.798 41.2971 1.134C41.5731 1.458 41.7111 1.806 41.7111 2.178C41.7111 2.622 41.5191 2.994 41.1351 3.294C40.7631 3.594 40.1451 3.744 39.2811 3.744C39.2811 3.36 39.2091 2.976 39.0651 2.592C38.9331 2.196 38.7231 1.86 38.4351 1.584C38.1471 1.308 37.7811 1.17 37.3371 1.17C37.0251 1.17 36.7431 1.23 36.4911 1.35C36.2391 1.458 36.0351 1.62 35.8791 1.836C35.7351 2.052 35.6631 2.334 35.6631 2.682C35.6631 2.958 35.7411 3.234 35.8971 3.51C36.0531 3.774 36.3531 4.05 36.7971 4.338C37.2411 4.626 37.8891 4.944 38.7411 5.292C39.6171 5.64 40.3071 6.012 40.8111 6.408C41.3271 6.792 41.6871 7.218 41.8911 7.686C42.1071 8.142 42.2151 8.658 42.2151 9.234C42.2151 10.014 42.0051 10.704 41.5851 11.304C41.1771 11.892 40.5891 12.36 39.8211 12.708C39.0651 13.044 38.1711 13.212 37.1391 13.212Z" fill="white"/>
<path d="M47.5018 13.212C46.6258 13.212 45.9298 13.002 45.4138 12.582C44.8978 12.15 44.6398 11.406 44.6398 10.35V4.68H43.3078V3.69C43.7638 3.69 44.1478 3.6 44.4598 3.42C44.7838 3.24 45.0358 3.054 45.2158 2.862C45.3838 2.682 45.5398 2.448 45.6838 2.16C45.8398 1.872 45.9598 1.53 46.0438 1.134H47.8078V3.384H50.0758V4.68H47.8078V10.062C47.8078 10.578 47.8858 10.956 48.0418 11.196C48.1978 11.424 48.4918 11.538 48.9238 11.538C49.1638 11.538 49.3918 11.526 49.6078 11.502C49.8358 11.466 50.0458 11.424 50.2378 11.376V12.69C50.0338 12.786 49.6978 12.9 49.2298 13.032C48.7618 13.152 48.1858 13.212 47.5018 13.212Z" fill="white"/>
<path d="M56.1918 13.212C54.6918 13.212 53.5098 12.798 52.6458 11.97C51.7938 11.13 51.3678 9.858 51.3678 8.154C51.3678 6.462 51.7758 5.202 52.5918 4.374C53.4198 3.546 54.6378 3.132 56.2458 3.132C57.7458 3.132 58.9278 3.546 59.7918 4.374C60.6558 5.202 61.0878 6.462 61.0878 8.154C61.0878 9.858 60.6738 11.13 59.8458 11.97C59.0178 12.798 57.7998 13.212 56.1918 13.212ZM56.2278 12.006C56.6358 12.006 56.9598 11.862 57.1998 11.574C57.4398 11.274 57.6138 10.842 57.7218 10.278C57.8298 9.702 57.8838 8.994 57.8838 8.154C57.8838 7.314 57.8238 6.612 57.7038 6.048C57.5958 5.484 57.4218 5.064 57.1818 4.788C56.9418 4.5 56.6178 4.356 56.2098 4.356C55.8138 4.356 55.4958 4.5 55.2558 4.788C55.0158 5.064 54.8418 5.484 54.7338 6.048C54.6258 6.612 54.5718 7.314 54.5718 8.154C54.5718 8.994 54.6258 9.702 54.7338 10.278C54.8418 10.842 55.0158 11.274 55.2558 11.574C55.5078 11.862 55.8318 12.006 56.2278 12.006Z" fill="white"/>
<path d="M62.1486 13.032V12.006H62.2206C62.4966 12.006 62.7306 11.976 62.9226 11.916C63.1146 11.856 63.2646 11.736 63.3726 11.556C63.4806 11.364 63.5346 11.082 63.5346 10.71V5.634C63.5346 5.274 63.4866 5.01 63.3906 4.842C63.3066 4.662 63.1746 4.548 62.9946 4.5C62.8146 4.44 62.5926 4.41 62.3286 4.41H62.2746V3.384H66.2166L66.5766 4.932H66.6666C66.8466 4.512 67.0566 4.17 67.2966 3.906C67.5366 3.642 67.8246 3.45 68.1606 3.33C68.4966 3.21 68.9046 3.15 69.3846 3.15C70.0806 3.15 70.5906 3.306 70.9146 3.618C71.2386 3.918 71.4006 4.308 71.4006 4.788C71.4006 5.412 71.1726 5.874 70.7166 6.174C70.2726 6.462 69.6666 6.606 68.8986 6.606C68.8986 6.27 68.8746 5.994 68.8266 5.778C68.7786 5.55 68.6946 5.376 68.5746 5.256C68.4666 5.136 68.2986 5.076 68.0706 5.076C67.8066 5.076 67.5846 5.166 67.4046 5.346C67.2366 5.526 67.0986 5.766 66.9906 6.066C66.8946 6.354 66.8226 6.666 66.7746 7.002C66.7266 7.326 66.7026 7.626 66.7026 7.902V10.8C66.7026 11.148 66.7506 11.412 66.8466 11.592C66.9426 11.76 67.0806 11.874 67.2606 11.934C67.4406 11.982 67.6446 12.006 67.8726 12.006H68.4846V13.032H62.1486Z" fill="white"/>
<path d="M72.0836 16.038C72.7076 16.038 73.2416 15.966 73.6856 15.822C74.1296 15.69 74.4956 15.498 74.7836 15.246C75.0836 14.994 75.3296 14.694 75.5216 14.346C75.7136 13.998 75.8816 13.614 76.0256 13.194L72.8216 5.238C72.7376 5.01 72.6416 4.848 72.5336 4.752C72.4256 4.644 72.3056 4.572 72.1736 4.536C72.0416 4.488 71.8916 4.464 71.7236 4.464H71.6336V3.384H77.1416V4.41H77.0696C76.7096 4.41 76.4396 4.458 76.2596 4.554C76.0916 4.65 76.0076 4.812 76.0076 5.04C76.0076 5.148 76.0256 5.274 76.0616 5.418C76.1096 5.55 76.1516 5.67 76.1876 5.778L77.2676 8.82C77.3396 9.012 77.3996 9.198 77.4476 9.378C77.5076 9.558 77.5556 9.726 77.5916 9.882C77.6276 10.026 77.6576 10.164 77.6816 10.296C77.7056 10.428 77.7236 10.554 77.7356 10.674C77.7596 10.41 77.8076 10.158 77.8796 9.918C77.9516 9.666 78.0056 9.486 78.0416 9.378L79.1756 5.994C79.2116 5.886 79.2536 5.736 79.3016 5.544C79.3496 5.34 79.3736 5.184 79.3736 5.076C79.3736 4.824 79.2776 4.656 79.0856 4.572C78.9056 4.476 78.6296 4.422 78.2576 4.41H78.1856V3.384H82.1816V4.41H82.1096C81.8936 4.422 81.7016 4.47 81.5336 4.554C81.3776 4.638 81.2336 4.776 81.1016 4.968C80.9816 5.148 80.8616 5.388 80.7416 5.688L78.0236 12.996C77.7236 13.836 77.4356 14.52 77.1596 15.048C76.8836 15.588 76.5536 16.014 76.1696 16.326C75.7856 16.638 75.2996 16.854 74.7116 16.974C74.1236 17.106 73.3676 17.172 72.4436 17.172H72.0836V16.038Z" fill="white"/>
<path d="M83.6393 5.238C83.5553 5.022 83.4593 4.854 83.3513 4.734C83.2433 4.614 83.0993 4.53 82.9193 4.482C82.7393 4.434 82.5173 4.41 82.2533 4.41V3.384H88.1573V4.41H87.4733C87.2453 4.41 87.0773 4.458 86.9693 4.554C86.8613 4.638 86.8073 4.77 86.8073 4.95C86.8073 5.094 86.8253 5.232 86.8613 5.364C86.8973 5.496 86.9333 5.616 86.9693 5.724L88.1573 9.126C88.2413 9.354 88.3193 9.582 88.3913 9.81C88.4633 10.026 88.5233 10.242 88.5713 10.458C88.6313 10.662 88.6733 10.86 88.6973 11.052C88.7333 10.884 88.7753 10.71 88.8233 10.53C88.8713 10.338 88.9193 10.158 88.9673 9.99C89.0153 9.822 89.0573 9.672 89.0933 9.54L90.2813 5.868C90.3413 5.7 90.3893 5.544 90.4253 5.4C90.4613 5.244 90.4793 5.082 90.4793 4.914C90.4793 4.758 90.4193 4.638 90.2993 4.554C90.1793 4.458 89.9933 4.41 89.7413 4.41H89.3093V3.384H93.3053V4.41H92.8913C92.7353 4.41 92.5973 4.446 92.4773 4.518C92.3573 4.578 92.2433 4.704 92.1353 4.896C92.0393 5.076 91.9253 5.34 91.7933 5.688L89.2913 13.032H86.5193L83.6393 5.238Z" fill="white"/>
<path d="M98.9427 13.212C97.3107 13.212 96.0927 12.78 95.2887 11.916C94.4847 11.04 94.0827 9.816 94.0827 8.244C94.0827 6.552 94.4847 5.28 95.2887 4.428C96.1047 3.564 97.2507 3.132 98.7267 3.132C100.095 3.132 101.169 3.498 101.949 4.23C102.741 4.962 103.137 6.042 103.137 7.47V8.442H97.2687C97.2927 9.21 97.3947 9.84 97.5747 10.332C97.7667 10.824 98.0367 11.19 98.3847 11.43C98.7327 11.658 99.1587 11.772 99.6627 11.772C100.083 11.772 100.443 11.706 100.743 11.574C101.055 11.43 101.319 11.244 101.535 11.016C101.763 10.776 101.943 10.506 102.075 10.206C102.279 10.278 102.435 10.392 102.543 10.548C102.663 10.692 102.723 10.878 102.723 11.106C102.723 11.454 102.591 11.79 102.327 12.114C102.075 12.438 101.673 12.702 101.121 12.906C100.569 13.11 99.8427 13.212 98.9427 13.212ZM100.005 7.218C100.005 6.606 99.9627 6.09 99.8787 5.67C99.7947 5.25 99.6627 4.932 99.4827 4.716C99.3147 4.488 99.0867 4.374 98.7987 4.374C98.5107 4.374 98.2527 4.482 98.0247 4.698C97.7967 4.914 97.6227 5.232 97.5027 5.652C97.3827 6.072 97.3167 6.594 97.3047 7.218H100.005Z" fill="white"/>
<path d="M104.108 13.032V12.006H104.18C104.456 12.006 104.69 11.976 104.882 11.916C105.074 11.856 105.224 11.736 105.332 11.556C105.44 11.364 105.494 11.082 105.494 10.71V5.634C105.494 5.274 105.446 5.01 105.35 4.842C105.266 4.662 105.134 4.548 104.954 4.5C104.774 4.44 104.552 4.41 104.288 4.41H104.234V3.384H108.176L108.536 4.932H108.626C108.806 4.512 109.016 4.17 109.256 3.906C109.496 3.642 109.784 3.45 110.12 3.33C110.456 3.21 110.864 3.15 111.344 3.15C112.04 3.15 112.55 3.306 112.874 3.618C113.198 3.918 113.36 4.308 113.36 4.788C113.36 5.412 113.132 5.874 112.676 6.174C112.232 6.462 111.626 6.606 110.858 6.606C110.858 6.27 110.834 5.994 110.786 5.778C110.738 5.55 110.654 5.376 110.534 5.256C110.426 5.136 110.258 5.076 110.03 5.076C109.766 5.076 109.544 5.166 109.364 5.346C109.196 5.526 109.058 5.766 108.95 6.066C108.854 6.354 108.782 6.666 108.734 7.002C108.686 7.326 108.662 7.626 108.662 7.902V10.8C108.662 11.148 108.71 11.412 108.806 11.592C108.902 11.76 109.04 11.874 109.22 11.934C109.4 11.982 109.604 12.006 109.832 12.006H110.444V13.032H104.108Z" fill="white"/>
<path d="M117.913 13.212C116.965 13.212 116.215 13.116 115.663 12.924C115.111 12.732 114.715 12.474 114.475 12.15C114.235 11.826 114.115 11.472 114.115 11.088C114.115 10.716 114.205 10.428 114.385 10.224C114.565 10.02 114.793 9.882 115.069 9.81C115.345 9.726 115.627 9.684 115.915 9.684C115.915 10.212 115.999 10.65 116.167 10.998C116.335 11.346 116.569 11.604 116.869 11.772C117.181 11.94 117.535 12.024 117.931 12.024C118.531 12.024 118.957 11.916 119.209 11.7C119.473 11.484 119.605 11.226 119.605 10.926C119.605 10.686 119.527 10.476 119.371 10.296C119.227 10.116 118.993 9.948 118.669 9.792C118.357 9.636 117.937 9.48 117.409 9.324C116.713 9.108 116.131 8.868 115.663 8.604C115.207 8.328 114.859 7.992 114.619 7.596C114.379 7.2 114.259 6.714 114.259 6.138C114.259 5.118 114.631 4.368 115.375 3.888C116.119 3.396 117.103 3.15 118.327 3.15C119.119 3.15 119.755 3.234 120.235 3.402C120.727 3.57 121.081 3.786 121.297 4.05C121.513 4.314 121.621 4.584 121.621 4.86C121.621 5.28 121.471 5.598 121.171 5.814C120.871 6.03 120.385 6.138 119.713 6.138C119.713 5.538 119.557 5.082 119.245 4.77C118.945 4.446 118.543 4.284 118.039 4.284C117.787 4.284 117.559 4.326 117.355 4.41C117.151 4.482 116.983 4.59 116.851 4.734C116.731 4.878 116.671 5.058 116.671 5.274C116.671 5.514 116.737 5.724 116.869 5.904C117.001 6.072 117.235 6.234 117.571 6.39C117.907 6.546 118.375 6.72 118.975 6.912C119.563 7.104 120.085 7.326 120.541 7.578C120.997 7.83 121.351 8.148 121.603 8.532C121.855 8.916 121.981 9.396 121.981 9.972C121.981 10.956 121.633 11.742 120.937 12.33C120.253 12.918 119.245 13.212 117.913 13.212Z" fill="white"/>
<path d="M128.21 13.212C126.578 13.212 125.36 12.78 124.556 11.916C123.752 11.04 123.35 9.816 123.35 8.244C123.35 6.552 123.752 5.28 124.556 4.428C125.372 3.564 126.518 3.132 127.994 3.132C129.362 3.132 130.436 3.498 131.216 4.23C132.008 4.962 132.404 6.042 132.404 7.47V8.442H126.536C126.56 9.21 126.662 9.84 126.842 10.332C127.034 10.824 127.304 11.19 127.652 11.43C128 11.658 128.426 11.772 128.93 11.772C129.35 11.772 129.71 11.706 130.01 11.574C130.322 11.43 130.586 11.244 130.802 11.016C131.03 10.776 131.21 10.506 131.342 10.206C131.546 10.278 131.702 10.392 131.81 10.548C131.93 10.692 131.99 10.878 131.99 11.106C131.99 11.454 131.858 11.79 131.594 12.114C131.342 12.438 130.94 12.702 130.388 12.906C129.836 13.11 129.11 13.212 128.21 13.212ZM129.272 7.218C129.272 6.606 129.23 6.09 129.146 5.67C129.062 5.25 128.93 4.932 128.75 4.716C128.582 4.488 128.354 4.374 128.066 4.374C127.778 4.374 127.52 4.482 127.292 4.698C127.064 4.914 126.89 5.232 126.77 5.652C126.65 6.072 126.584 6.594 126.572 7.218H129.272Z" fill="white"/>
<path d="M35.0111 29.3455V28.8835H35.2641C35.4254 28.8835 35.5721 28.8688 35.7041 28.8395C35.8434 28.8028 35.9534 28.7331 36.0341 28.6305C36.1221 28.5205 36.1661 28.3591 36.1661 28.1465V26.0675L34.1311 22.5365C34.0504 22.3971 33.9734 22.2871 33.9001 22.2065C33.8341 22.1185 33.7571 22.0561 33.6691 22.0195C33.5811 21.9755 33.4748 21.9535 33.3501 21.9535H33.2071V21.4915H36.2321V21.9535H35.8251C35.6271 21.9535 35.4951 21.9901 35.4291 22.0635C35.3704 22.1295 35.3411 22.2101 35.3411 22.3055C35.3411 22.4081 35.3631 22.5108 35.4071 22.6135C35.4511 22.7161 35.4951 22.8078 35.5391 22.8885L36.3531 24.3625C36.4191 24.4725 36.4778 24.5861 36.5291 24.7035C36.5804 24.8135 36.6281 24.9235 36.6721 25.0335C36.7234 25.1361 36.7674 25.2388 36.8041 25.3415C36.8408 25.4368 36.8738 25.5285 36.9031 25.6165C36.9691 25.4625 37.0644 25.2718 37.1891 25.0445C37.3138 24.8171 37.4384 24.5898 37.5631 24.3625L38.2671 23.0975C38.3404 22.9728 38.3918 22.8555 38.4211 22.7455C38.4504 22.6281 38.4651 22.5255 38.4651 22.4375C38.4651 22.2761 38.4064 22.1551 38.2891 22.0745C38.1791 21.9938 38.0178 21.9535 37.8051 21.9535H37.4861V21.4915H40.1701V21.9535H40.0381C39.9354 21.9535 39.8364 21.9791 39.7411 22.0305C39.6531 22.0818 39.5578 22.1698 39.4551 22.2945C39.3598 22.4191 39.2498 22.5915 39.1251 22.8115L37.2771 26.0675V28.0915C37.2771 28.3188 37.3174 28.4911 37.3981 28.6085C37.4788 28.7185 37.5888 28.7918 37.7281 28.8285C37.8674 28.8651 38.0178 28.8835 38.1791 28.8835H38.4321V29.3455H35.0111Z" fill="white"/>
<path d="M42.5207 29.4555C41.7287 29.4555 41.1053 29.2025 40.6507 28.6965C40.196 28.1905 39.9687 27.4205 39.9687 26.3865C39.9687 25.3598 40.185 24.5971 40.6177 24.0985C41.0577 23.5925 41.703 23.3395 42.5537 23.3395C43.3457 23.3395 43.969 23.5925 44.4237 24.0985C44.8783 24.5971 45.1057 25.3598 45.1057 26.3865C45.1057 27.4205 44.8857 28.1905 44.4457 28.6965C44.013 29.2025 43.3713 29.4555 42.5207 29.4555ZM42.5427 28.8835C42.9093 28.8835 43.2027 28.7918 43.4227 28.6085C43.6427 28.4178 43.8003 28.1355 43.8957 27.7615C43.991 27.3875 44.0387 26.9291 44.0387 26.3865C44.0387 25.8365 43.9873 25.3818 43.8847 25.0225C43.7893 24.6558 43.6317 24.3808 43.4117 24.1975C43.1917 24.0141 42.8983 23.9225 42.5317 23.9225C42.165 23.9225 41.8717 24.0141 41.6517 24.1975C41.4317 24.3808 41.274 24.6558 41.1787 25.0225C41.0833 25.3818 41.0357 25.8365 41.0357 26.3865C41.0357 26.9291 41.0833 27.3875 41.1787 27.7615C41.2813 28.1355 41.4427 28.4178 41.6627 28.6085C41.8827 28.7918 42.176 28.8835 42.5427 28.8835Z" fill="white"/>
<path d="M48.7153 29.4555C48.136 29.4555 47.6886 29.2868 47.3733 28.9495C47.058 28.6048 46.9003 28.0548 46.9003 27.2995V24.6595C46.9003 24.4395 46.8563 24.2781 46.7683 24.1755C46.6876 24.0655 46.5776 23.9958 46.4383 23.9665C46.3063 23.9298 46.1596 23.9115 45.9983 23.9115H45.9653V23.4495H47.9343V27.2445C47.9343 27.5598 47.9673 27.8311 48.0333 28.0585C48.1066 28.2858 48.2276 28.4581 48.3963 28.5755C48.565 28.6928 48.796 28.7515 49.0893 28.7515C49.412 28.7515 49.676 28.6781 49.8813 28.5315C50.0866 28.3775 50.237 28.1685 50.3323 27.9045C50.4276 27.6331 50.4753 27.3215 50.4753 26.9695V24.7035C50.4753 24.4688 50.435 24.2965 50.3543 24.1865C50.2736 24.0765 50.1636 24.0031 50.0243 23.9665C49.8923 23.9298 49.742 23.9115 49.5733 23.9115H49.5403V23.4495H51.5093V28.1465C51.5093 28.3591 51.5496 28.5205 51.6303 28.6305C51.7183 28.7331 51.8283 28.8028 51.9603 28.8395C52.0996 28.8688 52.25 28.8835 52.4113 28.8835H52.4443V29.3455H50.6953L50.5523 28.4545H50.4973C50.3873 28.6598 50.2626 28.8285 50.1233 28.9605C49.9913 29.0925 49.852 29.1951 49.7053 29.2685C49.5586 29.3345 49.401 29.3821 49.2323 29.4115C49.0636 29.4408 48.8913 29.4555 48.7153 29.4555Z" fill="white"/>
<path d="M53.0577 29.3455V28.8835H53.0907C53.2594 28.8835 53.4097 28.8651 53.5417 28.8285C53.681 28.7918 53.791 28.7185 53.8717 28.6085C53.9524 28.4911 53.9927 28.3188 53.9927 28.0915V24.6595C53.9927 24.4395 53.9487 24.2781 53.8607 24.1755C53.78 24.0655 53.67 23.9958 53.5307 23.9665C53.3987 23.9298 53.252 23.9115 53.0907 23.9115H53.0577V23.4495H54.7517L54.9607 24.5385H55.0157C55.111 24.3185 55.2137 24.1168 55.3237 23.9335C55.4337 23.7501 55.5804 23.6071 55.7637 23.5045C55.947 23.3945 56.2 23.3395 56.5227 23.3395C56.926 23.3395 57.223 23.4091 57.4137 23.5485C57.6117 23.6878 57.7107 23.8858 57.7107 24.1425C57.7107 24.3698 57.63 24.5568 57.4687 24.7035C57.3147 24.8501 57.0544 24.9235 56.6877 24.9235C56.6877 24.7181 56.6694 24.5531 56.6327 24.4285C56.596 24.3038 56.5337 24.2121 56.4457 24.1535C56.365 24.0948 56.2514 24.0655 56.1047 24.0655C55.8994 24.0655 55.727 24.1461 55.5877 24.3075C55.4484 24.4688 55.3384 24.6741 55.2577 24.9235C55.177 25.1728 55.1184 25.4331 55.0817 25.7045C55.045 25.9685 55.0267 26.2068 55.0267 26.4195V28.1465C55.0267 28.3591 55.067 28.5205 55.1477 28.6305C55.2357 28.7331 55.3457 28.8028 55.4777 28.8395C55.617 28.8688 55.7674 28.8835 55.9287 28.8835H56.2367V29.3455H53.0577Z" fill="white"/>
<path d="M61.5549 24.4945C61.5035 24.3405 61.4412 24.2231 61.3679 24.1425C61.3019 24.0545 61.2212 23.9958 61.1259 23.9665C61.0379 23.9298 60.9205 23.9115 60.7739 23.9115H60.7409V23.4495H63.4579V23.9115H63.3149C63.0949 23.9115 62.9299 23.9445 62.8199 24.0105C62.7099 24.0691 62.6549 24.1901 62.6549 24.3735C62.6549 24.4321 62.6622 24.5055 62.6769 24.5935C62.6989 24.6815 62.7209 24.7658 62.7429 24.8465L63.2599 26.6945C63.3112 26.8705 63.3589 27.0685 63.4029 27.2885C63.4542 27.5011 63.5019 27.7065 63.5459 27.9045C63.5899 28.0951 63.6229 28.2528 63.6449 28.3775H63.6779C63.6999 28.2528 63.7329 28.1025 63.7769 27.9265C63.8282 27.7505 63.8832 27.5635 63.9419 27.3655C64.0079 27.1675 64.0702 26.9805 64.1289 26.8045L65.2729 23.4825H65.9659L67.0659 26.7385C67.1099 26.8705 67.1539 27.0135 67.1979 27.1675C67.2492 27.3141 67.2969 27.4645 67.3409 27.6185C67.3849 27.7725 67.4252 27.9155 67.4619 28.0475C67.4985 28.1795 67.5242 28.2895 67.5389 28.3775H67.5719C67.5939 28.2528 67.6232 28.1135 67.6599 27.9595C67.7039 27.7981 67.7515 27.6185 67.8029 27.4205C67.8615 27.2225 67.9275 27.0061 68.0009 26.7715L68.5509 25.0005C68.5802 24.9051 68.6022 24.8061 68.6169 24.7035C68.6389 24.5935 68.6499 24.5091 68.6499 24.4505C68.6499 24.2598 68.5875 24.1241 68.4629 24.0435C68.3455 23.9555 68.1659 23.9115 67.9239 23.9115H67.8469V23.4495H70.2009V23.9115H70.0579C69.9185 23.9115 69.8012 23.9335 69.7059 23.9775C69.6105 24.0141 69.5262 24.0948 69.4529 24.2195C69.3795 24.3441 69.3062 24.5275 69.2329 24.7695L67.8139 29.3455H66.9339L65.4269 24.7475L63.8649 29.3455H62.9959L61.5549 24.4945Z" fill="white"/>
<path d="M73.3722 29.4555C72.5802 29.4555 71.9569 29.2025 71.5022 28.6965C71.0476 28.1905 70.8202 27.4205 70.8202 26.3865C70.8202 25.3598 71.0366 24.5971 71.4692 24.0985C71.9092 23.5925 72.5546 23.3395 73.4052 23.3395C74.1972 23.3395 74.8206 23.5925 75.2752 24.0985C75.7299 24.5971 75.9572 25.3598 75.9572 26.3865C75.9572 27.4205 75.7372 28.1905 75.2972 28.6965C74.8646 29.2025 74.2229 29.4555 73.3722 29.4555ZM73.3942 28.8835C73.7609 28.8835 74.0542 28.7918 74.2742 28.6085C74.4942 28.4178 74.6519 28.1355 74.7472 27.7615C74.8426 27.3875 74.8902 26.9291 74.8902 26.3865C74.8902 25.8365 74.8389 25.3818 74.7362 25.0225C74.6409 24.6558 74.4832 24.3808 74.2632 24.1975C74.0432 24.0141 73.7499 23.9225 73.3832 23.9225C73.0166 23.9225 72.7232 24.0141 72.5032 24.1975C72.2832 24.3808 72.1256 24.6558 72.0302 25.0225C71.9349 25.3818 71.8872 25.8365 71.8872 26.3865C71.8872 26.9291 71.9349 27.3875 72.0302 27.7615C72.1329 28.1355 72.2942 28.4178 72.5142 28.6085C72.7342 28.7918 73.0276 28.8835 73.3942 28.8835Z" fill="white"/>
<path d="M76.9269 29.3455V28.8835H76.9599C77.1285 28.8835 77.2789 28.8651 77.4109 28.8285C77.5502 28.7918 77.6602 28.7185 77.7409 28.6085C77.8215 28.4911 77.8619 28.3188 77.8619 28.0915V24.6595C77.8619 24.4395 77.8179 24.2781 77.7299 24.1755C77.6492 24.0655 77.5392 23.9958 77.3999 23.9665C77.2679 23.9298 77.1212 23.9115 76.9599 23.9115H76.9269V23.4495H78.6209L78.8299 24.5385H78.8849C78.9802 24.3185 79.0829 24.1168 79.1929 23.9335C79.3029 23.7501 79.4495 23.6071 79.6329 23.5045C79.8162 23.3945 80.0692 23.3395 80.3919 23.3395C80.7952 23.3395 81.0922 23.4091 81.2829 23.5485C81.4809 23.6878 81.5799 23.8858 81.5799 24.1425C81.5799 24.3698 81.4992 24.5568 81.3379 24.7035C81.1839 24.8501 80.9235 24.9235 80.5569 24.9235C80.5569 24.7181 80.5385 24.5531 80.5019 24.4285C80.4652 24.3038 80.4029 24.2121 80.3149 24.1535C80.2342 24.0948 80.1205 24.0655 79.9739 24.0655C79.7685 24.0655 79.5962 24.1461 79.4569 24.3075C79.3175 24.4688 79.2075 24.6741 79.1269 24.9235C79.0462 25.1728 78.9875 25.4331 78.9509 25.7045C78.9142 25.9685 78.8959 26.2068 78.8959 26.4195V28.1465C78.8959 28.3591 78.9362 28.5205 79.0169 28.6305C79.1049 28.7331 79.2149 28.8028 79.3469 28.8395C79.4862 28.8688 79.6365 28.8835 79.7979 28.8835H80.1059V29.3455H76.9269Z" fill="white"/>
<path d="M84.5906 29.4555C84.1066 29.4555 83.6959 29.3491 83.3586 29.1365C83.0286 28.9238 82.7756 28.5938 82.5996 28.1465C82.4309 27.6918 82.3466 27.1125 82.3466 26.4085C82.3466 25.6971 82.4309 25.1178 82.5996 24.6705C82.7756 24.2158 83.0286 23.8821 83.3586 23.6695C83.6959 23.4495 84.1066 23.3395 84.5906 23.3395C85.0159 23.3395 85.3606 23.4311 85.6246 23.6145C85.8959 23.7905 86.1123 24.0215 86.2736 24.3075H86.3396C86.3249 24.1828 86.3103 24.0508 86.2956 23.9115C86.2883 23.7721 86.2809 23.6328 86.2736 23.4935C86.2736 23.3468 86.2736 23.2148 86.2736 23.0975V22.1955C86.2736 21.9755 86.2296 21.8141 86.1416 21.7115C86.0609 21.6015 85.9509 21.5318 85.8116 21.5025C85.6796 21.4658 85.5329 21.4475 85.3716 21.4475H85.2836V20.9855H87.3076V28.1355C87.3076 28.3481 87.3479 28.5095 87.4286 28.6195C87.5166 28.7295 87.6266 28.8028 87.7586 28.8395C87.8979 28.8688 88.0483 28.8835 88.2096 28.8835H88.2976V29.3455H86.4386L86.3176 28.3555H86.2736C86.1123 28.6928 85.8996 28.9605 85.6356 29.1585C85.3716 29.3565 85.0233 29.4555 84.5906 29.4555ZM84.7776 28.7515C85.3496 28.7515 85.7419 28.5608 85.9546 28.1795C86.1673 27.7908 86.2736 27.2005 86.2736 26.4085C86.2736 25.8951 86.2259 25.4661 86.1306 25.1215C86.0426 24.7695 85.8886 24.5018 85.6686 24.3185C85.4559 24.1351 85.1553 24.0435 84.7666 24.0435C84.4439 24.0435 84.1836 24.1351 83.9856 24.3185C83.7876 24.5018 83.6409 24.7695 83.5456 25.1215C83.4576 25.4735 83.4136 25.9061 83.4136 26.4195C83.4136 26.9401 83.4576 27.3728 83.5456 27.7175C83.6409 28.0621 83.7876 28.3225 83.9856 28.4985C84.1909 28.6671 84.4549 28.7515 84.7776 28.7515Z" fill="white"/>
<path d="M90.8084 29.4555C90.4418 29.4555 90.1228 29.4115 89.8514 29.3235C89.5801 29.2355 89.3674 29.1071 89.2134 28.9385C89.0668 28.7625 88.9934 28.5461 88.9934 28.2895C88.9934 28.0915 89.0338 27.9375 89.1144 27.8275C89.1951 27.7175 89.2868 27.6405 89.3894 27.5965C89.4994 27.5525 89.5984 27.5305 89.6864 27.5305C89.6864 27.7871 89.7231 28.0218 89.7964 28.2345C89.8698 28.4471 89.9944 28.6158 90.1704 28.7405C90.3464 28.8651 90.5811 28.9275 90.8744 28.9275C91.2631 28.9275 91.5601 28.8358 91.7654 28.6525C91.9781 28.4618 92.0844 28.2198 92.0844 27.9265C92.0844 27.7431 92.0441 27.5928 91.9634 27.4755C91.8901 27.3581 91.7544 27.2445 91.5564 27.1345C91.3658 27.0171 91.0908 26.8815 90.7314 26.7275C90.3574 26.5588 90.0458 26.3975 89.7964 26.2435C89.5544 26.0821 89.3711 25.8988 89.2464 25.6935C89.1291 25.4808 89.0704 25.2168 89.0704 24.9015C89.0704 24.4028 89.2574 24.0215 89.6314 23.7575C90.0128 23.4861 90.5151 23.3505 91.1384 23.3505C91.4904 23.3505 91.7838 23.3981 92.0184 23.4935C92.2604 23.5815 92.4401 23.7025 92.5574 23.8565C92.6821 24.0105 92.7444 24.1791 92.7444 24.3625C92.7444 24.5605 92.6748 24.7218 92.5354 24.8465C92.4034 24.9638 92.2091 25.0225 91.9524 25.0225C91.9524 24.6558 91.8754 24.3698 91.7214 24.1645C91.5674 23.9591 91.3291 23.8565 91.0064 23.8565C90.7571 23.8565 90.5554 23.8931 90.4014 23.9665C90.2474 24.0398 90.1338 24.1425 90.0604 24.2745C89.9944 24.4065 89.9614 24.5605 89.9614 24.7365C89.9614 24.9198 90.0054 25.0738 90.0934 25.1985C90.1888 25.3231 90.3354 25.4405 90.5334 25.5505C90.7388 25.6531 91.0028 25.7705 91.3254 25.9025C91.7141 26.0638 92.0294 26.2251 92.2714 26.3865C92.5134 26.5478 92.6894 26.7348 92.7994 26.9475C92.9168 27.1601 92.9754 27.4205 92.9754 27.7285C92.9754 28.3005 92.7774 28.7331 92.3814 29.0265C91.9854 29.3125 91.4611 29.4555 90.8084 29.4555Z" fill="white"/>
<path d="M96.6267 29.3455V28.8835H96.7697C96.9384 28.8835 97.0851 28.8651 97.2097 28.8285C97.3344 28.7918 97.4334 28.7185 97.5067 28.6085C97.5801 28.4911 97.6167 28.3188 97.6167 28.0915V24.6595C97.6167 24.4395 97.5801 24.2781 97.5067 24.1755C97.4334 24.0655 97.3307 23.9958 97.1987 23.9665C97.0741 23.9298 96.9311 23.9115 96.7697 23.9115H96.7367V23.4495H98.4637L98.6067 24.3405H98.6617C98.8084 24.0618 98.9661 23.8528 99.1347 23.7135C99.3034 23.5668 99.4867 23.4678 99.6847 23.4165C99.8827 23.3651 100.095 23.3395 100.323 23.3395C100.557 23.3395 100.777 23.3725 100.983 23.4385C101.195 23.5045 101.382 23.6108 101.544 23.7575C101.705 23.8968 101.83 24.0911 101.918 24.3405H102.006C102.152 24.0618 102.314 23.8528 102.49 23.7135C102.673 23.5668 102.867 23.4678 103.073 23.4165C103.285 23.3651 103.505 23.3395 103.733 23.3395C104.297 23.3395 104.737 23.5118 105.053 23.8565C105.368 24.1938 105.526 24.7401 105.526 25.4955V28.0915C105.526 28.3188 105.562 28.4911 105.636 28.6085C105.709 28.7185 105.808 28.7918 105.933 28.8285C106.065 28.8651 106.211 28.8835 106.373 28.8835H106.406V29.3455H104.492V25.5505C104.492 25.0738 104.404 24.7035 104.228 24.4395C104.059 24.1755 103.762 24.0435 103.337 24.0435C103.036 24.0435 102.794 24.1205 102.611 24.2745C102.435 24.4211 102.306 24.6191 102.226 24.8685C102.152 25.1178 102.116 25.3891 102.116 25.6825V28.0915C102.116 28.3188 102.152 28.4911 102.226 28.6085C102.299 28.7185 102.398 28.7918 102.523 28.8285C102.655 28.8651 102.801 28.8835 102.963 28.8835H102.996V29.3455H101.082V25.5505C101.082 25.0738 100.994 24.7035 100.818 24.4395C100.649 24.1755 100.352 24.0435 99.9267 24.0435C99.6114 24.0435 99.3584 24.1278 99.1677 24.2965C98.9844 24.4578 98.8524 24.6741 98.7717 24.9455C98.6911 25.2168 98.6507 25.5101 98.6507 25.8255V28.1465C98.6507 28.3591 98.6911 28.5205 98.7717 28.6305C98.8597 28.7331 98.9697 28.8028 99.1017 28.8395C99.2411 28.8688 99.3914 28.8835 99.5527 28.8835H99.5857V29.3455H96.6267Z" fill="white"/>
<path d="M108.972 29.4555C108.65 29.4555 108.356 29.3931 108.092 29.2685C107.836 29.1365 107.634 28.9421 107.487 28.6855C107.341 28.4215 107.267 28.0915 107.267 27.6955C107.267 27.1088 107.473 26.6761 107.883 26.3975C108.301 26.1188 108.932 25.9648 109.775 25.9355L110.688 25.9025V25.2425C110.688 24.9785 110.666 24.7475 110.622 24.5495C110.578 24.3441 110.483 24.1828 110.336 24.0655C110.19 23.9481 109.966 23.8895 109.665 23.8895C109.387 23.8895 109.174 23.9408 109.027 24.0435C108.881 24.1461 108.782 24.2891 108.73 24.4725C108.686 24.6485 108.664 24.8538 108.664 25.0885C108.356 25.0885 108.122 25.0371 107.96 24.9345C107.806 24.8245 107.729 24.6448 107.729 24.3955C107.729 24.1388 107.817 23.9335 107.993 23.7795C108.177 23.6255 108.419 23.5155 108.719 23.4495C109.02 23.3761 109.35 23.3395 109.709 23.3395C110.384 23.3395 110.886 23.4825 111.216 23.7685C111.554 24.0545 111.722 24.5458 111.722 25.2425V28.0915C111.722 28.2968 111.744 28.4581 111.788 28.5755C111.832 28.6855 111.906 28.7661 112.008 28.8175C112.111 28.8615 112.243 28.8835 112.404 28.8835H112.437V29.3455H110.952L110.776 28.3995H110.688C110.534 28.6048 110.384 28.7881 110.237 28.9495C110.091 29.1035 109.918 29.2281 109.72 29.3235C109.53 29.4115 109.28 29.4555 108.972 29.4555ZM109.225 28.7735C109.526 28.7735 109.783 28.7111 109.995 28.5865C110.215 28.4618 110.384 28.2858 110.501 28.0585C110.626 27.8238 110.688 27.5525 110.688 27.2445V26.3535L109.984 26.3865C109.566 26.4011 109.236 26.4635 108.994 26.5735C108.76 26.6835 108.591 26.8375 108.488 27.0355C108.386 27.2261 108.334 27.4645 108.334 27.7505C108.334 27.9778 108.367 28.1685 108.433 28.3225C108.499 28.4691 108.598 28.5828 108.73 28.6635C108.862 28.7368 109.027 28.7735 109.225 28.7735Z" fill="white"/>
<path d="M115.555 29.4555C114.998 29.4555 114.591 29.3308 114.334 29.0815C114.085 28.8248 113.96 28.3811 113.96 27.7505V24.0765H113.124V23.6365C113.256 23.6365 113.403 23.6108 113.564 23.5595C113.726 23.5008 113.865 23.4091 113.982 23.2845C114.107 23.1525 114.21 22.9911 114.29 22.8005C114.371 22.6098 114.437 22.3751 114.488 22.0965H114.994V23.4495H116.435V24.0765H114.994V27.7835C114.994 28.1575 115.071 28.4325 115.225 28.6085C115.379 28.7845 115.581 28.8725 115.83 28.8725C115.962 28.8725 116.083 28.8651 116.193 28.8505C116.303 28.8358 116.417 28.8175 116.534 28.7955V29.2795C116.439 29.3235 116.296 29.3638 116.105 29.4005C115.915 29.4371 115.731 29.4555 115.555 29.4555Z" fill="white"/>
<path d="M119.423 29.4555C118.865 29.4555 118.458 29.3308 118.202 29.0815C117.952 28.8248 117.828 28.3811 117.828 27.7505V24.0765H116.992V23.6365C117.124 23.6365 117.27 23.6108 117.432 23.5595C117.593 23.5008 117.732 23.4091 117.85 23.2845C117.974 23.1525 118.077 22.9911 118.158 22.8005C118.238 22.6098 118.304 22.3751 118.356 22.0965H118.862V23.4495H120.303V24.0765H118.862V27.7835C118.862 28.1575 118.939 28.4325 119.093 28.6085C119.247 28.7845 119.448 28.8725 119.698 28.8725C119.83 28.8725 119.951 28.8651 120.061 28.8505C120.171 28.8358 120.284 28.8175 120.402 28.7955V29.2795C120.306 29.3235 120.163 29.3638 119.973 29.4005C119.782 29.4371 119.599 29.4555 119.423 29.4555Z" fill="white"/>
<path d="M123.807 29.4555C123.007 29.4555 122.38 29.1915 121.926 28.6635C121.478 28.1355 121.255 27.3948 121.255 26.4415C121.255 25.4148 121.467 24.6411 121.893 24.1205C122.318 23.5998 122.919 23.3395 123.697 23.3395C124.408 23.3395 124.965 23.5595 125.369 23.9995C125.779 24.4395 125.985 25.0958 125.985 25.9685V26.4745H122.322C122.336 27.0098 122.406 27.4461 122.531 27.7835C122.655 28.1208 122.835 28.3701 123.07 28.5315C123.312 28.6855 123.609 28.7625 123.961 28.7625C124.217 28.7625 124.445 28.7258 124.643 28.6525C124.848 28.5791 125.024 28.4838 125.171 28.3665C125.325 28.2491 125.446 28.1245 125.534 27.9925C125.585 28.0145 125.633 28.0585 125.677 28.1245C125.721 28.1905 125.743 28.2711 125.743 28.3665C125.743 28.5131 125.673 28.6708 125.534 28.8395C125.394 29.0081 125.182 29.1548 124.896 29.2795C124.61 29.3968 124.247 29.4555 123.807 29.4555ZM124.874 25.8805C124.874 25.4918 124.833 25.1508 124.753 24.8575C124.679 24.5641 124.555 24.3368 124.379 24.1755C124.203 24.0141 123.968 23.9335 123.675 23.9335C123.403 23.9335 123.172 24.0105 122.982 24.1645C122.798 24.3111 122.652 24.5275 122.542 24.8135C122.439 25.0995 122.373 25.4551 122.344 25.8805H124.874Z" fill="white"/>
<path d="M126.9 29.3455V28.8835H126.933C127.101 28.8835 127.252 28.8651 127.384 28.8285C127.523 28.7918 127.633 28.7185 127.714 28.6085C127.794 28.4911 127.835 28.3188 127.835 28.0915V24.6595C127.835 24.4395 127.791 24.2781 127.703 24.1755C127.622 24.0655 127.512 23.9958 127.373 23.9665C127.241 23.9298 127.094 23.9115 126.933 23.9115H126.9V23.4495H128.594L128.803 24.5385H128.858C128.953 24.3185 129.056 24.1168 129.166 23.9335C129.276 23.7501 129.422 23.6071 129.606 23.5045C129.789 23.3945 130.042 23.3395 130.365 23.3395C130.768 23.3395 131.065 23.4091 131.256 23.5485C131.454 23.6878 131.553 23.8858 131.553 24.1425C131.553 24.3698 131.472 24.5568 131.311 24.7035C131.157 24.8501 130.896 24.9235 130.53 24.9235C130.53 24.7181 130.511 24.5531 130.475 24.4285C130.438 24.3038 130.376 24.2121 130.288 24.1535C130.207 24.0948 130.093 24.0655 129.947 24.0655C129.741 24.0655 129.569 24.1461 129.43 24.3075C129.29 24.4688 129.18 24.6741 129.1 24.9235C129.019 25.1728 128.96 25.4331 128.924 25.7045C128.887 25.9685 128.869 26.2068 128.869 26.4195V28.1465C128.869 28.3591 128.909 28.5205 128.99 28.6305C129.078 28.7331 129.188 28.8028 129.32 28.8395C129.459 28.8688 129.609 28.8835 129.771 28.8835H130.079V29.3455H126.9Z" fill="white"/>
<path d="M14.1064 24.4645C13.0913 25.9511 12.147 27.6218 11.1221 29.6374C10.2538 27.7903 9.36195 26.2311 8.38379 24.8297C9.01583 24.8931 9.70686 24.9254 10.457 24.9254C11.7963 24.9254 13.0125 24.7714 14.1064 24.4645Z" fill="#A5B785"/>
<path d="M7.89453 0.229156C7.63383 0.317554 7.37874 0.415875 7.12988 0.525055C5.84585 1.09865 4.83009 1.90179 4.08301 2.93423C3.33598 3.96667 2.96289 5.18317 2.96289 6.58267C2.96293 7.43138 3.06727 8.21141 3.27734 8.92252C3.51082 9.61083 3.8848 10.2649 4.39844 10.8844C4.91206 11.4809 5.58927 12.0433 6.42969 12.571C7.27014 13.0986 8.29778 13.6029 9.51172 14.0846C10.8191 14.6123 11.9047 15.1175 12.7686 15.5993C13.6323 16.0581 14.2741 16.5746 14.6943 17.1481C15.1379 17.6987 15.3604 18.3641 15.3604 19.1442C15.3603 20.1995 14.9744 21.0824 14.2041 21.7936C13.457 22.5048 12.3949 22.8609 11.0176 22.861C10.0838 22.861 9.25497 22.6426 8.53125 22.2067C7.80749 21.7478 7.2347 21.0825 6.81445 20.2106C6.41765 19.3159 6.21973 18.2145 6.21973 16.9069C5.54266 16.9069 4.9 17.01 4.29297 17.2165C3.68614 17.4229 3.19575 17.767 2.82227 18.2487C2.72971 18.3624 2.64873 18.4864 2.5791 18.6198C1.78154 17.9322 0.926021 17.2261 0 16.4811V0.229156H7.89453Z" fill="#A5B785"/>
<path d="M22.2441 16.4811C21.4053 17.0948 20.6392 17.6822 19.9326 18.2565C19.9648 17.9737 19.9824 17.6842 19.9824 17.3883C19.9824 16.2644 19.7608 15.2781 19.3174 14.4294C18.8738 13.5575 18.1612 12.7768 17.1807 12.0885C16.2002 11.4003 14.9047 10.7348 13.2939 10.0924C11.7297 9.47295 10.527 8.89944 9.68652 8.37173C8.84605 7.82109 8.27421 7.27003 7.9707 6.71939C7.66731 6.16884 7.51564 5.57261 7.51562 4.93033C7.51562 4.24203 7.6672 3.6685 7.9707 3.20962C8.29756 2.72781 8.71781 2.37168 9.23145 2.14224C9.76836 1.88994 10.3522 1.76431 10.9824 1.76431C11.8928 1.76433 12.6164 2.02781 13.1533 2.55533C13.6903 3.08304 14.0761 3.71468 14.3096 4.44888C14.5663 5.18289 14.6943 5.87106 14.6943 6.51334C16.1418 6.51334 17.2156 6.23774 17.916 5.68716C18.6398 5.13652 19.0019 4.45991 19.002 3.65689C19.002 2.89975 18.7333 2.22315 18.1963 1.62662C17.689 1.03744 16.897 0.572142 15.8203 0.229156H22.2441V16.4811Z" fill="#A5B785"/>
</svg>
