<svg width="39" height="39" viewBox="0 0 39 39" fill="none" xmlns="http://www.w3.org/2000/svg">
<circle cx="19.5" cy="19.5" r="19.5" fill="#A5B785"/>
<path d="M14.416 31.848V30.28H15.536C15.92 30.28 16.2613 30.2373 16.56 30.152C16.8587 30.0453 17.0933 29.8427 17.264 29.544C17.456 29.2453 17.552 28.7867 17.552 28.168V10.824H14.8C14.16 10.824 13.6587 10.9307 13.296 11.144C12.9333 11.336 12.6667 11.6133 12.496 11.976C12.3253 12.3387 12.208 12.7547 12.144 13.224L11.952 14.984H10L10.16 9H29.36L29.52 14.984H27.568L27.344 13.224C27.3013 12.7547 27.184 12.3387 26.992 11.976C26.8213 11.6133 26.5547 11.336 26.192 11.144C25.8293 10.9307 25.328 10.824 24.688 10.824H21.936V28.136C21.936 28.7547 22.0213 29.224 22.192 29.544C22.3627 29.8427 22.608 30.0453 22.928 30.152C23.248 30.2373 23.5893 30.28 23.952 30.28H25.072V31.848H14.416Z" fill="black"/>
</svg>
