<svg width="23" height="30" viewBox="0 0 23 30" fill="none" xmlns="http://www.w3.org/2000/svg">
<path d="M14.1064 24.2354C13.0913 25.7219 12.147 27.3926 11.1221 29.4082C10.2538 27.5612 9.36195 26.0019 8.38379 24.6006C9.01583 24.6639 9.70686 24.6963 10.457 24.6963C11.7963 24.6963 13.0125 24.5422 14.1064 24.2354ZM7.89453 0C7.63383 0.0883977 7.37874 0.186719 7.12988 0.295898C5.84585 0.869491 4.83009 1.67264 4.08301 2.70508C3.33598 3.73751 2.96289 4.95401 2.96289 6.35352C2.96293 7.20223 3.06727 7.98225 3.27734 8.69336C3.51082 9.38167 3.8848 10.0358 4.39844 10.6553C4.91206 11.2517 5.58927 11.8141 6.42969 12.3418C7.27014 12.8694 8.29778 13.3737 9.51172 13.8555C10.8191 14.3832 11.9047 14.8883 12.7686 15.3701C13.6323 15.829 14.2741 16.3454 14.6943 16.9189C15.1379 17.4696 15.3604 18.135 15.3604 18.915C15.3603 19.9703 14.9744 20.8533 14.2041 21.5645C13.457 22.2757 12.3949 22.6318 11.0176 22.6318C10.0838 22.6318 9.25497 22.4134 8.53125 21.9775C7.80749 21.5187 7.2347 20.8533 6.81445 19.9814C6.41765 19.0867 6.21973 17.9854 6.21973 16.6777C5.54266 16.6777 4.9 16.7808 4.29297 16.9873C3.68614 17.1938 3.19575 17.5379 2.82227 18.0195C2.72971 18.1332 2.64873 18.2572 2.5791 18.3906C1.78154 17.703 0.926021 16.997 0 16.252V0H7.89453ZM22.2441 16.252C21.4053 16.8657 20.6392 17.4531 19.9326 18.0273C19.9648 17.7445 19.9824 17.455 19.9824 17.1592C19.9824 16.0352 19.7608 15.0489 19.3174 14.2002C18.8738 13.3283 18.1612 12.5477 17.1807 11.8594C16.2002 11.1712 14.9047 10.5056 13.2939 9.86328C11.7297 9.2438 10.527 8.67029 9.68652 8.14258C8.84605 7.59194 8.27421 7.04088 7.9707 6.49023C7.66731 5.93969 7.51564 5.34346 7.51562 4.70117C7.51562 4.01287 7.6672 3.43934 7.9707 2.98047C8.29756 2.49865 8.71781 2.14252 9.23145 1.91309C9.76836 1.66079 10.3522 1.53516 10.9824 1.53516C11.8928 1.53518 12.6164 1.79865 13.1533 2.32617C13.6903 2.85388 14.0761 3.48552 14.3096 4.21973C14.5663 4.95373 14.6943 5.64191 14.6943 6.28418C16.1418 6.28418 17.2156 6.00859 17.916 5.45801C18.6398 4.90736 19.0019 4.23076 19.002 3.42773C19.002 2.67059 18.7333 1.994 18.1963 1.39746C17.689 0.808286 16.897 0.342986 15.8203 0H22.2441V16.252Z" fill="#A5B785"/>
</svg>
