<svg width="15" height="15" viewBox="0 0 15 15" fill="none" xmlns="http://www.w3.org/2000/svg">
<path fill-rule="evenodd" clip-rule="evenodd" d="M8.2048 10.3674C7.90445 10.8892 7.75642 11.4092 7.74408 12.0099L7.72126 13.2064L8.74199 12.5902C9.26562 12.2738 9.63444 11.892 9.93973 11.3635L12.4957 6.91461L10.7712 5.92284L8.2042 10.3668L8.2048 10.3674ZM8.03827 3.4287C8.3923 3.4287 8.68032 3.71674 8.68032 4.07138C8.68032 4.42665 8.39168 4.71407 8.03827 4.71407H0.642663C0.28864 4.71407 0 4.42603 0 4.07138C0 3.71674 0.288025 3.4287 0.642663 3.4287H8.03891H8.03827ZM4.44815 10.2861C4.80402 10.2861 5.09081 10.5741 5.09081 10.9288C5.09081 11.2841 4.80402 11.5715 4.44815 11.5715H0.642663C0.28864 11.5715 0 11.2834 0 10.9288C0 10.5741 0.288025 10.2861 0.642663 10.2861H4.44815ZM5.95119 6.8574C6.30522 6.8574 6.59386 7.14544 6.59386 7.50009C6.59386 7.85474 6.30522 8.14277 5.95119 8.14277H0.642742C0.288719 8.14277 7.89397e-05 7.85535 7.89397e-05 7.50009C7.89397e-05 7.14482 0.288104 6.8574 0.642742 6.8574H5.95119ZM14.2831 0C14.6371 0 14.9258 0.288033 14.9258 0.642682C14.9258 0.997332 14.6371 1.28536 14.2831 1.28536L0.642742 1.28598C0.288719 1.28598 7.89397e-05 0.997948 7.89397e-05 0.643299C7.89397e-05 0.288034 0.288104 0.000616742 0.642742 0.000616742H14.2831V0ZM4.44823 13.714C4.8041 13.714 5.09089 14.0021 5.09089 14.3567C5.09089 14.712 4.8041 14.9994 4.44823 14.9994L0.642742 15C0.288719 15 7.89397e-05 14.712 7.89397e-05 14.3573C7.89397e-05 14.0027 0.288104 13.7146 0.642742 13.7146H4.44823V13.714ZM13.1341 5.8044L13.5708 5.04514C13.9174 4.44132 13.6349 3.67527 12.9682 3.52786C12.5346 3.43164 12.0801 3.6617 11.8513 4.05645L11.4121 4.81447L13.1347 5.80501L13.1341 5.8044ZM6.62918 10.8157C6.73279 10.4469 6.88698 10.0897 7.09606 9.72893L10.7418 3.41373C11.3764 2.31278 12.7684 1.88412 13.8866 2.52988C14.9758 3.15838 15.3181 4.57321 14.6798 5.68353L11.0496 12.0019C10.6345 12.7235 10.1127 13.2632 9.40465 13.6906L7.38901 14.9062C6.9616 15.1641 6.40775 14.8526 6.417 14.345L6.46449 11.9852C6.47189 11.572 6.52555 11.1877 6.62917 10.817L6.62918 10.8157Z" fill="white"/>
</svg>
