<svg width="10" height="16" viewBox="0 0 10 16" fill="none" xmlns="http://www.w3.org/2000/svg">
<path d="M4.63026 1.80785e-05C4.41037 1.80785e-05 4.21218 0.121622 4.12249 0.309794L0.417603 8.13594H0.418327C0.341655 8.29762 0.357569 8.48444 0.460279 8.63255C0.562991 8.78065 0.738034 8.86965 0.926093 8.86965H2.70474L0.0379242 15.2881V15.2888C-0.0597234 15.5239 0.0364777 15.7915 0.265776 15.9233C0.495072 16.0551 0.792363 16.0137 0.971015 15.8248L9.85992 6.43344C10.0053 6.2799 10.0408 6.06048 9.95106 5.87364C9.86137 5.68614 9.66318 5.56522 9.44473 5.56522H6.82494L9.38622 0.755449C9.47229 0.593762 9.46361 0.401498 9.36235 0.247289C9.26108 0.0937554 9.0817 0 8.88929 0L4.63026 1.80785e-05ZM4.9912 1.0435H7.99003L5.42875 5.85328C5.34268 6.01496 5.35136 6.20723 5.45262 6.36144C5.55389 6.51497 5.73327 6.60873 5.92568 6.60873H8.20771L2.20061 12.9552L4.0364 8.53744H4.03568C4.10295 8.37711 4.08053 8.19573 3.97709 8.05375C3.87366 7.91176 3.70222 7.82616 3.5185 7.82616H1.78108L4.9912 1.0435Z" fill="white"/>
</svg>
