<svg width="17" height="20" viewBox="0 0 17 20" fill="none" xmlns="http://www.w3.org/2000/svg">
<path d="M13.0203 5.69918C12.2601 5.12133 11.6039 4.62274 10.9624 3.72687C10.3566 2.87915 9.91614 1.88296 9.65184 0.765457L9.47169 0L8.85302 0.475531C7.61372 1.42356 6.59019 2.66152 5.89047 4.051C5.08669 5.64609 4.82341 7.18705 4.78084 8.409C4.52447 8.19331 4.2869 7.95456 4.06616 7.69974C3.64546 7.20916 3.301 6.65941 3.03967 6.06651L2.72291 5.3452L2.19829 5.93106C-0.10511 8.51237 -0.657583 12.2974 0.822376 15.3541C2.40121 18.6134 5.70548 20 8.5236 20C8.76413 20 8.99972 19.99 9.23037 19.9689C12.9732 19.6509 15.1595 16.8739 15.7426 16.0323C15.8545 15.8708 15.9634 15.7033 16.0623 15.5337C17.5778 13.0036 17.2284 9.75013 15.216 7.61851L14.8508 7.97264L15.1853 7.5844C14.3697 6.72667 13.65 6.1799 13.0165 5.69939L13.0203 5.69918ZM15.199 15.001C15.11 15.1495 15.0139 15.299 14.915 15.4424C14.3982 16.1928 12.4522 18.6627 9.14696 18.9457C7.29987 19.1022 5.10743 18.5605 3.45042 17.1329L6.53486 14.2799L8.10083 16.1318L11.9277 12.3406V13.6348H12.9414V10.604H9.95093V11.6313H11.1922L8.16631 14.6289L6.62312 12.8051L2.72601 16.4106C2.34591 15.9692 2.00936 15.4676 1.73515 14.9008C0.54435 12.4429 0.858141 9.44022 2.47755 7.20921C2.71611 7.62254 2.9893 8.01578 3.30111 8.37795C3.80002 8.95881 4.38303 9.4564 5.03435 9.85768L5.86286 10.3683L5.80248 9.38719C5.73121 8.20843 5.84306 6.40575 6.79334 4.52068C7.31006 3.49339 8.02473 2.5584 8.87899 1.78604C9.17793 2.72606 9.6016 3.58079 10.1381 4.3342C10.8706 5.35648 11.6179 5.92428 12.4088 6.52519C13.0423 7.00573 13.6957 7.50332 14.4559 8.30289L14.8211 7.94575L14.4846 8.33098C16.1802 10.1257 16.4742 12.8695 15.1963 15.0032L15.199 15.001Z" fill="white"/>
</svg>
