<svg width="13" height="16" viewBox="0 0 13 16" fill="none" xmlns="http://www.w3.org/2000/svg">
<path d="M9.95674 4.55934C9.3754 4.09706 8.87354 3.69819 8.38303 2.98149C7.91978 2.30332 7.58293 1.50637 7.38082 0.612365L7.24305 0L6.76996 0.380424C5.82226 1.13885 5.03956 2.12921 4.50448 3.2408C3.88983 4.51687 3.68849 5.74964 3.65593 6.7272C3.45989 6.55465 3.27822 6.36365 3.10941 6.15979C2.7877 5.76733 2.5243 5.32753 2.32445 4.85321L2.08223 4.27616L1.68104 4.74485C-0.0803786 6.8099 -0.502858 9.83793 0.628876 12.2833C1.83622 14.8907 4.36302 16 6.51804 16C6.70198 16 6.88214 15.992 7.05852 15.9751C9.92065 15.7207 11.5926 13.4992 12.0385 12.8259C12.124 12.6967 12.2073 12.5626 12.283 12.427C13.4419 10.4029 13.1747 7.8001 11.6358 6.09481L11.3565 6.37811L11.6123 6.06752C10.9886 5.38134 10.4383 4.94392 9.95382 4.55951L9.95674 4.55934ZM11.6228 12.0008C11.5547 12.1196 11.4812 12.2392 11.4056 12.3539C11.0104 12.9543 9.52224 14.9302 6.99473 15.1566C5.58225 15.2818 3.90568 14.8484 2.63856 13.7063L4.99725 11.4239L6.19475 12.9054L9.12121 9.87249V10.9078H9.89634V8.4832H7.60954V9.30503H8.55875L6.24482 11.7031L5.06474 10.2441L2.0846 13.1285C1.79393 12.7753 1.53657 12.3741 1.32688 11.9206C0.416268 9.95432 0.656226 7.55218 1.8946 5.76737C2.07702 6.09803 2.28593 6.41263 2.52438 6.70236C2.9059 7.16704 3.35173 7.56512 3.8498 7.88615L4.48336 8.29466L4.43719 7.50975C4.38269 6.56674 4.46822 5.1246 5.19491 3.61654C5.59004 2.79471 6.13656 2.04672 6.78981 1.42883C7.01842 2.18085 7.3424 2.86463 7.75267 3.46736C8.31281 4.28518 8.8843 4.73942 9.48911 5.22015C9.97356 5.60458 10.4731 6.00266 11.0545 6.64231L11.3338 6.3566L11.0764 6.66478C12.3731 8.10058 12.5979 10.2956 11.6207 12.0026L11.6228 12.0008Z" fill="white"/>
</svg>
