<svg width="13" height="16" viewBox="0 0 13 16" fill="none" xmlns="http://www.w3.org/2000/svg">
<path d="M12.4429 2.97632H10.0284V2.04631C10.0284 0.915363 9.11469 0 7.98581 0H5.01419C3.88531 0 2.97161 0.915363 2.97161 2.04631V2.97632H0.557133C0.252805 2.97632 0 3.22958 0 3.53446C0 3.83935 0.252805 4.09261 0.557133 4.09261H12.4429C12.7472 4.09261 13 3.83935 13 3.53446C13 3.22958 12.7472 2.97632 12.4429 2.97632ZM4.08588 2.04631C4.08588 1.53281 4.50163 1.1163 5.01419 1.1163H7.98581C8.49837 1.1163 8.91412 1.53281 8.91412 2.04631V2.97632H4.08588V2.04631ZM12.2576 5.76706V13.953C12.2576 15.0839 11.3439 15.9993 10.215 15.9993L2.78638 16C1.65749 16 0.743795 15.0846 0.743795 13.9537V5.76776C0.743795 5.46287 0.996599 5.20961 1.30093 5.20961C1.60526 5.20961 1.85806 5.46287 1.85806 5.76776V13.9537C1.85806 14.4672 2.27381 14.8837 2.78638 14.8837H10.215C10.7276 14.8837 11.1434 14.4672 11.1434 13.9537V5.76776C11.1434 5.46287 11.3962 5.20961 11.7005 5.20961C12.0048 5.20961 12.2576 5.46287 12.2576 5.76776V5.76706ZM5.01491 13.023C4.71058 13.023 4.45777 12.7697 4.45777 12.4648V6.51149C4.45777 6.20661 4.71058 5.95335 5.01491 5.95335C5.31924 5.95335 5.57204 6.20661 5.57204 6.51149V12.4648C5.57204 12.7697 5.31924 13.023 5.01491 13.023ZM7.98581 13.023C7.68148 13.023 7.42867 12.7697 7.42867 12.4648V6.51149C7.42867 6.20661 7.68148 5.95335 7.98581 5.95335C8.29013 5.95335 8.54294 6.20661 8.54294 6.51149V12.4648C8.54294 12.7697 8.29013 13.023 7.98581 13.023Z" fill="white"/>
</svg>
