<svg width="20" height="20" viewBox="0 0 20 20" xmlns="http://www.w3.org/2000/svg">
  <!-- Flame Icon -->
  <defs>
    <style>
      .flame-path { fill: #fb923c; }
    </style>
  </defs>
  <path class="flame-path" d="M 10 2 C 10 2 6 7 6 10 C 6 13.314 7.79 15 10 15 C 12.21 15 14 13.314 14 10 C 14 7 10 2 10 2 Z M 10 12 C 8.9 12 8 11.1 8 10 C 8 9.4 8.4 8.9 9 8.6 C 9 8.6 9 9 9 10 C 9 10.55 9.45 11 10 11 C 10.55 11 11 10.55 11 10 C 11 9 11 8.6 11 8.6 C 11.6 8.9 12 9.4 12 10 C 12 11.1 11.1 12 10 12 Z" />
</svg>