<svg width="1024" height="1024" viewBox="0 0 1024 1024" fill="none" xmlns="http://www.w3.org/2000/svg">
<rect width="1024" height="1024" fill="#2F3640"/>
<path d="M576.936 719.601C554.847 751.902 534.3 788.205 512 832C493.108 791.866 473.702 757.986 452.419 727.537C466.171 728.913 481.207 729.617 497.53 729.617C526.669 729.617 553.134 726.268 576.936 719.601Z" fill="#A7BA88"/>
<path d="M441.773 193C436.101 194.921 430.551 197.057 425.136 199.429C397.197 211.893 375.096 229.344 358.84 251.778C342.586 274.211 334.468 300.644 334.468 331.053C334.469 349.495 336.739 366.443 341.31 381.895C346.39 396.851 354.528 411.064 365.704 424.525C376.879 437.485 391.614 449.705 409.901 461.17C428.188 472.636 450.548 483.592 476.961 494.06C505.407 505.526 529.03 516.503 547.825 526.972C566.619 536.942 580.584 548.163 589.727 560.626C599.378 572.59 604.219 587.048 604.219 603.998C604.217 626.927 595.822 646.113 579.061 661.566C562.805 677.02 539.696 684.758 509.726 684.759C489.408 684.759 471.375 680.013 455.628 670.542C439.88 660.571 427.417 646.114 418.273 627.169C409.639 607.728 405.332 583.797 405.332 555.384C390.6 555.384 376.617 557.624 363.409 562.111C350.205 566.597 339.535 574.074 331.408 584.54C329.394 587.01 327.632 589.704 326.117 592.603C308.764 577.662 290.149 562.321 270 546.133V193H441.773Z" fill="#A7BA88"/>
<path d="M754 546.133C735.747 559.468 719.08 572.231 703.705 584.71C704.406 578.565 704.788 572.274 704.788 565.846C704.787 541.424 699.966 519.993 690.318 501.551C680.666 482.606 665.162 465.644 643.826 450.688C622.492 435.734 594.304 421.273 559.257 407.316C525.221 393.855 499.053 381.393 480.765 369.927C462.477 357.962 450.035 345.989 443.431 334.024C436.829 322.061 433.529 309.106 433.529 295.15C433.529 280.194 436.827 267.732 443.431 257.762C450.543 247.292 459.687 239.554 470.863 234.569C482.545 229.087 495.248 226.357 508.961 226.357C528.769 226.357 544.514 232.082 556.197 243.545C567.881 255.011 576.275 268.736 581.355 284.689C586.941 300.638 589.727 315.591 589.727 329.547C621.221 329.547 644.586 323.558 659.826 311.595C675.574 299.63 683.455 284.929 683.455 267.48C683.455 251.028 677.609 236.327 665.925 223.365C654.887 210.563 637.653 200.453 614.227 193H754V546.133Z" fill="#A7BA88"/>
</svg>
