<svg width="23" height="30" viewBox="0 0 23 30" fill="none" xmlns="http://www.w3.org/2000/svg">
<path d="M14.1065 24.2354C13.0913 25.7219 12.147 27.3926 11.1221 29.4082C10.2538 27.5612 9.36199 26.0019 8.38383 24.6006C9.01587 24.6639 9.70691 24.6963 10.4571 24.6963C11.7963 24.6963 13.0126 24.5422 14.1065 24.2354ZM7.89457 0C7.63386 0.0883977 7.37878 0.186719 7.12991 0.295898C5.84587 0.869491 4.83012 1.67264 4.08303 2.70508C3.33599 3.73751 2.9629 4.95401 2.9629 6.35352C2.96294 7.20223 3.06728 7.98225 3.27736 8.69336C3.51083 9.38167 3.88482 10.0358 4.39846 10.6553C4.91208 11.2517 5.58929 11.8141 6.42972 12.3418C7.27017 12.8694 8.29782 13.3737 9.51176 13.8555C10.8191 14.3832 11.9048 14.8883 12.7686 15.3701C13.6324 15.829 14.2742 16.3454 14.6944 16.9189C15.138 17.4696 15.3604 18.135 15.3604 18.915C15.3604 19.9703 14.9745 20.8533 14.2042 21.5645C13.4571 22.2757 12.395 22.6318 11.0176 22.6318C10.0838 22.6318 9.25501 22.4134 8.53129 21.9775C7.80752 21.5187 7.23473 20.8533 6.81448 19.9814C6.41768 19.0867 6.21975 17.9854 6.21975 16.6777C5.54268 16.6777 4.90002 16.7808 4.29299 16.9873C3.68616 17.1938 3.19576 17.5379 2.82228 18.0195C2.72972 18.1332 2.64874 18.2572 2.57911 18.3906C1.78155 17.703 0.926025 16.997 0 16.252V0H7.89457ZM22.2442 16.252C21.4054 16.8657 20.6393 17.4531 19.9327 18.0273C19.9649 17.7445 19.9825 17.455 19.9825 17.1592C19.9825 16.0352 19.7609 15.0489 19.3175 14.2002C18.8739 13.3283 18.1613 12.5477 17.1807 11.8594C16.2002 11.1712 14.9047 10.5056 13.294 9.86328C11.7297 9.2438 10.5271 8.67029 9.68657 8.14258C8.84609 7.59194 8.27425 7.04088 7.97074 6.49023C7.66734 5.93969 7.51567 5.34346 7.51566 4.70117C7.51566 4.01287 7.66724 3.43934 7.97074 2.98047C8.2976 2.49865 8.71784 2.14252 9.23148 1.91309C9.7684 1.66079 10.3522 1.53516 10.9825 1.53516C11.8928 1.53518 12.6164 1.79865 13.1534 2.32617C13.6904 2.85388 14.0762 3.48552 14.3096 4.21973C14.5663 4.95373 14.6944 5.64191 14.6944 6.28418C16.1418 6.28418 17.2157 6.00859 17.9161 5.45801C18.6399 4.90736 19.002 4.23076 19.002 3.42773C19.002 2.67059 18.7333 1.994 18.1964 1.39746C17.6891 0.808286 16.897 0.342986 15.8204 0H22.2442V16.252Z" fill="#A5B785"/>
</svg>
