<svg width="45" height="40" viewBox="0 0 45 40" fill="none" xmlns="http://www.w3.org/2000/svg">
<path d="M3.18162 23.2588V5.93403C3.18162 4.4167 4.41656 3.1818 5.93385 3.1818H31.9451C32.8639 3.1818 33.707 3.62526 34.2002 4.36701C34.2142 4.38689 34.2341 4.39684 34.248 4.41474C34.7471 5.09681 35.6917 5.28176 36.4056 4.80848C37.1374 4.32127 37.3343 3.33295 36.8471 2.60312C35.7613 0.974447 33.9278 0.00198862 31.9432 0.00198862L5.93392 0C2.66263 0 0 2.66278 0 5.93392V23.2587C0 25.2195 0.968436 27.049 2.58917 28.1527C2.86359 28.3396 3.17579 28.4291 3.48404 28.4291C3.99313 28.4291 4.49229 28.1865 4.80049 27.7331C5.18827 27.1623 5.14253 26.4365 4.75873 25.9095C4.65333 25.7663 4.536 25.6291 4.38089 25.5217C3.62917 25.0126 3.18162 24.1675 3.18162 23.2588Z" fill="#707070"/>
<path d="M37.5728 6.67435H13.6396C9.79762 6.67435 6.67127 9.80045 6.67127 13.6427V28.8817C6.67127 32.7258 9.79935 35.8537 13.6432 35.8537H23.7893C26.6569 35.8537 29.4748 36.8341 31.7239 38.6099L32.3225 39.0832C33.0881 39.6878 34.0069 40 34.9356 40C35.562 40 36.1924 39.8588 36.785 39.5724C38.2566 38.8605 39.1693 37.4029 39.1693 35.7682V35.6707C42.2458 34.9489 44.5448 32.1807 44.5448 28.8856V13.6446C44.5448 9.80057 41.4167 6.67435 37.5728 6.67435ZM35.9859 34.2623V35.7677C35.9859 36.3583 35.5743 36.6228 35.3973 36.7083C35.2203 36.7938 34.761 36.9549 34.2956 36.587L33.697 36.1137C30.8891 33.8944 27.3691 32.6714 23.7897 32.6714H13.6436C11.5535 32.6714 9.85326 30.9712 9.85326 28.8811V13.6421C9.85326 11.554 11.5515 9.85575 13.6396 9.85575H37.5728C39.6629 9.85575 41.3631 11.556 41.3631 13.6441V28.8851C41.3631 30.9732 39.6648 32.6715 37.5768 32.6715C36.6978 32.6715 35.9859 33.3833 35.9859 34.2623Z" fill="#707070"/>
</svg>
