<svg width="26" height="32" viewBox="0 0 26 32" fill="none" xmlns="http://www.w3.org/2000/svg">
<path d="M24.8857 5.95263H20.0568V4.09261C20.0568 1.83073 18.2294 0 15.9716 0H10.0284C7.77062 0 5.94322 1.83073 5.94322 4.09261V5.95263H1.11427C0.505609 5.95263 0 6.45916 0 7.06893C0 7.67869 0.505609 8.18522 1.11427 8.18522H24.8857C25.4944 8.18522 26 7.67869 26 7.06893C26 6.45916 25.4944 5.95263 24.8857 5.95263ZM8.17175 4.09261C8.17175 3.06562 9.00326 2.23259 10.0284 2.23259H15.9716C16.9967 2.23259 17.8282 3.06562 17.8282 4.09261V5.95263H8.17175V4.09261ZM24.5153 11.5341V27.906C24.5153 30.1679 22.6879 31.9986 20.4301 31.9986L5.57275 32C3.31498 32 1.48759 30.1693 1.48759 27.9074V11.5355C1.48759 10.9257 1.9932 10.4192 2.60185 10.4192C3.21051 10.4192 3.71612 10.9257 3.71612 11.5355V27.9074C3.71612 28.9344 4.54763 29.7674 5.57275 29.7674H20.4301C21.4552 29.7674 22.2867 28.9344 22.2867 27.9074V11.5355C22.2867 10.9257 22.7923 10.4192 23.401 10.4192C24.0097 10.4192 24.5153 10.9257 24.5153 11.5355V11.5341ZM10.0298 26.046C9.42116 26.046 8.91555 25.5394 8.91555 24.9297V13.023C8.91555 12.4132 9.42116 11.9067 10.0298 11.9067C10.6385 11.9067 11.1441 12.4132 11.1441 13.023V24.9297C11.1441 25.5394 10.6385 26.046 10.0298 26.046ZM15.9716 26.046C15.363 26.046 14.8573 25.5394 14.8573 24.9297V13.023C14.8573 12.4132 15.363 11.9067 15.9716 11.9067C16.5803 11.9067 17.0859 12.4132 17.0859 13.023V24.9297C17.0859 25.5394 16.5803 26.046 15.9716 26.046Z" fill="white"/>
</svg>
