<svg width="24" height="20" viewBox="0 0 24 20" fill="none" xmlns="http://www.w3.org/2000/svg">
<path d="M6.3237 0.000128174C4.70373 0.000128174 3.08067 0.599259 1.84826 1.79555C-0.617647 4.18809 -0.614526 8.0654 1.84826 10.46L11.4243 19.7736C11.5753 19.9178 11.7785 20 11.991 20C12.2046 20 12.4077 19.9178 12.5577 19.7736C15.7528 16.6726 18.9553 13.5689 22.1506 10.4679C24.6165 8.07538 24.6165 4.20397 22.1506 1.81145C19.6847 -0.581074 15.6656 -0.5811 13.1997 1.81145L12.0079 2.96564L10.7994 1.79542C9.56698 0.59913 7.94389 0 6.32397 0L6.3237 0.000128174ZM6.3237 1.52303C7.52696 1.52303 8.7271 1.97488 9.65742 2.87759L11.4326 4.60088C11.5837 4.74817 11.7889 4.83132 12.0035 4.83132C12.2191 4.83132 12.4244 4.74817 12.5744 4.60088L14.3329 2.89365C16.1936 1.0872 19.1481 1.0872 21.0086 2.89365C22.8693 4.70009 22.8693 7.57969 21.0086 9.38588C18.004 12.3014 15.0037 15.223 11.9993 18.1385L2.99004 9.37792C1.13045 7.56948 1.12941 4.68394 2.99004 2.87749C3.92036 1.97478 5.12045 1.52303 6.3237 1.52303Z" fill="#707070"/>
</svg>
