<svg width="34" height="16" viewBox="0 0 34 16" fill="none" xmlns="http://www.w3.org/2000/svg">
<path d="M0 16V13.9C0 12.9444 0.519444 12.1667 1.55833 11.5667C2.59722 10.9667 3.96667 10.6667 5.66667 10.6667C5.97361 10.6667 6.26875 10.6722 6.55208 10.6833C6.83542 10.6944 7.10694 10.7222 7.36667 10.7667C7.03611 11.2333 6.78819 11.7222 6.62292 12.2333C6.45764 12.7444 6.375 13.2778 6.375 13.8333V16H0ZM8.5 16V13.8333C8.5 13.1222 8.7066 12.4722 9.11979 11.8833C9.53299 11.2944 10.1174 10.7778 10.8729 10.3333C11.6285 9.88889 12.5316 9.55556 13.5823 9.33333C14.633 9.11111 15.7722 9 17 9C18.2514 9 19.4024 9.11111 20.4531 9.33333C21.5038 9.55556 22.4069 9.88889 23.1625 10.3333C23.9181 10.7778 24.4965 11.2944 24.8979 11.8833C25.2993 12.4722 25.5 13.1222 25.5 13.8333V16H8.5ZM27.625 16V13.8333C27.625 13.2556 27.5483 12.7111 27.3948 12.2C27.2413 11.6889 27.0111 11.2111 26.7042 10.7667C26.9639 10.7222 27.2295 10.6944 27.501 10.6833C27.7726 10.6722 28.05 10.6667 28.3333 10.6667C30.0333 10.6667 31.4028 10.9611 32.4417 11.55C33.4806 12.1389 34 12.9222 34 13.9V16H27.625ZM11.5104 13.3333H22.525C22.2889 12.8889 21.6337 12.5 20.5594 12.1667C19.4851 11.8333 18.2986 11.6667 17 11.6667C15.7014 11.6667 14.5149 11.8333 13.4406 12.1667C12.3663 12.5 11.7229 12.8889 11.5104 13.3333ZM5.66667 9.33333C4.8875 9.33333 4.22049 9.07222 3.66562 8.55C3.11076 8.02778 2.83333 7.4 2.83333 6.66667C2.83333 5.91111 3.11076 5.27778 3.66562 4.76667C4.22049 4.25556 4.8875 4 5.66667 4C6.46944 4 7.14236 4.25556 7.68542 4.76667C8.22847 5.27778 8.5 5.91111 8.5 6.66667C8.5 7.4 8.22847 8.02778 7.68542 8.55C7.14236 9.07222 6.46944 9.33333 5.66667 9.33333ZM28.3333 9.33333C27.5542 9.33333 26.8872 9.07222 26.3323 8.55C25.7774 8.02778 25.5 7.4 25.5 6.66667C25.5 5.91111 25.7774 5.27778 26.3323 4.76667C26.8872 4.25556 27.5542 4 28.3333 4C29.1361 4 29.809 4.25556 30.3521 4.76667C30.8951 5.27778 31.1667 5.91111 31.1667 6.66667C31.1667 7.4 30.8951 8.02778 30.3521 8.55C29.809 9.07222 29.1361 9.33333 28.3333 9.33333ZM17 8C15.8194 8 14.816 7.61111 13.9896 6.83333C13.1632 6.05556 12.75 5.11111 12.75 4C12.75 2.86667 13.1632 1.91667 13.9896 1.15C14.816 0.383333 15.8194 0 17 0C18.2042 0 19.2135 0.383333 20.0281 1.15C20.8427 1.91667 21.25 2.86667 21.25 4C21.25 5.11111 20.8427 6.05556 20.0281 6.83333C19.2135 7.61111 18.2042 8 17 8ZM17 5.33333C17.4014 5.33333 17.7378 5.20556 18.0094 4.95C18.2809 4.69444 18.4167 4.37778 18.4167 4C18.4167 3.62222 18.2809 3.30556 18.0094 3.05C17.7378 2.79444 17.4014 2.66667 17 2.66667C16.5986 2.66667 16.2622 2.79444 15.9906 3.05C15.7191 3.30556 15.5833 3.62222 15.5833 4C15.5833 4.37778 15.7191 4.69444 15.9906 4.95C16.2622 5.20556 16.5986 5.33333 17 5.33333Z" fill="#8C8B91"/>
</svg>
