<svg width="22" height="18" viewBox="0 0 22 18" fill="none" xmlns="http://www.w3.org/2000/svg">
<path d="M2.09524 16.9412C1.51905 16.9412 1.02579 16.7338 0.615476 16.3191C0.205159 15.9044 0 15.4059 0 14.8235V2.11765C0 1.53529 0.205159 1.03676 0.615476 0.622059C1.02579 0.207353 1.51905 0 2.09524 0L4.19048 4.23529H7.33333L5.2381 0H7.33333L9.42857 4.23529H12.5714L10.4762 0H12.5714L14.6667 4.23529H17.8095L15.7143 0H18.8571C19.4333 0 19.9266 0.207353 20.3369 0.622059C20.7472 1.03676 20.9524 1.53529 20.9524 2.11765V6.35294H2.09524V14.8235H10.4762V16.9412H2.09524ZM12.5714 18V14.7441L18.3595 8.92059C18.5167 8.76176 18.6913 8.64706 18.8833 8.57647C19.0754 8.50588 19.2675 8.47059 19.4595 8.47059C19.669 8.47059 19.8698 8.51029 20.0619 8.58971C20.254 8.66912 20.4286 8.78824 20.5857 8.94706L21.5548 9.92647C21.6944 10.0853 21.8036 10.2618 21.8821 10.4559C21.9607 10.65 22 10.8441 22 11.0382C22 11.2324 21.9651 11.4309 21.8952 11.6338C21.8254 11.8368 21.7119 12.0176 21.5548 12.1765L15.7929 18H12.5714ZM14.1429 16.4118H15.1381L18.3071 13.1824L17.8357 12.6794L17.3381 12.2029L14.1429 15.4059V16.4118ZM17.8357 12.6794L17.3381 12.2029L18.3071 13.1824L17.8357 12.6794Z" fill="#8C8B91"/>
</svg>
