<svg width="30" height="26" viewBox="0 0 30 26" fill="none" xmlns="http://www.w3.org/2000/svg">
<path d="M12.2774 0C16.2484 0 19.4742 3.23335 19.4745 7.19705C19.4745 9.85663 18.021 12.1799 15.873 13.4235H15.871C20.8901 14.9613 24.5529 19.6408 24.5529 25.1648C24.5529 25.5788 24.2135 25.9182 23.7995 25.9182C23.3855 25.9181 23.0461 25.5788 23.0461 25.1648C23.0461 19.2324 18.2294 14.4017 12.3053 14.3861H12.2475C6.32315 14.4017 1.50678 19.2335 1.50678 25.1648C1.50674 25.5787 1.16728 25.918 0.753388 25.9182C0.339359 25.9182 3.29533e-05 25.5788 0 25.1648C0 19.648 3.66267 14.9683 8.6819 13.4235C6.53389 12.18 5.08039 9.85806 5.08039 7.19705C5.08069 3.22622 8.30549 0.000158598 12.2774 0ZM21.6111 1.3553C24.5345 1.35561 26.9242 3.74312 26.9247 6.67486C26.9247 8.35635 26.1099 9.96206 24.7462 10.964L24.7303 10.972C27.8433 12.261 30 15.337 30 18.8487C30 19.2625 29.6604 19.6018 29.2466 19.602C28.8326 19.602 28.4932 19.2627 28.4932 18.8487C28.4932 15.3288 25.8702 12.3382 22.3884 11.8928C22.3659 11.8928 22.3431 11.8692 22.3206 11.8689C22.2683 11.8618 22.2135 11.8396 22.1612 11.817C22.1247 11.803 22.093 11.7877 22.0635 11.7652C22.0185 11.7343 21.9819 11.6975 21.9439 11.6596C21.9145 11.6372 21.8926 11.6053 21.8702 11.5759C21.8405 11.5306 21.8171 11.4847 21.7944 11.4324C21.7789 11.3943 21.7557 11.3569 21.7486 11.3188C21.7404 11.3119 21.7327 11.304 21.7327 11.2889C21.726 11.2513 21.7326 11.2149 21.7327 11.1773C21.7256 11.132 21.7267 11.0938 21.7267 11.0557C21.7273 11.049 21.7324 11.042 21.7327 11.0278C21.7397 10.9742 21.7639 10.9285 21.7865 10.8763C21.8006 10.8311 21.8157 10.7929 21.8383 10.7547C21.868 10.7097 21.9139 10.6651 21.9519 10.6272C21.9744 10.6046 21.9961 10.5739 22.0256 10.5514C22.0777 10.5134 22.1306 10.4922 22.1911 10.4697C22.2207 10.4612 22.2506 10.4369 22.2887 10.4298C22.3041 10.4298 22.3115 10.4163 22.3266 10.4159C22.8834 10.3113 23.3971 10.0914 23.8493 9.75219H23.8553C24.8346 9.0357 25.4159 7.88228 25.4159 6.67685C25.4157 4.5744 23.7135 2.86239 21.6111 2.86208C21.3245 2.86208 21.0302 2.89206 20.7521 2.95974C20.3452 3.0572 19.9378 2.80242 19.8472 2.39569C19.7568 1.98898 20.0047 1.58165 20.4112 1.49083C20.8027 1.40039 21.2041 1.3553 21.6111 1.3553ZM12.2774 1.50678C9.14209 1.50694 6.58746 4.06155 6.58716 7.19705H6.58916C6.58916 10.3257 9.12924 12.8718 12.2495 12.8873H12.3093C15.4365 12.8644 17.9677 10.3324 17.9677 7.19705C17.9674 4.06163 15.4129 1.50678 12.2774 1.50678Z" fill="white"/>
</svg>
