<svg width="18" height="18" viewBox="0 0 18 18" fill="none" xmlns="http://www.w3.org/2000/svg">
<path d="M9 18C7.77 18 6.6075 17.7638 5.5125 17.2912C4.4175 16.8187 3.46125 16.1737 2.64375 15.3562C1.82625 14.5387 1.18125 13.5825 0.70875 12.4875C0.23625 11.3925 0 10.23 0 9C0 7.755 0.23625 6.585 0.70875 5.49C1.18125 4.395 1.82625 3.4425 2.64375 2.6325C3.46125 1.8225 4.4175 1.18125 5.5125 0.70875C6.6075 0.23625 7.77 0 9 0C10.245 0 11.415 0.23625 12.51 0.70875C13.605 1.18125 14.5575 1.8225 15.3675 2.6325C16.1775 3.4425 16.8187 4.395 17.2912 5.49C17.7638 6.585 18 7.755 18 9C18 10.23 17.7638 11.3925 17.2912 12.4875C16.8187 13.5825 16.1775 14.5387 15.3675 15.3562C14.5575 16.1737 13.605 16.8187 12.51 17.2912C11.415 17.7638 10.245 18 9 18ZM9 1.8C7.335 1.8 5.865 2.29875 4.59 3.29625C3.315 4.29375 2.4675 5.565 2.0475 7.11C2.3475 7.035 2.65875 6.88875 2.98125 6.67125C3.30375 6.45375 3.675 5.925 4.095 5.085C4.32 4.62 4.65 4.25625 5.085 3.99375C5.52 3.73125 6 3.6 6.525 3.6H11.475C12 3.6 12.48 3.73125 12.915 3.99375C13.35 4.25625 13.68 4.62 13.905 5.085C14.325 5.94 14.7037 6.4725 15.0412 6.6825C15.3787 6.8925 15.6825 7.035 15.9525 7.11C15.5325 5.565 14.6888 4.29375 13.4213 3.29625C12.1538 2.29875 10.68 1.8 9 1.8ZM9 16.2C11.01 16.2 12.7162 15.495 14.1187 14.085C15.5212 12.675 16.215 10.965 16.2 8.955C15.135 8.85 14.3175 8.51625 13.7475 7.95375C13.1775 7.39125 12.69 6.705 12.285 5.895C12.21 5.73 12.1012 5.60625 11.9587 5.52375C11.8162 5.44125 11.6625 5.4 11.4975 5.4H6.525C6.345 5.4 6.18375 5.44125 6.04125 5.52375C5.89875 5.60625 5.79 5.73 5.715 5.895C5.31 6.72 4.815 7.41375 4.23 7.97625C3.645 8.53875 2.835 8.8725 1.8 8.9775C1.8 10.9875 2.50125 12.6938 3.90375 14.0962C5.30625 15.4987 7.005 16.2 9 16.2ZM6.3 11.025C5.985 11.025 5.71875 10.9162 5.50125 10.6987C5.28375 10.4812 5.175 10.215 5.175 9.9C5.175 9.585 5.28375 9.31875 5.50125 9.10125C5.71875 8.88375 5.985 8.775 6.3 8.775C6.615 8.775 6.88125 8.88375 7.09875 9.10125C7.31625 9.31875 7.425 9.585 7.425 9.9C7.425 10.215 7.31625 10.4812 7.09875 10.6987C6.88125 10.9162 6.615 11.025 6.3 11.025ZM11.7 11.025C11.385 11.025 11.1187 10.9162 10.9012 10.6987C10.6838 10.4812 10.575 10.215 10.575 9.9C10.575 9.585 10.6838 9.31875 10.9012 9.10125C11.1187 8.88375 11.385 8.775 11.7 8.775C12.015 8.775 12.2812 8.88375 12.4987 9.10125C12.7162 9.31875 12.825 9.585 12.825 9.9C12.825 10.215 12.7162 10.4812 12.4987 10.6987C12.2812 10.9162 12.015 11.025 11.7 11.025Z" fill="#8C8B91"/>
</svg>
