<svg width="24" height="22" viewBox="0 0 24 22" fill="none" xmlns="http://www.w3.org/2000/svg">
<path d="M1.71449 13.0901V3.33969C1.71449 2.48573 2.37997 1.79073 3.19759 1.79073H17.2144C17.7095 1.79073 18.1638 2.04031 18.4296 2.45777C18.4371 2.46896 18.4478 2.47456 18.4553 2.48463C18.7243 2.8685 19.2333 2.9726 19.618 2.70623C20.0124 2.43203 20.1184 1.87579 19.8559 1.46504C19.2708 0.548422 18.2828 0.0011192 17.2133 0.0011192L3.19763 0C1.43482 0 0 1.49862 0 3.33963V13.0901C0 14.1936 0.521864 15.2233 1.39523 15.8444C1.54311 15.9496 1.71135 16 1.87745 16C2.15179 16 2.42077 15.8635 2.58685 15.6083C2.79582 15.2871 2.77117 14.8785 2.56435 14.582C2.50755 14.5014 2.44433 14.4242 2.36074 14.3637C1.95566 14.0772 1.71449 13.6016 1.71449 13.0901Z" fill="#707070"/>
<path d="M20.3183 4H7.67982C5.65094 4 4 5.68848 4 7.7638V15.9948C4 18.071 5.65186 19.7605 7.6817 19.7605H13.0396C14.5539 19.7605 16.0419 20.29 17.2297 21.2492L17.5457 21.5048C17.95 21.8314 18.4352 22 18.9256 22C19.2564 22 19.5893 21.9237 19.9023 21.7691C20.6793 21.3845 21.1614 20.5972 21.1614 19.7143V19.6617C22.7859 19.2718 24 17.7766 24 15.9969V7.7648C24 5.68855 22.3481 4 20.3183 4ZM19.4803 18.9009V19.714C19.4803 20.033 19.2629 20.1759 19.1695 20.2221C19.076 20.2683 18.8334 20.3553 18.5877 20.1566L18.2716 19.9009C16.7888 18.7022 14.93 18.0416 13.0398 18.0416H7.68189C6.57818 18.0416 5.68033 17.1233 5.68033 15.9944V7.76345C5.68033 6.63563 6.57714 5.71835 7.67979 5.71835H20.3183C21.422 5.71835 22.3198 6.6367 22.3198 7.76452V15.9966C22.3198 17.1244 21.423 18.0417 20.3204 18.0417C19.8562 18.0417 19.4803 18.4262 19.4803 18.9009Z" fill="#707070"/>
</svg>
