<svg width="18" height="18" viewBox="0 0 18 18" fill="none" xmlns="http://www.w3.org/2000/svg">
<path d="M18 18L14.4 14.4H5.4C4.905 14.4 4.48125 14.2238 4.12875 13.8713C3.77625 13.5188 3.6 13.095 3.6 12.6V11.7H13.5C13.995 11.7 14.4188 11.5238 14.7713 11.1713C15.1238 10.8188 15.3 10.395 15.3 9.9V3.6H16.2C16.695 3.6 17.1188 3.77625 17.4713 4.12875C17.8238 4.48125 18 4.905 18 5.4V18ZM1.8 9.1575L2.8575 8.1H11.7V1.8H1.8V9.1575ZM0 13.5V1.8C0 1.305 0.17625 0.88125 0.52875 0.52875C0.88125 0.17625 1.305 0 1.8 0H11.7C12.195 0 12.6188 0.17625 12.9713 0.52875C13.3238 0.88125 13.5 1.305 13.5 1.8V8.1C13.5 8.595 13.3238 9.01875 12.9713 9.37125C12.6188 9.72375 12.195 9.9 11.7 9.9H3.6L0 13.5Z" fill="#8C8B91"/>
</svg>
