<svg width="18" height="18" viewBox="0 0 18 18" fill="none" xmlns="http://www.w3.org/2000/svg">
<path d="M16.7128 18L14.2227 15.507C13.5475 15.9577 12.8195 16.3028 12.0387 16.5423C11.2579 16.7817 10.4314 16.9014 9.5592 16.9014C8.39156 16.9014 7.29426 16.6796 6.26729 16.2359C5.24033 15.7923 4.34701 15.1901 3.58734 14.4296C2.82767 13.669 2.22626 12.7746 1.78312 11.7465C1.33998 10.7183 1.11841 9.61972 1.11841 8.4507C1.11841 7.57746 1.23798 6.75 1.47714 5.96831C1.7163 5.18662 2.06096 4.45775 2.51114 3.78169L0 1.26761L1.20281 0.0633803L17.9156 16.7958L16.7128 18ZM8.71512 15.169V13.5211C8.25088 13.5211 7.85346 13.3556 7.52286 13.0246C7.19226 12.6937 7.02696 12.2958 7.02696 11.831V10.9859L2.97538 6.92958C2.93318 7.1831 2.89449 7.43662 2.85932 7.69014C2.82415 7.94366 2.80657 8.19718 2.80657 8.4507C2.80657 10.1549 3.36577 11.6479 4.48417 12.9296C5.60258 14.2113 7.0129 14.9577 8.71512 15.169ZM16.6073 13.0775L15.3834 11.8521C15.6788 11.331 15.9074 10.7852 16.0692 10.2148C16.2309 9.64437 16.3118 9.05634 16.3118 8.4507C16.3118 7.07042 15.9285 5.80986 15.1618 4.66901C14.3951 3.52817 13.3716 2.70423 12.0914 2.19718V2.53521C12.0914 3 11.9261 3.39789 11.5955 3.72887C11.2649 4.05986 10.8675 4.22535 10.4033 4.22535H8.71512V5.17606L4.93787 1.39437C5.61313 0.957746 6.33763 0.616197 7.11137 0.369718C7.88511 0.123239 8.70105 0 9.5592 0C10.7268 0 11.8242 0.221831 12.8511 0.665493C13.8781 1.10915 14.7714 1.71127 15.5311 2.47183C16.2907 3.23239 16.8921 4.12676 17.3353 5.15493C17.7784 6.1831 18 7.28169 18 8.4507C18 9.30986 17.8769 10.1268 17.6307 10.9014C17.3845 11.6761 17.0434 12.4014 16.6073 13.0775Z" fill="#8C8B91"/>
</svg>
