<svg width="26" height="32" viewBox="0 0 26 32" fill="none" xmlns="http://www.w3.org/2000/svg">
<path d="M19.9135 9.11868C18.7508 8.19413 17.7471 7.39638 16.7661 5.96298C15.8396 4.60664 15.1659 3.01274 14.7616 1.22473L14.4861 0L13.5399 0.760849C11.6445 2.2777 10.0791 4.25843 9.00895 6.4816C7.77965 9.03375 7.37698 11.4993 7.31187 13.4544C6.91977 13.1093 6.55643 12.7273 6.21883 12.3196C5.5754 11.5347 5.04859 10.6551 4.6489 9.70641L4.16445 8.55232L3.36209 9.4897C-0.160757 13.6198 -1.00572 19.6759 1.25775 24.5666C3.67244 29.7815 8.72603 32 13.0361 32C13.404 32 13.7643 31.9839 14.117 31.9502C19.8413 31.4414 23.1852 26.9983 24.0769 25.6517C24.248 25.3933 24.4145 25.1253 24.5659 24.854C26.8837 20.8058 26.3493 15.6002 23.2716 12.1896L22.7129 12.7562L23.2246 12.135C21.9771 10.7627 20.8765 9.88784 19.9076 9.11902L19.9135 9.11868ZM23.2456 24.0016C23.1093 24.2392 22.9625 24.4783 22.8111 24.7079C22.0208 25.9085 19.0445 29.8603 13.9895 30.3132C11.1645 30.5636 7.81137 29.6968 5.27711 27.4127L9.99449 22.8478L12.3895 25.8109L18.2424 19.745V21.8156H19.7927V16.9664H15.2191V18.6101H17.1175L12.4896 23.4063L10.1295 20.4881L4.16919 26.2569C3.58785 25.5507 3.07314 24.7481 2.65376 23.8412C0.832535 19.9086 1.31245 15.1044 3.78919 11.5347C4.15405 12.1961 4.57187 12.8253 5.04876 13.4047C5.81179 14.3341 6.70345 15.1302 7.6996 15.7723L8.96672 16.5893L8.87438 15.0195C8.76537 13.1335 8.93645 10.2492 10.3898 7.23308C11.1801 5.58942 12.2731 4.09345 13.5796 2.85766C14.0368 4.36169 14.6848 5.72926 15.5053 6.93471C16.6256 8.57036 17.7686 9.47885 18.9782 10.4403C19.9471 11.2092 20.9463 12.0053 22.109 13.2846L22.6676 12.7132L22.1529 13.3296C24.7462 16.2012 25.1958 20.5912 23.2414 24.0051L23.2456 24.0016Z" fill="white"/>
</svg>
