<svg width="30" height="30" viewBox="0 0 30 30" fill="none" xmlns="http://www.w3.org/2000/svg">
<path fill-rule="evenodd" clip-rule="evenodd" d="M16.4096 20.7348C15.8089 21.7784 15.5128 22.8183 15.4882 24.0197L15.4425 26.4128L17.484 25.1805C18.5312 24.5477 19.2689 23.7841 19.8795 22.727L24.9913 13.8292L21.5424 11.8457L16.4084 20.7336L16.4096 20.7348ZM16.0765 6.8574C16.7846 6.8574 17.3606 7.43347 17.3606 8.14277C17.3606 8.8533 16.7834 9.42813 16.0765 9.42813H1.28533C0.577281 9.42813 0 8.85207 0 8.14277C0 7.43347 0.576049 6.8574 1.28533 6.8574H16.0778H16.0765ZM8.8963 20.5722C9.60804 20.5722 10.1816 21.1483 10.1816 21.8576C10.1816 22.5681 9.60804 23.1429 8.8963 23.1429H1.28533C0.577281 23.1429 0 22.5669 0 21.8576C0 21.1483 0.576049 20.5722 1.28533 20.5722H8.8963ZM11.9024 13.7148C12.6104 13.7148 13.1877 14.2909 13.1877 15.0002C13.1877 15.7095 12.6104 16.2855 11.9024 16.2855H1.28548C0.577439 16.2855 0.000157879 15.7107 0.000157879 15.0002C0.000157879 14.2896 0.576207 13.7148 1.28548 13.7148H11.9024ZM28.5662 0C29.2742 0 29.8515 0.576066 29.8515 1.28536C29.8515 1.99466 29.2742 2.57073 28.5662 2.57073L1.28548 2.57196C0.577439 2.57196 0.000157879 1.9959 0.000157879 1.2866C0.000157879 0.576068 0.576207 0.00123348 1.28548 0.00123348H28.5662V0ZM8.89646 27.428C9.6082 27.428 10.1818 28.0041 10.1818 28.7134C10.1818 29.4239 9.6082 29.9988 8.89646 29.9988L1.28548 30C0.577439 30 0.000157879 29.4239 0.000157879 28.7146C0.000157879 28.0053 0.576207 27.4293 1.28548 27.4293H8.89646V27.428ZM26.2683 11.6088L27.1416 10.0903C27.8348 8.88264 27.2699 7.35054 25.9364 7.05572C25.0693 6.86328 24.1602 7.3234 23.7025 8.1129L22.8243 9.62895L26.2695 11.61L26.2683 11.6088ZM13.2584 21.6314C13.4656 20.8937 13.774 20.1795 14.1921 19.4579L21.4835 6.82747C22.7528 4.62555 25.5369 3.76824 27.7733 5.05976C29.9517 6.31677 30.6363 9.14642 29.3596 11.3671L22.0991 24.0038C21.269 25.447 20.2254 26.5264 18.8093 27.3811L14.778 29.8125C13.9232 30.3281 12.8155 29.7052 12.834 28.6899L12.929 23.9704C12.9438 23.144 13.0511 22.3754 13.2583 21.6341L13.2584 21.6314Z" fill="white"/>
</svg>
