<svg width="265" height="60" viewBox="0 0 265 60" fill="none" xmlns="http://www.w3.org/2000/svg">
<path d="M74.332 26.4431C72.5307 26.4431 71.0536 26.287 69.9008 25.9748C68.7479 25.6385 67.8353 25.2182 67.1628 24.7139C66.5143 24.2095 66.058 23.6691 65.7938 23.0927C65.5296 22.4923 65.3975 21.9399 65.3975 21.4355C65.3975 20.4748 65.6137 19.7303 66.046 19.2019C66.4783 18.6495 67.0307 18.2652 67.7032 18.049C68.3757 17.8089 69.0962 17.6888 69.8647 17.6888C69.8647 19.2019 70.1049 20.4388 70.5852 21.3995C71.0656 22.3361 71.7021 23.0326 72.4946 23.489C73.2872 23.9213 74.1278 24.1374 75.0165 24.1374C76.3614 24.1374 77.3942 23.7652 78.1147 23.0206C78.8592 22.2761 79.2315 21.4355 79.2315 20.4988C79.2315 19.7062 78.9793 19.0217 78.475 18.4453C77.9946 17.8689 77.2981 17.3405 76.3854 16.8602C75.4728 16.3798 74.356 15.8755 73.035 15.3471C71.7141 14.7947 70.6093 14.2303 69.7206 13.6539C68.832 13.0774 68.1235 12.465 67.5951 11.8165C67.0667 11.1441 66.6944 10.4475 66.4783 9.72703C66.2621 8.98249 66.154 8.18992 66.154 7.34931C66.154 5.83622 66.5623 4.53928 67.3789 3.4585C68.1955 2.3537 69.3003 1.50108 70.6933 0.90065C72.1104 0.300217 73.6955 0 75.4488 0C77.3221 0 78.8472 0.216156 80.0241 0.648469C81.2249 1.05676 82.1016 1.59715 82.654 2.26964C83.2064 2.91811 83.4826 3.61461 83.4826 4.35915C83.4826 5.24779 83.0983 5.99233 82.3297 6.59276C81.5852 7.1932 80.3483 7.49341 78.6191 7.49341C78.6191 6.72486 78.475 5.9563 78.1867 5.18775C77.9225 4.39518 77.5022 3.72269 76.9258 3.17029C76.3494 2.61789 75.6169 2.34169 74.7282 2.34169C74.1038 2.34169 73.5394 2.46178 73.035 2.70195C72.5307 2.91811 72.1224 3.24234 71.8101 3.67465C71.5219 4.10697 71.3778 4.67137 71.3778 5.36788C71.3778 5.92028 71.5339 6.47268 71.8462 7.02508C72.1584 7.55346 72.7588 8.10586 73.6475 8.68227C74.5361 9.25869 75.833 9.89515 77.5383 10.5917C79.2915 11.2882 80.6725 12.0327 81.6813 12.8253C82.714 13.5938 83.4345 14.4464 83.8428 15.3831C84.2751 16.2958 84.4913 17.3285 84.4913 18.4814C84.4913 20.0425 84.071 21.4235 83.2304 22.6243C82.4138 23.8012 81.2369 24.7379 79.6998 25.4344C78.1867 26.1069 76.3975 26.4431 74.332 26.4431Z" fill="white"/>
<path d="M95.0723 26.4431C93.319 26.4431 91.926 26.0228 90.8932 25.1822C89.8605 24.3176 89.3441 22.8285 89.3441 20.715V9.36677H86.6782V7.38534C87.5909 7.38534 88.3594 7.20521 88.9839 6.84495C89.6323 6.48469 90.1367 6.11242 90.497 5.72814C90.8332 5.36788 91.1454 4.89954 91.4336 4.32312C91.7458 3.74671 91.986 3.06221 92.1541 2.26964H95.6847V6.77289H100.224V9.36677H95.6847V20.1386C95.6847 21.1713 95.8408 21.9278 96.153 22.4082C96.4653 22.8645 97.0537 23.0927 97.9183 23.0927C98.3987 23.0927 98.855 23.0687 99.2873 23.0206C99.7436 22.9486 100.164 22.8645 100.548 22.7685V25.3984C100.14 25.5905 99.4674 25.8187 98.5308 26.0828C97.5941 26.323 96.4412 26.4431 95.0723 26.4431Z" fill="white"/>
<path d="M112.465 26.4431C109.463 26.4431 107.097 25.6145 105.368 23.9573C103.663 22.2761 102.81 19.7303 102.81 16.3198C102.81 12.9333 103.627 10.4115 105.26 8.75433C106.917 7.09713 109.355 6.26853 112.573 6.26853C115.575 6.26853 117.941 7.09713 119.67 8.75433C121.399 10.4115 122.264 12.9333 122.264 16.3198C122.264 19.7303 121.435 22.2761 119.778 23.9573C118.121 25.6145 115.683 26.4431 112.465 26.4431ZM112.537 24.0294C113.354 24.0294 114.002 23.7412 114.482 23.1647C114.963 22.5643 115.311 21.6997 115.527 20.5709C115.743 19.418 115.851 18.001 115.851 16.3198C115.851 14.6386 115.731 13.2336 115.491 12.1047C115.275 10.9759 114.927 10.1353 114.446 9.58292C113.966 9.00651 113.318 8.7183 112.501 8.7183C111.708 8.7183 111.072 9.00651 110.592 9.58292C110.111 10.1353 109.763 10.9759 109.547 12.1047C109.331 13.2336 109.223 14.6386 109.223 16.3198C109.223 18.001 109.331 19.418 109.547 20.5709C109.763 21.6997 110.111 22.5643 110.592 23.1647C111.096 23.7412 111.744 24.0294 112.537 24.0294Z" fill="white"/>
<path d="M124.387 26.0828V24.0294H124.531C125.084 24.0294 125.552 23.9693 125.936 23.8492C126.32 23.7291 126.621 23.489 126.837 23.1287C127.053 22.7444 127.161 22.18 127.161 21.4355V11.2761C127.161 10.5556 127.065 10.0272 126.873 9.691C126.705 9.33074 126.441 9.10258 126.08 9.00651C125.72 8.88642 125.276 8.82638 124.747 8.82638H124.639V6.77289H132.529L133.249 9.87113H133.43C133.79 9.03052 134.21 8.34603 134.69 7.81765C135.171 7.28927 135.747 6.90499 136.42 6.66482C137.092 6.42464 137.909 6.30456 138.869 6.30456C140.262 6.30456 141.283 6.61678 141.932 7.24123C142.58 7.84167 142.904 8.62223 142.904 9.58292C142.904 10.8318 142.448 11.7565 141.535 12.3569C140.647 12.9333 139.434 13.2216 137.897 13.2216C137.897 12.5491 137.849 11.9967 137.753 11.5644C137.657 11.108 137.488 10.7598 137.248 10.5196C137.032 10.2794 136.696 10.1593 136.24 10.1593C135.711 10.1593 135.267 10.3395 134.907 10.6997C134.57 11.06 134.294 11.5403 134.078 12.1408C133.886 12.7172 133.742 13.3416 133.646 14.0141C133.55 14.6626 133.502 15.263 133.502 15.8154V21.6156C133.502 22.3121 133.598 22.8405 133.79 23.2008C133.982 23.537 134.258 23.7652 134.618 23.8853C134.979 23.9813 135.387 24.0294 135.843 24.0294H137.068V26.0828H124.387Z" fill="white"/>
<path d="M144.271 32.0992C145.52 32.0992 146.589 31.9551 147.478 31.6669C148.366 31.4027 149.099 31.0184 149.675 30.514C150.276 30.0097 150.768 29.4092 151.152 28.7127C151.537 28.0162 151.873 27.2477 152.161 26.4071L145.748 10.4836C145.58 10.0272 145.388 9.70301 145.172 9.51087C144.956 9.29472 144.716 9.15061 144.452 9.07856C144.187 8.98249 143.887 8.93446 143.551 8.93446H143.371V6.77289H154.395V8.82638H154.251C153.53 8.82638 152.99 8.92245 152.629 9.11459C152.293 9.30672 152.125 9.63096 152.125 10.0873C152.125 10.3034 152.161 10.5556 152.233 10.8438C152.329 11.108 152.413 11.3482 152.485 11.5644L154.647 17.6528C154.791 18.037 154.911 18.4093 155.007 18.7696C155.127 19.1298 155.223 19.4661 155.295 19.7783C155.367 20.0665 155.427 20.3427 155.476 20.6069C155.524 20.8711 155.56 21.1233 155.584 21.3634C155.632 20.8351 155.728 20.3307 155.872 19.8503C156.016 19.346 156.124 18.9857 156.196 18.7696L158.466 11.9967C158.538 11.7805 158.622 11.4803 158.718 11.096C158.814 10.6877 158.862 10.3755 158.862 10.1593C158.862 9.65498 158.67 9.31873 158.286 9.15061C157.925 8.95847 157.373 8.85039 156.628 8.82638H156.484V6.77289H164.482V8.82638H164.338C163.906 8.85039 163.521 8.94646 163.185 9.11459C162.873 9.28271 162.585 9.55891 162.32 9.94318C162.08 10.3034 161.84 10.7838 161.6 11.3842L156.16 26.0108C155.56 27.692 154.983 29.061 154.431 30.1178C153.878 31.1985 153.218 32.0512 152.449 32.6756C151.681 33.3001 150.708 33.7324 149.531 33.9725C148.354 34.2367 146.841 34.3688 144.992 34.3688H144.271V32.0992Z" fill="white"/>
<path d="M167.4 10.4836C167.231 10.0513 167.039 9.71502 166.823 9.47485C166.607 9.23467 166.319 9.06655 165.959 8.97048C165.598 8.87441 165.154 8.82638 164.626 8.82638V6.77289H176.442V8.82638H175.073C174.617 8.82638 174.281 8.92245 174.064 9.11459C173.848 9.28271 173.74 9.5469 173.74 9.90716C173.74 10.1954 173.776 10.4716 173.848 10.7358C173.92 10.9999 173.992 11.2401 174.064 11.4563L176.442 18.2652C176.61 18.7215 176.766 19.1779 176.91 19.6342C177.055 20.0665 177.175 20.4988 177.271 20.9311C177.391 21.3394 177.475 21.7357 177.523 22.12C177.595 21.7837 177.679 21.4355 177.775 21.0752C177.871 20.691 177.967 20.3307 178.063 19.9944C178.159 19.6582 178.243 19.358 178.315 19.0938L180.693 11.7445C180.813 11.4082 180.909 11.096 180.981 10.8078C181.053 10.4956 181.089 10.1713 181.089 9.83511C181.089 9.52288 180.969 9.28271 180.729 9.11459C180.489 8.92245 180.117 8.82638 179.612 8.82638H178.748V6.77289H186.746V8.82638H185.917C185.605 8.82638 185.329 8.89843 185.088 9.04253C184.848 9.16262 184.62 9.4148 184.404 9.79908C184.212 10.1593 183.984 10.6877 183.719 11.3842L178.712 26.0828H173.164L167.4 10.4836Z" fill="white"/>
<path d="M198.028 26.4431C194.762 26.4431 192.324 25.5785 190.715 23.8492C189.106 22.096 188.301 19.6462 188.301 16.4999C188.301 13.1135 189.106 10.5676 190.715 8.8624C192.348 7.13316 194.642 6.26853 197.596 6.26853C200.334 6.26853 202.484 7.00106 204.045 8.46612C205.63 9.93118 206.423 12.0927 206.423 14.9508V16.8962H194.678C194.726 18.4333 194.93 19.6942 195.29 20.6789C195.675 21.6637 196.215 22.3962 196.912 22.8765C197.608 23.3329 198.461 23.561 199.469 23.561C200.31 23.561 201.031 23.4289 201.631 23.1647C202.256 22.8765 202.784 22.5043 203.216 22.0479C203.673 21.5676 204.033 21.0272 204.297 20.4268C204.705 20.5709 205.017 20.799 205.234 21.1113C205.474 21.3995 205.594 21.7717 205.594 22.2281C205.594 22.9246 205.33 23.597 204.801 24.2455C204.297 24.894 203.492 25.4224 202.388 25.8307C201.283 26.239 199.83 26.4431 198.028 26.4431ZM200.154 14.4464C200.154 13.2216 200.07 12.1888 199.902 11.3482C199.734 10.5076 199.469 9.87113 199.109 9.43882C198.773 8.98249 198.317 8.75433 197.74 8.75433C197.164 8.75433 196.647 8.97048 196.191 9.40279C195.735 9.83511 195.387 10.4716 195.146 11.3122C194.906 12.1528 194.774 13.1975 194.75 14.4464H200.154Z" fill="white"/>
<path d="M208.366 26.0828V24.0294H208.51C209.062 24.0294 209.531 23.9693 209.915 23.8492C210.299 23.7291 210.599 23.489 210.815 23.1287C211.032 22.7444 211.14 22.18 211.14 21.4355V11.2761C211.14 10.5556 211.044 10.0272 210.851 9.691C210.683 9.33074 210.419 9.10258 210.059 9.00651C209.699 8.88642 209.254 8.82638 208.726 8.82638H208.618V6.77289H216.508L217.228 9.87113H217.408C217.768 9.03052 218.189 8.34603 218.669 7.81765C219.149 7.28927 219.726 6.90499 220.398 6.66482C221.071 6.42464 221.887 6.30456 222.848 6.30456C224.241 6.30456 225.262 6.61678 225.91 7.24123C226.559 7.84167 226.883 8.62223 226.883 9.58292C226.883 10.8318 226.427 11.7565 225.514 12.3569C224.625 12.9333 223.413 13.2216 221.875 13.2216C221.875 12.5491 221.827 11.9967 221.731 11.5644C221.635 11.108 221.467 10.7598 221.227 10.5196C221.011 10.2794 220.675 10.1593 220.218 10.1593C219.69 10.1593 219.246 10.3395 218.885 10.6997C218.549 11.06 218.273 11.5403 218.057 12.1408C217.865 12.7172 217.72 13.3416 217.624 14.0141C217.528 14.6626 217.48 15.263 217.48 15.8154V21.6156C217.48 22.3121 217.576 22.8405 217.768 23.2008C217.961 23.537 218.237 23.7652 218.597 23.8853C218.957 23.9813 219.366 24.0294 219.822 24.0294H221.047V26.0828H208.366Z" fill="white"/>
<path d="M235.996 26.4431C234.098 26.4431 232.597 26.251 231.492 25.8667C230.388 25.4824 229.595 24.966 229.115 24.3176C228.634 23.6691 228.394 22.9606 228.394 22.192C228.394 21.4475 228.574 20.8711 228.935 20.4628C229.295 20.0545 229.751 19.7783 230.304 19.6342C230.856 19.4661 231.42 19.382 231.997 19.382C231.997 20.4388 232.165 21.3154 232.501 22.0119C232.837 22.7084 233.306 23.2248 233.906 23.561C234.531 23.8973 235.239 24.0654 236.032 24.0654C237.233 24.0654 238.085 23.8492 238.59 23.4169C239.118 22.9846 239.382 22.4682 239.382 21.8678C239.382 21.3875 239.226 20.9672 238.914 20.6069C238.626 20.2466 238.157 19.9104 237.509 19.5982C236.884 19.2859 236.044 18.9737 234.987 18.6615C233.594 18.2292 232.429 17.7488 231.492 17.2204C230.58 16.668 229.883 15.9956 229.403 15.203C228.923 14.4104 228.682 13.4377 228.682 12.2849C228.682 10.2434 229.427 8.74232 230.916 7.78162C232.405 6.79691 234.374 6.30456 236.824 6.30456C238.409 6.30456 239.682 6.47268 240.643 6.80892C241.628 7.14516 242.336 7.57747 242.769 8.10586C243.201 8.63424 243.417 9.17463 243.417 9.72703C243.417 10.5676 243.117 11.2041 242.516 11.6364C241.916 12.0687 240.943 12.2849 239.598 12.2849C239.598 11.084 239.286 10.1713 238.662 9.5469C238.061 8.89843 237.257 8.57419 236.248 8.57419C235.743 8.57419 235.287 8.65826 234.879 8.82638C234.471 8.97048 234.134 9.18664 233.87 9.47485C233.63 9.76305 233.51 10.1233 233.51 10.5556C233.51 11.036 233.642 11.4563 233.906 11.8165C234.17 12.1528 234.639 12.477 235.311 12.7892C235.984 13.1015 236.92 13.4497 238.121 13.834C239.298 14.2183 240.343 14.6626 241.255 15.167C242.168 15.6713 242.877 16.3078 243.381 17.0763C243.885 17.8449 244.138 18.8056 244.138 19.9584C244.138 21.9278 243.441 23.501 242.048 24.6778C240.679 25.8547 238.662 26.4431 235.996 26.4431Z" fill="white"/>
<path d="M256.606 26.4431C253.34 26.4431 250.902 25.5785 249.293 23.8492C247.683 22.096 246.879 19.6462 246.879 16.4999C246.879 13.1135 247.683 10.5676 249.293 8.8624C250.926 7.13316 253.219 6.26853 256.174 6.26853C258.912 6.26853 261.061 7.00106 262.622 8.46612C264.207 9.93118 265 12.0927 265 14.9508V16.8962H253.256C253.304 18.4333 253.508 19.6942 253.868 20.6789C254.252 21.6637 254.793 22.3962 255.489 22.8765C256.186 23.3329 257.038 23.561 258.047 23.561C258.888 23.561 259.608 23.4289 260.209 23.1647C260.833 22.8765 261.361 22.5043 261.794 22.0479C262.25 21.5676 262.61 21.0272 262.874 20.4268C263.283 20.5709 263.595 20.799 263.811 21.1113C264.051 21.3995 264.171 21.7717 264.171 22.2281C264.171 22.9246 263.907 23.597 263.379 24.2455C262.874 24.894 262.07 25.4224 260.965 25.8307C259.86 26.239 258.407 26.4431 256.606 26.4431ZM258.731 14.4464C258.731 13.2216 258.647 12.1888 258.479 11.3482C258.311 10.5076 258.047 9.87113 257.687 9.43882C257.35 8.98249 256.894 8.75433 256.318 8.75433C255.741 8.75433 255.225 8.97048 254.769 9.40279C254.312 9.83511 253.964 10.4716 253.724 11.3122C253.484 12.1528 253.352 13.1975 253.328 14.4464H258.731Z" fill="white"/>
<path d="M70.0728 58.7334V57.8087H70.5792C70.9021 57.8087 71.1956 57.7794 71.4598 57.7207C71.7387 57.6473 71.9589 57.5078 72.1203 57.3024C72.2964 57.0822 72.3845 56.7593 72.3845 56.3337V52.1726L68.3115 45.1055C68.1501 44.8267 67.996 44.6065 67.8492 44.4451C67.7171 44.2689 67.563 44.1442 67.3869 44.0708C67.2108 43.9827 66.9979 43.9387 66.7484 43.9387H66.4622V43.014H72.5166V43.9387H71.702C71.3057 43.9387 71.0415 44.0121 70.9094 44.1589C70.792 44.291 70.7333 44.4524 70.7333 44.6432C70.7333 44.8487 70.7773 45.0542 70.8654 45.2597C70.9535 45.4651 71.0415 45.6486 71.1296 45.81L72.7588 48.7602C72.8909 48.9803 73.0083 49.2078 73.111 49.4427C73.2138 49.6628 73.3092 49.883 73.3972 50.1032C73.5 50.3086 73.588 50.5141 73.6614 50.7196C73.7348 50.9104 73.8008 51.0939 73.8596 51.27C73.9916 50.9618 74.1825 50.5802 74.432 50.1252C74.6815 49.6702 74.931 49.2152 75.1805 48.7602L76.5895 46.2284C76.7363 45.9788 76.839 45.744 76.8978 45.5238C76.9565 45.289 76.9858 45.0835 76.9858 44.9074C76.9858 44.5845 76.8684 44.3423 76.6336 44.1809C76.4134 44.0194 76.0905 43.9387 75.6649 43.9387H75.0264V43.014H80.3983V43.9387H80.1341C79.9286 43.9387 79.7305 43.9901 79.5397 44.0928C79.3635 44.1955 79.1727 44.3717 78.9672 44.6212C78.7764 44.8707 78.5563 45.2156 78.3068 45.6559L74.6081 52.1726V56.2236C74.6081 56.6786 74.6888 57.0235 74.8503 57.2583C75.0117 57.4785 75.2319 57.6253 75.5107 57.6986C75.7896 57.772 76.0905 57.8087 76.4134 57.8087H76.9198V58.7334H70.0728Z" fill="white"/>
<path d="M85.1028 58.9535C83.5177 58.9535 82.2701 58.4472 81.3601 57.4344C80.4501 56.4217 79.9951 54.8806 79.9951 52.8111C79.9951 50.7563 80.4281 49.2299 81.2941 48.2318C82.1747 47.2191 83.4663 46.7127 85.1689 46.7127C86.754 46.7127 88.0016 47.2191 88.9116 48.2318C89.8216 49.2299 90.2765 50.7563 90.2765 52.8111C90.2765 54.8806 89.8362 56.4217 88.9556 57.4344C88.0896 58.4472 86.8054 58.9535 85.1028 58.9535ZM85.1468 57.8087C85.8807 57.8087 86.4678 57.6253 86.9081 57.2583C87.3484 56.8767 87.664 56.3116 87.8548 55.5631C88.0456 54.8146 88.141 53.8972 88.141 52.8111C88.141 51.7103 88.0383 50.8003 87.8328 50.0811C87.642 49.3473 87.3264 48.7969 86.8861 48.4299C86.4458 48.063 85.8587 47.8795 85.1248 47.8795C84.391 47.8795 83.8039 48.063 83.3635 48.4299C82.9232 48.7969 82.6077 49.3473 82.4169 50.0811C82.2261 50.8003 82.1307 51.7103 82.1307 52.8111C82.1307 53.8972 82.2261 54.8146 82.4169 55.5631C82.6223 56.3116 82.9452 56.8767 83.3856 57.2583C83.8259 57.6253 84.413 57.8087 85.1468 57.8087Z" fill="white"/>
<path d="M97.501 58.9535C96.3415 58.9535 95.4462 58.616 94.8151 57.9408C94.184 57.251 93.8684 56.1502 93.8684 54.6384V49.3546C93.8684 48.9143 93.7803 48.5914 93.6042 48.3859C93.4428 48.1658 93.2226 48.0263 92.9437 47.9676C92.6795 47.8942 92.386 47.8575 92.0631 47.8575H91.997V46.9329H95.9379V54.5284C95.9379 55.1595 96.0039 55.7025 96.136 56.1575C96.2828 56.6125 96.525 56.9574 96.8626 57.1923C97.2001 57.4271 97.6625 57.5445 98.2496 57.5445C98.8954 57.5445 99.4237 57.3978 99.8347 57.1042C100.246 56.796 100.547 56.3777 100.737 55.8493C100.928 55.3062 101.024 54.6825 101.024 53.9779V49.4427C101.024 48.973 100.943 48.6281 100.781 48.4079C100.62 48.1878 100.4 48.041 100.121 47.9676C99.8567 47.8942 99.5558 47.8575 99.2183 47.8575H99.1522V46.9329H103.093V56.3337C103.093 56.7593 103.174 57.0822 103.335 57.3024C103.511 57.5078 103.732 57.6473 103.996 57.7207C104.275 57.7794 104.575 57.8087 104.898 57.8087H104.964V58.7334H101.464L101.178 56.9501H101.068C100.847 57.3611 100.598 57.6986 100.319 57.9628C100.055 58.227 99.776 58.4325 99.4825 58.5793C99.1889 58.7114 98.8734 58.8068 98.5358 58.8655C98.1982 58.9242 97.8533 58.9535 97.501 58.9535Z" fill="white"/>
<path d="M106.192 58.7334V57.8087H106.258C106.596 57.8087 106.897 57.772 107.161 57.6986C107.44 57.6253 107.66 57.4785 107.821 57.2583C107.983 57.0235 108.064 56.6786 108.064 56.2236V49.3546C108.064 48.9143 107.975 48.5914 107.799 48.3859C107.638 48.1658 107.418 48.0263 107.139 47.9676C106.875 47.8942 106.581 47.8575 106.258 47.8575H106.192V46.9329H109.583L110.001 49.1124H110.111C110.302 48.6721 110.507 48.2685 110.727 47.9016C110.948 47.5346 111.241 47.2484 111.608 47.0429C111.975 46.8228 112.481 46.7127 113.127 46.7127C113.934 46.7127 114.529 46.8521 114.91 47.131C115.307 47.4099 115.505 47.8062 115.505 48.3199C115.505 48.7749 115.343 49.1491 115.021 49.4427C114.712 49.7362 114.191 49.883 113.457 49.883C113.457 49.472 113.421 49.1418 113.347 48.8923C113.274 48.6428 113.149 48.4593 112.973 48.3419C112.812 48.2245 112.584 48.1658 112.291 48.1658C111.88 48.1658 111.535 48.3272 111.256 48.6501C110.977 48.973 110.757 49.384 110.595 49.883C110.434 50.382 110.316 50.9031 110.243 51.4461C110.17 51.9745 110.133 52.4515 110.133 52.8772V56.3337C110.133 56.7593 110.214 57.0822 110.375 57.3024C110.551 57.5078 110.771 57.6473 111.036 57.7207C111.315 57.7794 111.615 57.8087 111.938 57.8087H112.555V58.7334H106.192Z" fill="white"/>
<path d="M123.199 49.0244C123.096 48.7162 122.971 48.4813 122.824 48.3199C122.692 48.1437 122.531 48.0263 122.34 47.9676C122.164 47.8942 121.929 47.8575 121.636 47.8575H121.57V46.9329H127.008V47.8575H126.721C126.281 47.8575 125.951 47.9236 125.731 48.0557C125.51 48.1731 125.4 48.4153 125.4 48.7822C125.4 48.8996 125.415 49.0464 125.444 49.2225C125.488 49.3986 125.532 49.5674 125.576 49.7289L126.611 53.4276C126.714 53.7798 126.809 54.1761 126.897 54.6164C127 55.0421 127.096 55.453 127.184 55.8493C127.272 56.2309 127.338 56.5465 127.382 56.796H127.448C127.492 56.5465 127.558 56.2456 127.646 55.8933C127.749 55.5411 127.859 55.1668 127.976 54.7705C128.108 54.3742 128.233 54 128.35 53.6477L130.64 46.9989H132.027L134.229 53.5156C134.317 53.7798 134.405 54.066 134.493 54.3742C134.596 54.6678 134.691 54.9687 134.779 55.2769C134.867 55.5851 134.948 55.8713 135.021 56.1355C135.095 56.3997 135.146 56.6199 135.175 56.796H135.241C135.285 56.5465 135.344 56.2676 135.418 55.9594C135.506 55.6365 135.601 55.2769 135.704 54.8806C135.821 54.4843 135.953 54.0513 136.1 53.5817L137.201 50.0371C137.26 49.8463 137.304 49.6482 137.333 49.4427C137.377 49.2225 137.399 49.0537 137.399 48.9363C137.399 48.5547 137.274 48.2832 137.025 48.1217C136.79 47.9456 136.43 47.8575 135.946 47.8575H135.792V46.9329H140.503V47.8575H140.217C139.938 47.8575 139.703 47.9016 139.513 47.9896C139.322 48.063 139.153 48.2245 139.006 48.474C138.859 48.7235 138.713 49.0904 138.566 49.5748L135.726 58.7334H133.965L130.948 49.5307L127.822 58.7334H126.083L123.199 49.0244Z" fill="white"/>
<path d="M146.851 58.9535C145.265 58.9535 144.018 58.4472 143.108 57.4344C142.198 56.4217 141.743 54.8806 141.743 52.8111C141.743 50.7563 142.176 49.2299 143.042 48.2318C143.922 47.2191 145.214 46.7127 146.917 46.7127C148.502 46.7127 149.749 47.2191 150.659 48.2318C151.569 49.2299 152.024 50.7563 152.024 52.8111C152.024 54.8806 151.584 56.4217 150.703 57.4344C149.837 58.4472 148.553 58.9535 146.851 58.9535ZM146.895 57.8087C147.628 57.8087 148.216 57.6253 148.656 57.2583C149.096 56.8767 149.412 56.3116 149.603 55.5631C149.793 54.8146 149.889 53.8972 149.889 52.8111C149.889 51.7103 149.786 50.8003 149.581 50.0811C149.39 49.3473 149.074 48.7969 148.634 48.4299C148.194 48.063 147.606 47.8795 146.873 47.8795C146.139 47.8795 145.552 48.063 145.111 48.4299C144.671 48.7969 144.355 49.3473 144.165 50.0811C143.974 50.8003 143.878 51.7103 143.878 52.8111C143.878 53.8972 143.974 54.8146 144.165 55.5631C144.37 56.3116 144.693 56.8767 145.133 57.2583C145.574 57.6253 146.161 57.8087 146.895 57.8087Z" fill="white"/>
<path d="M153.965 58.7334V57.8087H154.031C154.369 57.8087 154.669 57.772 154.934 57.6986C155.213 57.6253 155.433 57.4785 155.594 57.2583C155.756 57.0235 155.836 56.6786 155.836 56.2236V49.3546C155.836 48.9143 155.748 48.5914 155.572 48.3859C155.411 48.1658 155.191 48.0263 154.912 47.9676C154.647 47.8942 154.354 47.8575 154.031 47.8575H153.965V46.9329H157.355L157.774 49.1124H157.884C158.075 48.6721 158.28 48.2685 158.5 47.9016C158.72 47.5346 159.014 47.2484 159.381 47.0429C159.748 46.8228 160.254 46.7127 160.9 46.7127C161.707 46.7127 162.302 46.8521 162.683 47.131C163.08 47.4099 163.278 47.8062 163.278 48.3199C163.278 48.7749 163.116 49.1491 162.793 49.4427C162.485 49.7362 161.964 49.883 161.23 49.883C161.23 49.472 161.194 49.1418 161.12 48.8923C161.047 48.6428 160.922 48.4593 160.746 48.3419C160.584 48.2245 160.357 48.1658 160.063 48.1658C159.652 48.1658 159.307 48.3272 159.029 48.6501C158.75 48.973 158.53 49.384 158.368 49.883C158.207 50.382 158.089 50.9031 158.016 51.4461C157.942 51.9745 157.906 52.4515 157.906 52.8772V56.3337C157.906 56.7593 157.987 57.0822 158.148 57.3024C158.324 57.5078 158.544 57.6473 158.808 57.7207C159.087 57.7794 159.388 57.8087 159.711 57.8087H160.328V58.7334H153.965Z" fill="white"/>
<path d="M169.304 58.9535C168.335 58.9535 167.513 58.7407 166.838 58.3151C166.177 57.8894 165.671 57.229 165.319 56.3337C164.981 55.4237 164.812 54.2642 164.812 52.8551C164.812 51.4314 164.981 50.2719 165.319 49.3766C165.671 48.4666 166.177 47.7988 166.838 47.3732C167.513 46.9329 168.335 46.7127 169.304 46.7127C170.155 46.7127 170.845 46.8962 171.373 47.2631C171.916 47.6154 172.349 48.0777 172.672 48.6501H172.804C172.775 48.4006 172.745 48.1364 172.716 47.8575C172.701 47.5787 172.687 47.2998 172.672 47.0209C172.672 46.7274 172.672 46.4632 172.672 46.2284V44.423C172.672 43.9827 172.584 43.6598 172.408 43.4543C172.246 43.2342 172.026 43.0948 171.747 43.036C171.483 42.9627 171.19 42.926 170.867 42.926H170.691V42.0013H174.741V56.3116C174.741 56.7373 174.822 57.0602 174.984 57.2803C175.16 57.5005 175.38 57.6473 175.644 57.7207C175.923 57.7794 176.224 57.8087 176.547 57.8087H176.723V58.7334H173.002L172.76 56.752H172.672C172.349 57.4271 171.923 57.9628 171.395 58.3591C170.867 58.7554 170.169 58.9535 169.304 58.9535ZM169.678 57.5445C170.823 57.5445 171.608 57.1629 172.033 56.3997C172.459 55.6218 172.672 54.4403 172.672 52.8551C172.672 51.8277 172.577 50.9691 172.386 50.2793C172.21 49.5748 171.901 49.039 171.461 48.6721C171.035 48.3052 170.434 48.1217 169.656 48.1217C169.01 48.1217 168.489 48.3052 168.093 48.6721C167.696 49.039 167.403 49.5748 167.212 50.2793C167.036 50.9838 166.948 51.8497 166.948 52.8772C166.948 53.9192 167.036 54.7852 167.212 55.475C167.403 56.1649 167.696 56.6859 168.093 57.0382C168.504 57.3757 169.032 57.5445 169.678 57.5445Z" fill="white"/>
<path d="M181.748 58.9535C181.014 58.9535 180.376 58.8655 179.833 58.6894C179.29 58.5132 178.864 58.2564 178.556 57.9188C178.262 57.5665 178.116 57.1336 178.116 56.6199C178.116 56.2236 178.196 55.9154 178.358 55.6952C178.519 55.475 178.703 55.3209 178.908 55.2329C179.128 55.1448 179.326 55.1008 179.503 55.1008C179.503 55.6145 179.576 56.0841 179.723 56.5098C179.869 56.9354 180.119 57.273 180.471 57.5225C180.824 57.772 181.293 57.8968 181.88 57.8968C182.658 57.8968 183.253 57.7133 183.664 57.3464C184.089 56.9648 184.302 56.4804 184.302 55.8933C184.302 55.5264 184.221 55.2255 184.06 54.9907C183.913 54.7558 183.642 54.5284 183.245 54.3082C182.864 54.0734 182.313 53.8018 181.594 53.4936C180.846 53.156 180.222 52.8331 179.723 52.5249C179.238 52.202 178.871 51.8351 178.622 51.4241C178.387 50.9985 178.27 50.4701 178.27 49.839C178.27 48.8409 178.644 48.0777 179.392 47.5493C180.156 47.0062 181.161 46.7347 182.409 46.7347C183.113 46.7347 183.7 46.8301 184.17 47.0209C184.654 47.197 185.014 47.4392 185.249 47.7475C185.498 48.0557 185.623 48.3933 185.623 48.7602C185.623 49.1565 185.484 49.4794 185.205 49.7289C184.94 49.9637 184.552 50.0811 184.038 50.0811C184.038 49.3473 183.884 48.7749 183.575 48.3639C183.267 47.9529 182.79 47.7475 182.144 47.7475C181.645 47.7475 181.242 47.8208 180.934 47.9676C180.625 48.1144 180.398 48.3199 180.251 48.5841C180.119 48.8482 180.053 49.1565 180.053 49.5087C180.053 49.8757 180.141 50.1839 180.317 50.4334C180.508 50.6829 180.801 50.9177 181.198 51.1379C181.609 51.3434 182.137 51.5782 182.783 51.8424C183.561 52.1653 184.192 52.4882 184.676 52.8111C185.161 53.134 185.513 53.5083 185.733 53.9339C185.968 54.3596 186.085 54.8806 186.085 55.497C186.085 56.6419 185.689 57.5078 184.896 58.0949C184.104 58.6673 183.054 58.9535 181.748 58.9535Z" fill="white"/>
<path d="M193.393 58.7334V57.8087H193.679C194.017 57.8087 194.311 57.772 194.56 57.6986C194.81 57.6253 195.008 57.4785 195.154 57.2583C195.301 57.0235 195.375 56.6786 195.375 56.2236V49.3546C195.375 48.9143 195.301 48.5914 195.154 48.3859C195.008 48.1658 194.802 48.0263 194.538 47.9676C194.289 47.8942 194.002 47.8575 193.679 47.8575H193.613V46.9329H197.07L197.356 48.7161H197.466C197.76 48.1584 198.075 47.7401 198.413 47.4612C198.75 47.1677 199.117 46.9696 199.514 46.8668C199.91 46.7641 200.336 46.7127 200.791 46.7127C201.26 46.7127 201.701 46.7788 202.111 46.9108C202.537 47.0429 202.911 47.2558 203.234 47.5493C203.557 47.8282 203.807 48.2171 203.983 48.7161H204.159C204.453 48.1584 204.775 47.7401 205.128 47.4612C205.495 47.1677 205.884 46.9696 206.295 46.8668C206.72 46.7641 207.16 46.7127 207.615 46.7127C208.746 46.7127 209.626 47.0576 210.257 47.7475C210.889 48.4226 211.204 49.5161 211.204 51.0278V56.2236C211.204 56.6786 211.277 57.0235 211.424 57.2583C211.571 57.4785 211.769 57.6253 212.019 57.6986C212.283 57.772 212.576 57.8087 212.899 57.8087H212.965V58.7334H209.135V51.1379C209.135 50.1839 208.958 49.4427 208.606 48.9143C208.269 48.3859 207.674 48.1217 206.823 48.1217C206.221 48.1217 205.737 48.2758 205.37 48.5841C205.018 48.8776 204.761 49.2739 204.599 49.7729C204.453 50.2719 204.379 50.815 204.379 51.4021V56.2236C204.379 56.6786 204.453 57.0235 204.599 57.2583C204.746 57.4785 204.944 57.6253 205.194 57.6986C205.458 57.772 205.751 57.8087 206.074 57.8087H206.14V58.7334H202.31V51.1379C202.31 50.1839 202.134 49.4427 201.781 48.9143C201.444 48.3859 200.849 48.1217 199.998 48.1217C199.367 48.1217 198.86 48.2905 198.479 48.6281C198.112 48.951 197.848 49.384 197.686 49.927C197.525 50.4701 197.444 51.0572 197.444 51.6883V56.3337C197.444 56.7593 197.525 57.0822 197.686 57.3024C197.862 57.5078 198.083 57.6473 198.347 57.7207C198.626 57.7794 198.927 57.8087 199.249 57.8087H199.315V58.7334H193.393Z" fill="white"/>
<path d="M218.102 58.9535C217.456 58.9535 216.869 58.8288 216.341 58.5793C215.827 58.3151 215.423 57.9261 215.13 57.4124C214.836 56.8841 214.689 56.2236 214.689 55.431C214.689 54.2568 215.1 53.3909 215.922 52.8331C216.759 52.2754 218.021 51.9672 219.709 51.9085L221.536 51.8424V50.5215C221.536 49.9931 221.492 49.5307 221.404 49.1344C221.316 48.7235 221.125 48.4006 220.832 48.1658C220.538 47.9309 220.091 47.8135 219.489 47.8135C218.931 47.8135 218.506 47.9162 218.212 48.1217C217.918 48.3272 217.72 48.6134 217.618 48.9803C217.53 49.3326 217.485 49.7436 217.485 50.2132C216.869 50.2132 216.399 50.1105 216.076 49.905C215.768 49.6848 215.614 49.3253 215.614 48.8262C215.614 48.3125 215.79 47.9016 216.143 47.5933C216.509 47.2851 216.994 47.065 217.596 46.9329C218.197 46.7861 218.858 46.7127 219.577 46.7127C220.927 46.7127 221.933 46.9989 222.593 47.5713C223.268 48.1437 223.606 49.1271 223.606 50.5215V56.2236C223.606 56.6345 223.65 56.9574 223.738 57.1923C223.826 57.4124 223.973 57.5739 224.178 57.6766C224.384 57.7647 224.648 57.8087 224.971 57.8087H225.037V58.7334H222.065L221.713 56.84H221.536C221.228 57.251 220.927 57.6179 220.634 57.9408C220.34 58.249 219.995 58.4985 219.599 58.6894C219.217 58.8655 218.718 58.9535 218.102 58.9535ZM218.608 57.5886C219.21 57.5886 219.724 57.4638 220.149 57.2143C220.59 56.9648 220.927 56.6125 221.162 56.1575C221.412 55.6879 221.536 55.1448 221.536 54.5284V52.7451L220.127 52.8111C219.291 52.8405 218.63 52.9652 218.146 53.1854C217.676 53.4055 217.339 53.7138 217.133 54.11C216.928 54.4917 216.825 54.9687 216.825 55.5411C216.825 55.9961 216.891 56.3777 217.023 56.6859C217.155 56.9795 217.353 57.2069 217.618 57.3684C217.882 57.5152 218.212 57.5886 218.608 57.5886Z" fill="white"/>
<path d="M231.278 58.9535C230.162 58.9535 229.348 58.704 228.834 58.205C228.335 57.6913 228.086 56.8033 228.086 55.5411V48.1878H226.412V47.3071C226.677 47.3071 226.97 47.2558 227.293 47.153C227.616 47.0356 227.895 46.8521 228.13 46.6026C228.379 46.3384 228.585 46.0155 228.746 45.6339C228.908 45.2523 229.04 44.7826 229.142 44.2249H230.155V46.9329H233.039V48.1878H230.155V55.6071C230.155 56.3557 230.309 56.9061 230.617 57.2583C230.926 57.6106 231.329 57.7867 231.828 57.7867C232.093 57.7867 232.335 57.772 232.555 57.7427C232.775 57.7133 233.003 57.6766 233.237 57.6326V58.6013C233.047 58.6894 232.76 58.7701 232.379 58.8435C231.997 58.9169 231.63 58.9535 231.278 58.9535Z" fill="white"/>
<path d="M239.018 58.9535C237.902 58.9535 237.088 58.704 236.574 58.205C236.075 57.6913 235.826 56.8033 235.826 55.5411V48.1878H234.152V47.3071C234.417 47.3071 234.71 47.2558 235.033 47.153C235.356 47.0356 235.635 46.8521 235.87 46.6026C236.119 46.3384 236.325 46.0155 236.486 45.6339C236.648 45.2523 236.78 44.7826 236.882 44.2249H237.895V46.9329H240.779V48.1878H237.895V55.6071C237.895 56.3557 238.049 56.9061 238.357 57.2583C238.666 57.6106 239.069 57.7867 239.568 57.7867C239.832 57.7867 240.075 57.772 240.295 57.7427C240.515 57.7133 240.742 57.6766 240.977 57.6326V58.6013C240.787 58.6894 240.5 58.7701 240.119 58.8435C239.737 58.9169 239.37 58.9535 239.018 58.9535Z" fill="white"/>
<path d="M247.793 58.9535C246.193 58.9535 244.938 58.4252 244.028 57.3684C243.133 56.3116 242.685 54.8292 242.685 52.9212C242.685 50.8664 243.111 49.3179 243.962 48.2758C244.813 47.2337 246.017 46.7127 247.572 46.7127C248.996 46.7127 250.112 47.153 250.919 48.0337C251.741 48.9143 252.152 50.2279 252.152 51.9745V52.9872H244.82C244.85 54.0587 244.989 54.932 245.239 55.6071C245.488 56.2823 245.848 56.7813 246.318 57.1042C246.802 57.4124 247.396 57.5665 248.101 57.5665C248.615 57.5665 249.07 57.4932 249.466 57.3464C249.877 57.1996 250.229 57.0088 250.523 56.774C250.831 56.5391 251.073 56.2896 251.249 56.0254C251.352 56.0695 251.447 56.1575 251.535 56.2896C251.623 56.4217 251.667 56.5832 251.667 56.774C251.667 57.0675 251.528 57.3831 251.249 57.7207C250.97 58.0582 250.545 58.3518 249.972 58.6013C249.4 58.8361 248.673 58.9535 247.793 58.9535ZM249.928 51.7984C249.928 51.0205 249.847 50.338 249.686 49.7509C249.539 49.1638 249.29 48.7088 248.937 48.3859C248.585 48.063 248.116 47.9016 247.528 47.9016C246.985 47.9016 246.523 48.0557 246.141 48.3639C245.774 48.6574 245.481 49.0904 245.261 49.6628C245.055 50.2352 244.923 50.9471 244.864 51.7984H249.928Z" fill="white"/>
<path d="M253.983 58.7334V57.8087H254.049C254.386 57.8087 254.687 57.772 254.951 57.6986C255.23 57.6253 255.45 57.4785 255.612 57.2583C255.773 57.0235 255.854 56.6786 255.854 56.2236V49.3546C255.854 48.9143 255.766 48.5914 255.59 48.3859C255.428 48.1658 255.208 48.0263 254.929 47.9676C254.665 47.8942 254.371 47.8575 254.049 47.8575H253.983V46.9329H257.373L257.791 49.1124H257.901C258.092 48.6721 258.298 48.2685 258.518 47.9016C258.738 47.5346 259.032 47.2484 259.398 47.0429C259.765 46.8228 260.272 46.7127 260.918 46.7127C261.725 46.7127 262.319 46.8521 262.701 47.131C263.097 47.4099 263.295 47.8062 263.295 48.3199C263.295 48.7749 263.134 49.1491 262.811 49.4427C262.503 49.7362 261.982 49.883 261.248 49.883C261.248 49.472 261.211 49.1418 261.138 48.8923C261.064 48.6428 260.94 48.4593 260.763 48.3419C260.602 48.2245 260.374 48.1658 260.081 48.1658C259.67 48.1658 259.325 48.3272 259.046 48.6501C258.767 48.973 258.547 49.384 258.386 49.883C258.224 50.382 258.107 50.9031 258.033 51.4461C257.96 51.9745 257.923 52.4515 257.923 52.8772V56.3337C257.923 56.7593 258.004 57.0822 258.166 57.3024C258.342 57.5078 258.562 57.6473 258.826 57.7207C259.105 57.7794 259.406 57.8087 259.729 57.8087H260.345V58.7334H253.983Z" fill="white"/>
<path d="M28.2333 48.9644C26.2015 51.9397 24.3115 55.2835 22.2602 59.3176C20.5224 55.6208 18.7374 52.5 16.7797 49.6954C18.0447 49.8221 19.4278 49.8869 20.9292 49.8869C23.6096 49.8869 26.0439 49.5785 28.2333 48.9644Z" fill="#A5B785"/>
<path d="M15.8005 0.458644C15.2787 0.635567 14.7682 0.832352 14.2701 1.05087C11.7001 2.19888 9.66717 3.80634 8.17192 5.87271C6.67678 7.93908 5.93007 10.3738 5.93007 13.1749C5.93014 14.8735 6.13898 16.4347 6.55943 17.8579C7.02671 19.2356 7.77522 20.5447 8.80324 21.7846C9.83122 22.9784 11.1866 24.104 12.8687 25.1601C14.5508 26.2162 16.6076 27.2254 19.0372 28.1896C21.6538 29.2457 23.8267 30.2568 25.5556 31.2211C27.2843 32.1395 28.5689 33.1731 29.4099 34.321C30.2977 35.4231 30.7429 36.7548 30.7429 38.3161C30.7428 40.4281 29.9705 42.1953 28.4287 43.6187C26.9335 45.0422 24.8078 45.755 22.0511 45.755C20.1821 45.755 18.5233 45.3179 17.0748 44.4455C15.6263 43.5271 14.4799 42.1954 13.6388 40.4504C12.8446 38.6596 12.4484 36.4554 12.4484 33.8382C11.0933 33.8382 9.80708 34.0445 8.59215 34.4578C7.37762 34.8711 6.39612 35.5598 5.64861 36.5238C5.46336 36.7513 5.30128 36.9995 5.16193 37.2665C3.56566 35.8903 1.85338 34.4772 0 32.9861V0.458644H15.8005Z" fill="#A5B785"/>
<path d="M44.5204 32.9861C42.8415 34.2144 41.3083 35.39 39.8941 36.5394C39.9585 35.9734 39.9937 35.3939 39.9937 34.8018C39.9936 32.5523 39.5502 30.5783 38.6627 28.8796C37.7749 27.1346 36.3488 25.5722 34.3862 24.1945C32.4237 22.8171 29.8309 21.4851 26.6071 20.1995C23.4763 18.9596 21.0693 17.8118 19.3871 16.7556C17.7049 15.6535 16.5604 14.5506 15.9529 13.4485C15.3457 12.3466 15.0421 11.1533 15.0421 9.86779C15.0421 8.49019 15.3455 7.3423 15.9529 6.42389C16.6071 5.45955 17.4482 4.74679 18.4762 4.28758C19.5508 3.78262 20.7193 3.53118 21.9807 3.53118C23.8027 3.53122 25.251 4.05855 26.3257 5.11435C27.4004 6.17053 28.1726 7.43473 28.6398 8.9042C29.1536 10.3733 29.4099 11.7506 29.4099 13.0361C32.3069 13.0361 34.4561 12.4845 35.8579 11.3826C37.3065 10.2805 38.0314 8.92627 38.0314 7.31907C38.0314 5.80369 37.4936 4.44952 36.4189 3.25559C35.4036 2.07638 33.8184 1.14511 31.6635 0.458644H44.5204V32.9861Z" fill="#A5B785"/>
</svg>
