<svg width="40" height="46" viewBox="0 0 40 46" fill="none" xmlns="http://www.w3.org/2000/svg">
<path d="M8.89075 46V42.8431H11.1456C11.9188 42.8431 12.606 42.7572 13.2073 42.5854C13.8086 42.3706 14.281 41.9626 14.6246 41.3613C15.0112 40.76 15.2045 39.8366 15.2045 38.591V3.67227H9.66386C8.37534 3.67227 7.36601 3.88702 6.63585 4.31652C5.90569 4.70308 5.36881 5.26143 5.02521 5.99159C4.6816 6.72175 4.44537 7.55928 4.31652 8.5042L3.92997 12.0476H0L0.322129 0H38.9776L39.2997 12.0476H35.3697L34.9187 8.5042C34.8328 7.55928 34.5966 6.72175 34.2101 5.99159C33.8664 5.26143 33.3296 4.70308 32.5994 4.31652C31.8693 3.88702 30.8599 3.67227 29.5714 3.67227H24.0308V38.5266C24.0308 39.7721 24.2026 40.717 24.5462 41.3613C24.8898 41.9626 25.3837 42.3706 26.028 42.5854C26.6722 42.7572 27.3595 42.8431 28.0896 42.8431H30.3445V46H8.89075Z" fill="black"/>
</svg>
