<svg width="38" height="34" viewBox="0 0 38 34" fill="none" xmlns="http://www.w3.org/2000/svg">
<path d="M31.0048 0H6.99165C3.13679 0 0 3.13654 0 6.99165V22.2816C0 26.1384 3.13853 29.2768 6.99523 29.2768H17.1752C20.0524 29.2768 22.8797 30.2605 25.1363 32.0422L25.7369 32.5171C26.5051 33.1237 27.4269 33.4369 28.3587 33.4369C28.9872 33.4369 29.6197 33.2953 30.2143 33.008C31.6908 32.2937 32.6066 30.8311 32.6066 29.191V29.0932C35.6933 28.3689 38 25.5915 38 22.2855V6.99351C38 3.13666 34.8615 0 31.0048 0ZM29.4125 27.6801V29.1905C29.4125 29.7831 28.9995 30.0484 28.822 30.1342C28.6444 30.22 28.1835 30.3817 27.7166 30.0125L27.116 29.5377C24.2987 27.3109 20.7669 26.0839 17.1756 26.0839H6.99559C4.89855 26.0839 3.19262 24.3779 3.19262 22.2809V6.99101C3.19262 4.89596 4.89656 3.19203 6.9916 3.19203H31.0047C33.1018 3.19203 34.8077 4.89795 34.8077 6.993V22.2849C34.8077 24.38 33.1037 26.0839 31.0087 26.0839C30.1268 26.0839 29.4125 26.7981 29.4125 27.6801Z" fill="#707070"/>
</svg>
