<svg width="23" height="20" viewBox="0 0 23 20" fill="none" xmlns="http://www.w3.org/2000/svg">
<path d="M1.59081 11.6294V2.96701C1.59081 2.20835 2.20828 1.5909 2.96692 1.5909H15.9726C16.4319 1.5909 16.8535 1.81263 17.1001 2.1835C17.1071 2.19345 17.117 2.19842 17.124 2.20737C17.3736 2.54841 17.8458 2.64088 18.2028 2.40424C18.5687 2.16064 18.6672 1.66647 18.4236 1.30156C17.8807 0.487223 16.9639 0.000994311 15.9716 0.000994311L2.96696 0C1.33131 0 0 1.33139 0 2.96696V11.6293C0 12.6097 0.484218 13.5245 1.29458 14.0763C1.4318 14.1698 1.58789 14.2145 1.74202 14.2145C1.99656 14.2145 2.24614 14.0932 2.40024 13.8665C2.59413 13.5812 2.57126 13.2182 2.37936 12.9548C2.32667 12.8832 2.268 12.8146 2.19044 12.7609C1.81458 12.5063 1.59081 12.0838 1.59081 11.6294Z" fill="#707070"/>
<path d="M18.7864 3.33717H6.81982C4.89881 3.33717 3.33563 4.90022 3.33563 6.82137V14.4409C3.33563 16.3629 4.89968 17.9268 6.82161 17.9268H11.8947C13.3285 17.9268 14.7374 18.417 15.862 19.305L16.1613 19.5416C16.5441 19.8439 17.0034 20 17.4678 20C17.781 20 18.0962 19.9294 18.3925 19.7862C19.1283 19.4303 19.5847 18.7014 19.5847 17.8841V17.8354C21.1229 17.4744 22.2724 16.0904 22.2724 14.4428V6.82229C22.2724 4.90029 20.7084 3.33717 18.7864 3.33717ZM17.993 17.1311V17.8838C17.993 18.1792 17.7871 18.3114 17.6987 18.3541C17.6102 18.3969 17.3805 18.4774 17.1478 18.2935L16.8485 18.0569C15.4445 16.9472 13.6845 16.3357 11.8948 16.3357H6.82178C5.77676 16.3357 4.92663 15.4856 4.92663 14.4406V6.82104C4.92663 5.77701 5.77576 4.92788 6.8198 4.92788H18.7864C19.8314 4.92788 20.6816 5.778 20.6816 6.82204V14.4426C20.6816 15.4866 19.8324 16.3357 18.7884 16.3357C18.3489 16.3357 17.993 16.6916 17.993 17.1311Z" fill="#707070"/>
</svg>
