<svg width="19" height="15" viewBox="0 0 19 15" fill="none" xmlns="http://www.w3.org/2000/svg">
<path d="M1.62876 11.9068V3.0378C1.62876 2.26103 2.26097 1.62886 3.03771 1.62886H16.3536C16.824 1.62886 17.2556 1.85588 17.5081 2.2356C17.5152 2.24578 17.5254 2.25087 17.5325 2.26003C17.7881 2.6092 18.2716 2.70389 18.6371 2.4616C19.0117 2.21218 19.1125 1.70623 18.8631 1.33261C18.3073 0.498848 17.3686 0.00101803 16.3526 0.00101803L3.03775 0C1.36308 0 0 1.36315 0 3.03775V11.9068C0 12.9106 0.495771 13.8472 1.32547 14.4122C1.46596 14.5079 1.62578 14.5537 1.78358 14.5537C2.0442 14.5537 2.29973 14.4295 2.45751 14.1974C2.65603 13.9052 2.63261 13.5336 2.43613 13.2638C2.38217 13.1905 2.32211 13.1203 2.2427 13.0653C1.85788 12.8047 1.62876 12.3721 1.62876 11.9068Z" fill="#707070"/>
</svg>
