<svg width="19" height="22" viewBox="0 0 19 22" fill="none" xmlns="http://www.w3.org/2000/svg">
<path d="M9.37104 10.9242C10.6392 10.1901 11.4977 8.81931 11.4977 7.24918C11.4977 4.90898 9.59295 3 7.24848 3C4.90337 3 2.99931 4.90471 2.99931 7.24918C2.99931 8.82016 3.85779 10.1902 5.12592 10.9242C2.1625 11.8361 0 14.5993 0 17.8564C0 18.1009 0.200231 18.3011 0.444674 18.3011C0.689116 18.3011 0.889347 18.1009 0.889347 17.8564C0.889347 14.3548 3.73253 11.5024 7.23011 11.4932H7.24763H7.26515C10.7625 11.5024 13.6059 14.3541 13.6059 17.8564C13.6059 18.1009 13.8061 18.3011 14.0506 18.3011C14.295 18.3011 14.4953 18.1009 14.4953 17.8564C14.4953 14.5951 12.3328 11.832 9.36934 10.9242H9.37104ZM3.88887 7.24918C3.88887 5.39786 5.39728 3.88956 7.24848 3.88956C9.09969 3.88956 10.6081 5.39797 10.6081 7.24918C10.6081 9.10038 9.11303 10.5955 7.26664 10.6088H7.24911H7.23159C5.38947 10.5996 3.89013 9.09622 3.89013 7.24918H3.88887Z" fill="white"/>
<path d="M14.8853 11.6815C14.8853 11.6815 14.8895 11.6815 14.8945 11.6773C14.8945 11.6773 14.9037 11.6773 14.9037 11.6731C15.7088 11.0816 16.1893 10.1338 16.1893 9.14112C16.1893 7.40995 14.7785 6 13.0523 6C12.812 6 12.5759 6.0267 12.3448 6.08009C12.1045 6.13349 11.9577 6.37377 12.0111 6.61404C12.0645 6.85432 12.3047 7.00532 12.545 6.94776C12.7094 6.90772 12.8829 6.8902 13.0523 6.8902C14.2937 6.8902 15.2991 7.90054 15.2991 9.14197C15.2991 9.85362 14.9562 10.5344 14.3781 10.9574H14.3739C14.1069 11.1576 13.8041 11.287 13.4754 11.3487C13.4662 11.3487 13.462 11.3579 13.4528 11.3579C13.4303 11.362 13.4128 11.3754 13.3953 11.3804C13.3594 11.3937 13.3285 11.4071 13.2977 11.4296C13.2801 11.443 13.2668 11.4605 13.2535 11.4738C13.2309 11.4964 13.2042 11.523 13.1867 11.5497C13.1734 11.5723 13.1642 11.594 13.1558 11.6207C13.1425 11.6515 13.1291 11.6782 13.125 11.7099C13.125 11.7191 13.1208 11.7233 13.1208 11.7275C13.1208 11.75 13.1208 11.7717 13.125 11.7984C13.125 11.8209 13.1208 11.8426 13.125 11.8651C13.125 11.8743 13.1291 11.8785 13.1341 11.8826C13.1383 11.9052 13.1517 11.9268 13.1608 11.9494C13.1742 11.9802 13.1875 12.0069 13.2051 12.0336C13.2184 12.0512 13.2318 12.0695 13.2493 12.0829C13.2718 12.1054 13.2935 12.1271 13.3202 12.1454C13.3377 12.1588 13.3561 12.168 13.3778 12.1763C13.4086 12.1897 13.4403 12.203 13.4712 12.2072C13.4846 12.2072 13.4979 12.2205 13.5112 12.2205C15.567 12.4833 17.1154 14.2495 17.1154 16.3277C17.1154 16.5721 17.3156 16.7723 17.5601 16.7723C17.8045 16.7723 18.0048 16.5721 18.0048 16.3277C18.0048 14.2544 16.7325 12.439 14.8946 11.678L14.8853 11.6815Z" fill="white"/>
<circle cx="15.7525" cy="3" r="3" fill="#FF0084"/>
</svg>
