<svg width="19" height="21" viewBox="0 0 19 21" fill="none" xmlns="http://www.w3.org/2000/svg">
<path d="M9.37104 10.8508C10.6392 10.1166 11.4977 8.74589 11.4977 7.17575C11.4977 4.83555 9.59295 2.92657 7.24848 2.92657C4.90337 2.92657 2.99931 4.83128 2.99931 7.17575C2.99931 8.74674 3.85779 10.1167 5.12592 10.8508C2.1625 11.7627 0 14.5259 0 17.783C0 18.0274 0.200231 18.2277 0.444674 18.2277C0.689116 18.2277 0.889347 18.0274 0.889347 17.783C0.889347 14.2813 3.73253 11.429 7.23011 11.4198H7.24763H7.26515C10.7625 11.429 13.6059 14.2807 13.6059 17.783C13.6059 18.0274 13.8061 18.2277 14.0506 18.2277C14.295 18.2277 14.4953 18.0274 14.4953 17.783C14.4953 14.5216 12.3328 11.7585 9.36934 10.8508H9.37104ZM3.88887 7.17575C3.88887 5.32444 5.39728 3.81614 7.24848 3.81614C9.09969 3.81614 10.6081 5.32455 10.6081 7.17575C10.6081 9.02696 9.11303 10.5221 7.26664 10.5354H7.24911H7.23159C5.38947 10.5262 3.89013 9.02279 3.89013 7.17575H3.88887Z" fill="white"/>
<path d="M14.8853 11.608C14.8853 11.608 14.8895 11.608 14.8945 11.6039C14.8945 11.6039 14.9037 11.6039 14.9037 11.5997C15.7088 11.0082 16.1893 10.0604 16.1893 9.0677C16.1893 7.33652 14.7785 5.92657 13.0523 5.92657C12.812 5.92657 12.5759 5.95327 12.3448 6.00667C12.1045 6.06006 11.9577 6.30034 12.0111 6.54062C12.0645 6.7809 12.3047 6.9319 12.545 6.87434C12.7094 6.83429 12.8829 6.81677 13.0523 6.81677C14.2937 6.81677 15.2991 7.82711 15.2991 9.06855C15.2991 9.78019 14.9562 10.461 14.3781 10.884H14.3739C14.1069 11.0842 13.8041 11.2135 13.4754 11.2753C13.4662 11.2753 13.462 11.2844 13.4528 11.2844C13.4303 11.2886 13.4128 11.302 13.3953 11.307C13.3594 11.3203 13.3285 11.3337 13.2977 11.3562C13.2801 11.3695 13.2668 11.3871 13.2535 11.4004C13.2309 11.4229 13.2042 11.4496 13.1867 11.4763C13.1734 11.4988 13.1642 11.5205 13.1558 11.5472C13.1425 11.5781 13.1291 11.6048 13.125 11.6365C13.125 11.6457 13.1208 11.6499 13.1208 11.654C13.1208 11.6766 13.1208 11.6982 13.125 11.7249C13.125 11.7475 13.1208 11.7692 13.125 11.7917C13.125 11.8009 13.1291 11.805 13.1341 11.8092C13.1383 11.8317 13.1517 11.8534 13.1608 11.8759C13.1742 11.9068 13.1875 11.9335 13.2051 11.9602C13.2184 11.9777 13.2318 11.9961 13.2493 12.0094C13.2718 12.032 13.2935 12.0537 13.3202 12.072C13.3377 12.0854 13.3561 12.0945 13.3778 12.1029C13.4086 12.1162 13.4403 12.1296 13.4712 12.1337C13.4846 12.1337 13.4979 12.1471 13.5112 12.1471C15.567 12.4099 17.1154 14.1761 17.1154 16.2542C17.1154 16.4987 17.3156 16.6989 17.5601 16.6989C17.8045 16.6989 18.0048 16.4987 18.0048 16.2542C18.0048 14.181 16.7325 12.3656 14.8946 11.6046L14.8853 11.608Z" fill="white"/>
</svg>
