<svg width="133" height="31" viewBox="0 0 133 31" fill="none" xmlns="http://www.w3.org/2000/svg">
<path d="M37.1392 13.212C36.2392 13.212 35.5012 13.134 34.9252 12.978C34.3492 12.81 33.8932 12.6 33.5572 12.348C33.2332 12.096 33.0052 11.826 32.8732 11.538C32.7412 11.238 32.6752 10.962 32.6752 10.71C32.6752 10.23 32.7832 9.858 32.9992 9.594C33.2152 9.318 33.4912 9.126 33.8272 9.018C34.1632 8.898 34.5232 8.838 34.9072 8.838C34.9072 9.594 35.0272 10.212 35.2672 10.692C35.5072 11.16 35.8252 11.508 36.2212 11.736C36.6172 11.952 37.0372 12.06 37.4812 12.06C38.1532 12.06 38.6692 11.874 39.0292 11.502C39.4012 11.13 39.5872 10.71 39.5872 10.242C39.5872 9.846 39.4612 9.504 39.2092 9.216C38.9692 8.928 38.6212 8.664 38.1652 8.424C37.7092 8.184 37.1512 7.932 36.4912 7.668C35.8312 7.392 35.2792 7.11 34.8352 6.822C34.3912 6.534 34.0372 6.228 33.7732 5.904C33.5092 5.568 33.3232 5.22 33.2152 4.86C33.1072 4.488 33.0532 4.092 33.0532 3.672C33.0532 2.916 33.2572 2.268 33.6652 1.728C34.0732 1.176 34.6252 0.75 35.3212 0.45C36.0292 0.15 36.8212 0 37.6972 0C38.6332 0 39.3952 0.108 39.9832 0.324C40.5832 0.528 41.0212 0.798 41.2972 1.134C41.5732 1.458 41.7112 1.806 41.7112 2.178C41.7112 2.622 41.5192 2.994 41.1352 3.294C40.7632 3.594 40.1452 3.744 39.2812 3.744C39.2812 3.36 39.2092 2.976 39.0652 2.592C38.9332 2.196 38.7232 1.86 38.4352 1.584C38.1472 1.308 37.7812 1.17 37.3372 1.17C37.0252 1.17 36.7432 1.23 36.4912 1.35C36.2392 1.458 36.0352 1.62 35.8792 1.836C35.7352 2.052 35.6632 2.334 35.6632 2.682C35.6632 2.958 35.7412 3.234 35.8972 3.51C36.0532 3.774 36.3532 4.05 36.7972 4.338C37.2412 4.626 37.8892 4.944 38.7412 5.292C39.6172 5.64 40.3072 6.012 40.8112 6.408C41.3272 6.792 41.6872 7.218 41.8912 7.686C42.1072 8.142 42.2152 8.658 42.2152 9.234C42.2152 10.014 42.0052 10.704 41.5852 11.304C41.1772 11.892 40.5892 12.36 39.8212 12.708C39.0652 13.044 38.1712 13.212 37.1392 13.212Z" fill="white"/>
<path d="M47.5018 13.212C46.6258 13.212 45.9298 13.002 45.4138 12.582C44.8978 12.15 44.6398 11.406 44.6398 10.35V4.68H43.3078V3.69C43.7638 3.69 44.1478 3.6 44.4598 3.42C44.7838 3.24 45.0358 3.054 45.2158 2.862C45.3838 2.682 45.5398 2.448 45.6838 2.16C45.8398 1.872 45.9598 1.53 46.0438 1.134H47.8078V3.384H50.0758V4.68H47.8078V10.062C47.8078 10.578 47.8858 10.956 48.0418 11.196C48.1978 11.424 48.4918 11.538 48.9238 11.538C49.1638 11.538 49.3918 11.526 49.6078 11.502C49.8358 11.466 50.0458 11.424 50.2378 11.376V12.69C50.0338 12.786 49.6978 12.9 49.2298 13.032C48.7618 13.152 48.1858 13.212 47.5018 13.212Z" fill="white"/>
<path d="M56.1919 13.212C54.6919 13.212 53.5099 12.798 52.6459 11.97C51.7939 11.13 51.3679 9.858 51.3679 8.154C51.3679 6.462 51.7759 5.202 52.5919 4.374C53.4199 3.546 54.6379 3.132 56.2459 3.132C57.7459 3.132 58.9279 3.546 59.7919 4.374C60.6559 5.202 61.0879 6.462 61.0879 8.154C61.0879 9.858 60.6739 11.13 59.8459 11.97C59.0179 12.798 57.7999 13.212 56.1919 13.212ZM56.2279 12.006C56.6359 12.006 56.9599 11.862 57.1999 11.574C57.4399 11.274 57.6139 10.842 57.7219 10.278C57.8299 9.702 57.8839 8.994 57.8839 8.154C57.8839 7.314 57.8239 6.612 57.7039 6.048C57.5959 5.484 57.4219 5.064 57.1819 4.788C56.9419 4.5 56.6179 4.356 56.2099 4.356C55.8139 4.356 55.4959 4.5 55.2559 4.788C55.0159 5.064 54.8419 5.484 54.7339 6.048C54.6259 6.612 54.5719 7.314 54.5719 8.154C54.5719 8.994 54.6259 9.702 54.7339 10.278C54.8419 10.842 55.0159 11.274 55.2559 11.574C55.5079 11.862 55.8319 12.006 56.2279 12.006Z" fill="white"/>
<path d="M62.1486 13.032V12.006H62.2206C62.4966 12.006 62.7306 11.976 62.9226 11.916C63.1146 11.856 63.2646 11.736 63.3726 11.556C63.4806 11.364 63.5346 11.082 63.5346 10.71V5.634C63.5346 5.274 63.4866 5.01 63.3906 4.842C63.3066 4.662 63.1746 4.548 62.9946 4.5C62.8146 4.44 62.5926 4.41 62.3286 4.41H62.2746V3.384H66.2166L66.5766 4.932H66.6666C66.8466 4.512 67.0566 4.17 67.2966 3.906C67.5366 3.642 67.8246 3.45 68.1606 3.33C68.4966 3.21 68.9046 3.15 69.3846 3.15C70.0806 3.15 70.5906 3.306 70.9146 3.618C71.2386 3.918 71.4006 4.308 71.4006 4.788C71.4006 5.412 71.1726 5.874 70.7166 6.174C70.2726 6.462 69.6666 6.606 68.8986 6.606C68.8986 6.27 68.8746 5.994 68.8266 5.778C68.7786 5.55 68.6946 5.376 68.5746 5.256C68.4666 5.136 68.2986 5.076 68.0706 5.076C67.8066 5.076 67.5846 5.166 67.4046 5.346C67.2366 5.526 67.0986 5.766 66.9906 6.066C66.8946 6.354 66.8226 6.666 66.7746 7.002C66.7266 7.326 66.7026 7.626 66.7026 7.902V10.8C66.7026 11.148 66.7506 11.412 66.8466 11.592C66.9426 11.76 67.0806 11.874 67.2606 11.934C67.4406 11.982 67.6446 12.006 67.8726 12.006H68.4846V13.032H62.1486Z" fill="white"/>
<path d="M72.0836 16.038C72.7076 16.038 73.2416 15.966 73.6856 15.822C74.1296 15.69 74.4956 15.498 74.7836 15.246C75.0836 14.994 75.3296 14.694 75.5216 14.346C75.7136 13.998 75.8816 13.614 76.0256 13.194L72.8216 5.238C72.7376 5.01 72.6416 4.848 72.5336 4.752C72.4256 4.644 72.3056 4.572 72.1736 4.536C72.0416 4.488 71.8916 4.464 71.7236 4.464H71.6336V3.384H77.1416V4.41H77.0696C76.7096 4.41 76.4396 4.458 76.2596 4.554C76.0916 4.65 76.0076 4.812 76.0076 5.04C76.0076 5.148 76.0256 5.274 76.0616 5.418C76.1096 5.55 76.1516 5.67 76.1876 5.778L77.2676 8.82C77.3396 9.012 77.3996 9.198 77.4476 9.378C77.5076 9.558 77.5556 9.726 77.5916 9.882C77.6276 10.026 77.6576 10.164 77.6816 10.296C77.7056 10.428 77.7236 10.554 77.7356 10.674C77.7596 10.41 77.8076 10.158 77.8796 9.918C77.9516 9.666 78.0056 9.486 78.0416 9.378L79.1756 5.994C79.2116 5.886 79.2536 5.736 79.3016 5.544C79.3496 5.34 79.3736 5.184 79.3736 5.076C79.3736 4.824 79.2776 4.656 79.0856 4.572C78.9056 4.476 78.6296 4.422 78.2576 4.41H78.1856V3.384H82.1816V4.41H82.1096C81.8936 4.422 81.7016 4.47 81.5336 4.554C81.3776 4.638 81.2336 4.776 81.1016 4.968C80.9816 5.148 80.8616 5.388 80.7416 5.688L78.0236 12.996C77.7236 13.836 77.4356 14.52 77.1596 15.048C76.8836 15.588 76.5536 16.014 76.1696 16.326C75.7856 16.638 75.2996 16.854 74.7116 16.974C74.1236 17.106 73.3676 17.172 72.4436 17.172H72.0836V16.038Z" fill="white"/>
<path d="M83.6394 5.238C83.5554 5.022 83.4594 4.854 83.3514 4.734C83.2434 4.614 83.0994 4.53 82.9194 4.482C82.7394 4.434 82.5174 4.41 82.2534 4.41V3.384H88.1574V4.41H87.4734C87.2454 4.41 87.0774 4.458 86.9694 4.554C86.8614 4.638 86.8074 4.77 86.8074 4.95C86.8074 5.094 86.8254 5.232 86.8614 5.364C86.8974 5.496 86.9334 5.616 86.9694 5.724L88.1574 9.126C88.2414 9.354 88.3194 9.582 88.3914 9.81C88.4634 10.026 88.5234 10.242 88.5714 10.458C88.6314 10.662 88.6734 10.86 88.6974 11.052C88.7334 10.884 88.7754 10.71 88.8234 10.53C88.8714 10.338 88.9194 10.158 88.9674 9.99C89.0154 9.822 89.0574 9.672 89.0934 9.54L90.2814 5.868C90.3414 5.7 90.3894 5.544 90.4254 5.4C90.4614 5.244 90.4794 5.082 90.4794 4.914C90.4794 4.758 90.4194 4.638 90.2994 4.554C90.1794 4.458 89.9934 4.41 89.7414 4.41H89.3094V3.384H93.3054V4.41H92.8914C92.7354 4.41 92.5974 4.446 92.4774 4.518C92.3574 4.578 92.2434 4.704 92.1354 4.896C92.0394 5.076 91.9254 5.34 91.7934 5.688L89.2914 13.032H86.5194L83.6394 5.238Z" fill="white"/>
<path d="M98.9427 13.212C97.3107 13.212 96.0927 12.78 95.2887 11.916C94.4847 11.04 94.0827 9.816 94.0827 8.244C94.0827 6.552 94.4847 5.28 95.2887 4.428C96.1047 3.564 97.2507 3.132 98.7267 3.132C100.095 3.132 101.169 3.498 101.949 4.23C102.741 4.962 103.137 6.042 103.137 7.47V8.442H97.2687C97.2927 9.21 97.3947 9.84 97.5747 10.332C97.7667 10.824 98.0367 11.19 98.3847 11.43C98.7327 11.658 99.1587 11.772 99.6627 11.772C100.083 11.772 100.443 11.706 100.743 11.574C101.055 11.43 101.319 11.244 101.535 11.016C101.763 10.776 101.943 10.506 102.075 10.206C102.279 10.278 102.435 10.392 102.543 10.548C102.663 10.692 102.723 10.878 102.723 11.106C102.723 11.454 102.591 11.79 102.327 12.114C102.075 12.438 101.673 12.702 101.121 12.906C100.569 13.11 99.8427 13.212 98.9427 13.212ZM100.005 7.218C100.005 6.606 99.9627 6.09 99.8787 5.67C99.7947 5.25 99.6627 4.932 99.4827 4.716C99.3147 4.488 99.0867 4.374 98.7987 4.374C98.5107 4.374 98.2527 4.482 98.0247 4.698C97.7967 4.914 97.6227 5.232 97.5027 5.652C97.3827 6.072 97.3167 6.594 97.3047 7.218H100.005Z" fill="white"/>
<path d="M104.108 13.032V12.006H104.18C104.456 12.006 104.69 11.976 104.882 11.916C105.074 11.856 105.224 11.736 105.332 11.556C105.44 11.364 105.494 11.082 105.494 10.71V5.634C105.494 5.274 105.446 5.01 105.35 4.842C105.266 4.662 105.134 4.548 104.954 4.5C104.774 4.44 104.552 4.41 104.288 4.41H104.234V3.384H108.176L108.536 4.932H108.626C108.806 4.512 109.016 4.17 109.256 3.906C109.496 3.642 109.784 3.45 110.12 3.33C110.456 3.21 110.864 3.15 111.344 3.15C112.04 3.15 112.55 3.306 112.874 3.618C113.198 3.918 113.36 4.308 113.36 4.788C113.36 5.412 113.132 5.874 112.676 6.174C112.232 6.462 111.626 6.606 110.858 6.606C110.858 6.27 110.834 5.994 110.786 5.778C110.738 5.55 110.654 5.376 110.534 5.256C110.426 5.136 110.258 5.076 110.03 5.076C109.766 5.076 109.544 5.166 109.364 5.346C109.196 5.526 109.058 5.766 108.95 6.066C108.854 6.354 108.782 6.666 108.734 7.002C108.686 7.326 108.662 7.626 108.662 7.902V10.8C108.662 11.148 108.71 11.412 108.806 11.592C108.902 11.76 109.04 11.874 109.22 11.934C109.4 11.982 109.604 12.006 109.832 12.006H110.444V13.032H104.108Z" fill="white"/>
<path d="M117.913 13.212C116.965 13.212 116.215 13.116 115.663 12.924C115.111 12.732 114.715 12.474 114.475 12.15C114.235 11.826 114.115 11.472 114.115 11.088C114.115 10.716 114.205 10.428 114.385 10.224C114.565 10.02 114.793 9.882 115.069 9.81C115.345 9.726 115.627 9.684 115.915 9.684C115.915 10.212 115.999 10.65 116.167 10.998C116.335 11.346 116.569 11.604 116.869 11.772C117.181 11.94 117.535 12.024 117.931 12.024C118.531 12.024 118.957 11.916 119.209 11.7C119.473 11.484 119.605 11.226 119.605 10.926C119.605 10.686 119.527 10.476 119.371 10.296C119.227 10.116 118.993 9.948 118.669 9.792C118.357 9.636 117.937 9.48 117.409 9.324C116.713 9.108 116.131 8.868 115.663 8.604C115.207 8.328 114.859 7.992 114.619 7.596C114.379 7.2 114.259 6.714 114.259 6.138C114.259 5.118 114.631 4.368 115.375 3.888C116.119 3.396 117.103 3.15 118.327 3.15C119.119 3.15 119.755 3.234 120.235 3.402C120.727 3.57 121.081 3.786 121.297 4.05C121.513 4.314 121.621 4.584 121.621 4.86C121.621 5.28 121.471 5.598 121.171 5.814C120.871 6.03 120.385 6.138 119.713 6.138C119.713 5.538 119.557 5.082 119.245 4.77C118.945 4.446 118.543 4.284 118.039 4.284C117.787 4.284 117.559 4.326 117.355 4.41C117.151 4.482 116.983 4.59 116.851 4.734C116.731 4.878 116.671 5.058 116.671 5.274C116.671 5.514 116.737 5.724 116.869 5.904C117.001 6.072 117.235 6.234 117.571 6.39C117.907 6.546 118.375 6.72 118.975 6.912C119.563 7.104 120.085 7.326 120.541 7.578C120.997 7.83 121.351 8.148 121.603 8.532C121.855 8.916 121.981 9.396 121.981 9.972C121.981 10.956 121.633 11.742 120.937 12.33C120.253 12.918 119.245 13.212 117.913 13.212Z" fill="white"/>
<path d="M128.21 13.212C126.578 13.212 125.36 12.78 124.556 11.916C123.752 11.04 123.35 9.816 123.35 8.244C123.35 6.552 123.752 5.28 124.556 4.428C125.372 3.564 126.518 3.132 127.994 3.132C129.362 3.132 130.436 3.498 131.216 4.23C132.008 4.962 132.404 6.042 132.404 7.47V8.442H126.536C126.56 9.21 126.662 9.84 126.842 10.332C127.034 10.824 127.304 11.19 127.652 11.43C128 11.658 128.426 11.772 128.93 11.772C129.35 11.772 129.71 11.706 130.01 11.574C130.322 11.43 130.586 11.244 130.802 11.016C131.03 10.776 131.21 10.506 131.342 10.206C131.546 10.278 131.702 10.392 131.81 10.548C131.93 10.692 131.99 10.878 131.99 11.106C131.99 11.454 131.858 11.79 131.594 12.114C131.342 12.438 130.94 12.702 130.388 12.906C129.836 13.11 129.11 13.212 128.21 13.212ZM129.272 7.218C129.272 6.606 129.23 6.09 129.146 5.67C129.062 5.25 128.93 4.932 128.75 4.716C128.582 4.488 128.354 4.374 128.066 4.374C127.778 4.374 127.52 4.482 127.292 4.698C127.064 4.914 126.89 5.232 126.77 5.652C126.65 6.072 126.584 6.594 126.572 7.218H129.272Z" fill="white"/>
<path d="M14.1064 24.4645C13.0913 25.9511 12.147 27.6218 11.1221 29.6374C10.2538 27.7903 9.36195 26.2311 8.38379 24.8297C9.01583 24.8931 9.70686 24.9254 10.457 24.9254C11.7963 24.9254 13.0125 24.7714 14.1064 24.4645ZM7.89453 0.22916C7.63383 0.317558 7.37874 0.41588 7.12988 0.525059C5.84585 1.09865 4.83009 1.9018 4.08301 2.93424C3.33598 3.96667 2.96289 5.18317 2.96289 6.58268C2.96293 7.43139 3.06727 8.21141 3.27734 8.92252C3.51082 9.61084 3.8848 10.265 4.39844 10.8844C4.91206 11.4809 5.58927 12.0433 6.42969 12.571C7.27014 13.0986 8.29778 13.6029 9.51172 14.0846C10.8191 14.6123 11.9047 15.1175 12.7686 15.5993C13.6323 16.0581 14.2741 16.5746 14.6943 17.1481C15.1379 17.6987 15.3604 18.3641 15.3604 19.1442C15.3603 20.1995 14.9744 21.0824 14.2041 21.7936C13.457 22.5048 12.3949 22.861 11.0176 22.861C10.0838 22.861 9.25497 22.6426 8.53125 22.2067C7.80749 21.7478 7.2347 21.0825 6.81445 20.2106C6.41765 19.3159 6.21973 18.2145 6.21973 16.9069C5.54266 16.9069 4.9 17.01 4.29297 17.2165C3.68614 17.4229 3.19575 17.767 2.82227 18.2487C2.72971 18.3624 2.64873 18.4864 2.5791 18.6198C1.78154 17.9322 0.926021 17.2261 0 16.4811V0.22916H7.89453ZM22.2441 16.4811C21.4053 17.0949 20.6392 17.6822 19.9326 18.2565C19.9648 17.9737 19.9824 17.6842 19.9824 17.3883C19.9824 16.2644 19.7608 15.2781 19.3174 14.4294C18.8738 13.5575 18.1612 12.7769 17.1807 12.0885C16.2002 11.4003 14.9047 10.7348 13.2939 10.0924C11.7297 9.47296 10.527 8.89945 9.68652 8.37174C8.84605 7.8211 8.27421 7.27004 7.9707 6.71939C7.66731 6.16885 7.51564 5.57262 7.51562 4.93033C7.51562 4.24203 7.6672 3.6685 7.9707 3.20963C8.29756 2.72781 8.71781 2.37168 9.23145 2.14225C9.76835 1.88995 10.3522 1.76432 10.9824 1.76432C11.8928 1.76434 12.6164 2.02781 13.1533 2.55533C13.6903 3.08304 14.0761 3.71468 14.3096 4.44889C14.5663 5.18289 14.6943 5.87107 14.6943 6.51334C16.1418 6.51334 17.2156 6.23775 17.916 5.68717C18.6398 5.13652 19.0019 4.45992 19.002 3.65689C19.002 2.89975 18.7333 2.22316 18.1963 1.62662C17.689 1.03745 16.897 0.572146 15.8203 0.22916H22.2441V16.4811Z" fill="#A7BA88"/>
<path d="M34.2 22.428C34.152 22.252 34.096 22.124 34.032 22.044C33.968 21.956 33.884 21.896 33.78 21.864C33.684 21.832 33.552 21.816 33.384 21.816H33.168V21.432H36.12V21.816H35.748C35.484 21.816 35.3 21.856 35.196 21.936C35.1 22.008 35.052 22.124 35.052 22.284C35.052 22.324 35.056 22.376 35.064 22.44C35.08 22.504 35.1 22.572 35.124 22.644C35.148 22.716 35.176 22.804 35.208 22.908L36.492 27.216C36.564 27.464 36.628 27.696 36.684 27.912C36.74 28.12 36.792 28.324 36.84 28.524C36.896 28.724 36.948 28.928 36.996 29.136C37.068 28.816 37.136 28.496 37.2 28.176C37.272 27.848 37.356 27.504 37.452 27.144L38.988 21.48H39.612L41.172 27.072C41.252 27.336 41.32 27.588 41.376 27.828C41.44 28.068 41.496 28.3 41.544 28.524C41.6 28.74 41.648 28.944 41.688 29.136C41.728 28.952 41.772 28.756 41.82 28.548C41.868 28.332 41.924 28.112 41.988 27.888C42.052 27.656 42.12 27.416 42.192 27.168L43.416 23.016C43.456 22.864 43.492 22.724 43.524 22.596C43.564 22.46 43.584 22.356 43.584 22.284C43.584 22.124 43.532 22.008 43.428 21.936C43.324 21.856 43.132 21.816 42.852 21.816H42.504V21.432H45.264V21.816H44.988C44.82 21.816 44.684 21.836 44.58 21.876C44.484 21.908 44.4 21.98 44.328 22.092C44.264 22.196 44.2 22.364 44.136 22.596L41.94 30H41.196L39.18 22.68L37.236 30H36.48L34.2 22.428ZM48.751 30.12C47.943 30.12 47.307 29.848 46.843 29.304C46.379 28.752 46.147 27.912 46.147 26.784C46.147 25.664 46.371 24.832 46.819 24.288C47.267 23.744 47.927 23.472 48.799 23.472C49.615 23.472 50.251 23.74 50.707 24.276C51.163 24.812 51.391 25.648 51.391 26.784C51.391 27.912 51.167 28.752 50.719 29.304C50.271 29.848 49.615 30.12 48.751 30.12ZM48.763 29.64C49.211 29.64 49.571 29.528 49.843 29.304C50.115 29.08 50.307 28.756 50.419 28.332C50.539 27.9 50.599 27.384 50.599 26.784C50.599 26.144 50.535 25.616 50.407 25.2C50.287 24.784 50.091 24.472 49.819 24.264C49.555 24.056 49.211 23.952 48.787 23.952C48.339 23.952 47.979 24.06 47.707 24.276C47.435 24.484 47.235 24.796 47.107 25.212C46.987 25.628 46.927 26.152 46.927 26.784C46.927 27.392 46.987 27.912 47.107 28.344C47.235 28.768 47.435 29.092 47.707 29.316C47.979 29.532 48.331 29.64 48.763 29.64ZM53.295 30V29.616H53.439C53.647 29.616 53.815 29.6 53.943 29.568C54.079 29.528 54.179 29.444 54.243 29.316C54.307 29.188 54.339 28.988 54.339 28.716V24.804C54.339 24.54 54.307 24.352 54.243 24.24C54.179 24.12 54.075 24.044 53.931 24.012C53.795 23.972 53.611 23.952 53.379 23.952H53.271V23.568H54.927L55.059 24.828H55.107C55.211 24.588 55.327 24.364 55.455 24.156C55.583 23.948 55.751 23.78 55.959 23.652C56.167 23.524 56.435 23.46 56.763 23.46C57.139 23.46 57.427 23.536 57.627 23.688C57.827 23.84 57.927 24.048 57.927 24.312C57.927 24.488 57.871 24.64 57.759 24.768C57.647 24.888 57.463 24.948 57.207 24.948C57.207 24.724 57.179 24.544 57.123 24.408C57.075 24.272 56.999 24.176 56.895 24.12C56.791 24.056 56.655 24.024 56.487 24.024C56.255 24.024 56.051 24.108 55.875 24.276C55.707 24.444 55.567 24.664 55.455 24.936C55.343 25.2 55.255 25.488 55.191 25.8C55.135 26.112 55.107 26.416 55.107 26.712V28.752C55.107 29.016 55.139 29.208 55.203 29.328C55.275 29.448 55.375 29.528 55.503 29.568C55.639 29.6 55.807 29.616 56.007 29.616H56.379V30H53.295ZM61.9639 30.12C61.4599 30.12 61.0239 30 60.6559 29.76C60.2959 29.512 60.0199 29.144 59.8279 28.656C59.6439 28.16 59.5519 27.54 59.5519 26.796C59.5519 26.052 59.6399 25.436 59.8159 24.948C59.9919 24.452 60.2559 24.08 60.6079 23.832C60.9599 23.584 61.3999 23.46 61.9279 23.46C62.4239 23.46 62.8279 23.564 63.1399 23.772C63.4599 23.98 63.7039 24.256 63.8719 24.6H63.9319C63.9239 24.456 63.9159 24.312 63.9079 24.168C63.8999 24.016 63.8919 23.868 63.8839 23.724C63.8839 23.572 63.8839 23.436 63.8839 23.316V22.14C63.8839 21.868 63.8519 21.672 63.7879 21.552C63.7239 21.432 63.6239 21.356 63.4879 21.324C63.3599 21.284 63.1919 21.264 62.9839 21.264H62.7919V20.88H64.6519V28.764C64.6519 29.02 64.6839 29.208 64.7479 29.328C64.8119 29.448 64.9119 29.528 65.0479 29.568C65.1919 29.6 65.3799 29.616 65.6119 29.616H65.7439V30H64.0039L63.9079 28.8H63.8719C63.6959 29.192 63.4599 29.512 63.1639 29.76C62.8679 30 62.4679 30.12 61.9639 30.12ZM62.0479 29.568C62.7119 29.56 63.1839 29.32 63.4639 28.848C63.7519 28.376 63.8959 27.696 63.8959 26.808C63.8959 26.2 63.8359 25.692 63.7159 25.284C63.6039 24.868 63.4159 24.556 63.1519 24.348C62.8879 24.132 62.5199 24.024 62.0479 24.024C61.6399 24.024 61.3079 24.132 61.0519 24.348C60.8039 24.564 60.6239 24.88 60.5119 25.296C60.3999 25.712 60.3439 26.22 60.3439 26.82C60.3439 27.42 60.4079 27.928 60.5359 28.344C60.6639 28.752 60.8559 29.06 61.1119 29.268C61.3679 29.476 61.6799 29.576 62.0479 29.568ZM69.1729 30.12C68.7489 30.12 68.4009 30.064 68.1289 29.952C67.8569 29.832 67.6529 29.68 67.5169 29.496C67.3889 29.304 67.3249 29.088 67.3249 28.848C67.3249 28.68 67.3529 28.548 67.4089 28.452C67.4649 28.348 67.5329 28.276 67.6129 28.236C67.6929 28.196 67.7729 28.176 67.8529 28.176C67.8529 28.464 67.8929 28.724 67.9729 28.956C68.0529 29.18 68.1929 29.356 68.3929 29.484C68.5929 29.604 68.8649 29.664 69.2089 29.664C69.6569 29.664 69.9969 29.548 70.2289 29.316C70.4689 29.076 70.5889 28.784 70.5889 28.44C70.5889 28.24 70.5529 28.072 70.4809 27.936C70.4089 27.792 70.2769 27.656 70.0849 27.528C69.8929 27.392 69.6169 27.24 69.2569 27.072C68.8249 26.856 68.4729 26.656 68.2009 26.472C67.9369 26.288 67.7409 26.088 67.6129 25.872C67.4929 25.648 67.4329 25.376 67.4329 25.056C67.4329 24.568 67.6129 24.184 67.9729 23.904C68.3329 23.616 68.8129 23.472 69.4129 23.472C69.7889 23.472 70.0969 23.528 70.3369 23.64C70.5769 23.752 70.7529 23.896 70.8649 24.072C70.9849 24.24 71.0449 24.42 71.0449 24.612C71.0449 24.796 70.9929 24.944 70.8889 25.056C70.7929 25.168 70.6489 25.224 70.4569 25.224C70.4569 24.768 70.3609 24.436 70.1689 24.228C69.9769 24.02 69.6929 23.916 69.3169 23.916C69.0369 23.916 68.8089 23.96 68.6329 24.048C68.4569 24.136 68.3249 24.26 68.2369 24.42C68.1569 24.572 68.1169 24.752 68.1169 24.96C68.1169 25.184 68.1689 25.376 68.2729 25.536C68.3849 25.696 68.5529 25.844 68.7769 25.98C69.0009 26.108 69.2809 26.252 69.6169 26.412C70.0329 26.596 70.3609 26.78 70.6009 26.964C70.8409 27.148 71.0089 27.348 71.1049 27.564C71.2089 27.78 71.2609 28.032 71.2609 28.32C71.2609 28.888 71.0689 29.332 70.6849 29.652C70.3009 29.964 69.7969 30.12 69.1729 30.12ZM77.3623 24.588C77.3143 24.412 77.2583 24.28 77.1943 24.192C77.1303 24.096 77.0503 24.032 76.9543 24C76.8663 23.968 76.7423 23.952 76.5823 23.952H76.4383V23.568H78.9823V23.952H78.7423C78.5263 23.952 78.3703 23.98 78.2743 24.036C78.1863 24.092 78.1423 24.192 78.1423 24.336C78.1423 24.4 78.1583 24.504 78.1903 24.648C78.2303 24.784 78.2623 24.904 78.2863 25.008L78.9463 27.336C79.0023 27.528 79.0583 27.752 79.1143 28.008C79.1783 28.256 79.2383 28.496 79.2943 28.728C79.3503 28.96 79.3903 29.144 79.4143 29.28H79.4503C79.4743 29.144 79.5183 28.964 79.5823 28.74C79.6543 28.516 79.7303 28.28 79.8103 28.032C79.8983 27.776 79.9743 27.552 80.0383 27.36L81.3343 23.592H81.9343L83.1823 27.228C83.2303 27.372 83.2863 27.54 83.3503 27.732C83.4143 27.924 83.4783 28.12 83.5423 28.32C83.6063 28.52 83.6623 28.708 83.7103 28.884C83.7663 29.06 83.8063 29.2 83.8303 29.304H83.8663C83.8903 29.168 83.9303 29.004 83.9863 28.812C84.0423 28.62 84.1063 28.4 84.1783 28.152C84.2503 27.904 84.3303 27.636 84.4183 27.348L85.1263 25.08C85.1743 24.944 85.2103 24.812 85.2343 24.684C85.2663 24.556 85.2823 24.456 85.2823 24.384C85.2823 24.232 85.2343 24.124 85.1383 24.06C85.0423 23.988 84.8783 23.952 84.6463 23.952H84.3943V23.568H86.7583V23.952H86.5543C86.3943 23.952 86.2663 23.972 86.1703 24.012C86.0743 24.044 85.9943 24.116 85.9303 24.228C85.8743 24.34 85.8103 24.508 85.7383 24.732L84.1063 30H83.3863L81.5143 24.48L79.6423 30H78.9463L77.3623 24.588ZM90.8288 30.12C90.0208 30.12 89.3808 29.836 88.9088 29.268C88.4448 28.692 88.2128 27.884 88.2128 26.844C88.2128 25.716 88.4288 24.872 88.8608 24.312C89.3008 23.752 89.9208 23.472 90.7208 23.472C91.4488 23.472 92.0168 23.724 92.4248 24.228C92.8408 24.732 93.0488 25.46 93.0488 26.412V26.784H89.0048C89.0128 27.416 89.0928 27.94 89.2448 28.356C89.3968 28.764 89.6168 29.068 89.9048 29.268C90.1928 29.468 90.5368 29.568 90.9368 29.568C91.2248 29.568 91.4768 29.524 91.6928 29.436C91.9168 29.348 92.1088 29.236 92.2688 29.1C92.4288 28.956 92.5568 28.8 92.6528 28.632C92.7008 28.656 92.7408 28.696 92.7728 28.752C92.8048 28.808 92.8208 28.876 92.8208 28.956C92.8208 29.1 92.7488 29.264 92.6048 29.448C92.4608 29.632 92.2408 29.792 91.9448 29.928C91.6488 30.056 91.2768 30.12 90.8288 30.12ZM92.2328 26.304C92.2328 25.832 92.1768 25.424 92.0648 25.08C91.9608 24.728 91.7928 24.456 91.5608 24.264C91.3368 24.064 91.0488 23.964 90.6968 23.964C90.3368 23.964 90.0368 24.056 89.7968 24.24C89.5648 24.424 89.3848 24.692 89.2568 25.044C89.1368 25.388 89.0608 25.808 89.0288 26.304H92.2328ZM94.5089 30V29.616H94.7609C94.9929 29.616 95.1769 29.6 95.3129 29.568C95.4569 29.528 95.5609 29.448 95.6249 29.328C95.6889 29.2 95.7209 29.004 95.7209 28.74V22.14C95.7209 21.868 95.6889 21.672 95.6249 21.552C95.5609 21.432 95.4609 21.356 95.3249 21.324C95.1889 21.284 95.0209 21.264 94.8209 21.264H94.5089V20.88H96.4889V28.74C96.4889 29.004 96.5169 29.2 96.5729 29.328C96.6369 29.448 96.7409 29.528 96.8849 29.568C97.0289 29.6 97.2129 29.616 97.4369 29.616H97.6889V30H94.5089ZM98.6508 30V29.616H98.9028C99.1348 29.616 99.3188 29.6 99.4548 29.568C99.5988 29.528 99.7028 29.448 99.7668 29.328C99.8308 29.2 99.8628 29.004 99.8628 28.74V22.14C99.8628 21.868 99.8308 21.672 99.7668 21.552C99.7028 21.432 99.6028 21.356 99.4668 21.324C99.3308 21.284 99.1628 21.264 98.9628 21.264H98.6508V20.88H100.631V28.74C100.631 29.004 100.659 29.2 100.715 29.328C100.779 29.448 100.883 29.528 101.027 29.568C101.171 29.6 101.355 29.616 101.579 29.616H101.831V30H98.6508ZM109.186 30.12C108.642 30.12 108.25 29.984 108.01 29.712C107.77 29.432 107.65 28.956 107.65 28.284V24.072H106.726V23.712C106.878 23.712 107.03 23.684 107.182 23.628C107.342 23.572 107.474 23.492 107.578 23.388C107.69 23.276 107.782 23.12 107.854 22.92C107.926 22.72 107.978 22.448 108.01 22.104H108.418V23.568H109.966V24.072H108.418V28.356C108.418 28.804 108.494 29.132 108.646 29.34C108.806 29.54 109.038 29.64 109.342 29.64C109.478 29.64 109.602 29.636 109.714 29.628C109.826 29.612 109.946 29.592 110.074 29.568V29.988C109.962 30.028 109.822 30.06 109.654 30.084C109.494 30.108 109.338 30.12 109.186 30.12ZM114.421 30.12C113.613 30.12 112.977 29.848 112.513 29.304C112.049 28.752 111.817 27.912 111.817 26.784C111.817 25.664 112.041 24.832 112.489 24.288C112.937 23.744 113.597 23.472 114.469 23.472C115.285 23.472 115.921 23.74 116.377 24.276C116.833 24.812 117.061 25.648 117.061 26.784C117.061 27.912 116.837 28.752 116.389 29.304C115.941 29.848 115.285 30.12 114.421 30.12ZM114.433 29.64C114.881 29.64 115.241 29.528 115.513 29.304C115.785 29.08 115.977 28.756 116.089 28.332C116.209 27.9 116.269 27.384 116.269 26.784C116.269 26.144 116.205 25.616 116.077 25.2C115.957 24.784 115.761 24.472 115.489 24.264C115.225 24.056 114.881 23.952 114.457 23.952C114.009 23.952 113.649 24.06 113.377 24.276C113.105 24.484 112.905 24.796 112.777 25.212C112.657 25.628 112.597 26.152 112.597 26.784C112.597 27.392 112.657 27.912 112.777 28.344C112.905 28.768 113.105 29.092 113.377 29.316C113.649 29.532 114.001 29.64 114.433 29.64ZM118.605 30V29.616H118.857C119.089 29.616 119.273 29.6 119.409 29.568C119.553 29.528 119.657 29.448 119.721 29.328C119.785 29.2 119.817 29.004 119.817 28.74V22.14C119.817 21.868 119.785 21.672 119.721 21.552C119.657 21.432 119.557 21.356 119.421 21.324C119.285 21.284 119.117 21.264 118.917 21.264H118.605V20.88H120.585V28.74C120.585 29.004 120.613 29.2 120.669 29.328C120.733 29.448 120.837 29.528 120.981 29.568C121.125 29.6 121.309 29.616 121.533 29.616H121.785V30H118.605ZM125.759 30.12C125.255 30.12 124.819 30 124.451 29.76C124.091 29.512 123.815 29.144 123.623 28.656C123.439 28.16 123.347 27.54 123.347 26.796C123.347 26.052 123.435 25.436 123.611 24.948C123.787 24.452 124.051 24.08 124.403 23.832C124.755 23.584 125.195 23.46 125.723 23.46C126.219 23.46 126.623 23.564 126.935 23.772C127.255 23.98 127.499 24.256 127.667 24.6H127.727C127.719 24.456 127.711 24.312 127.703 24.168C127.695 24.016 127.687 23.868 127.679 23.724C127.679 23.572 127.679 23.436 127.679 23.316V22.14C127.679 21.868 127.647 21.672 127.583 21.552C127.519 21.432 127.419 21.356 127.283 21.324C127.155 21.284 126.987 21.264 126.779 21.264H126.587V20.88H128.447V28.764C128.447 29.02 128.479 29.208 128.543 29.328C128.607 29.448 128.707 29.528 128.843 29.568C128.987 29.6 129.175 29.616 129.407 29.616H129.539V30H127.799L127.703 28.8H127.667C127.491 29.192 127.255 29.512 126.959 29.76C126.663 30 126.263 30.12 125.759 30.12ZM125.843 29.568C126.507 29.56 126.979 29.32 127.259 28.848C127.547 28.376 127.691 27.696 127.691 26.808C127.691 26.2 127.631 25.692 127.511 25.284C127.399 24.868 127.211 24.556 126.947 24.348C126.683 24.132 126.315 24.024 125.843 24.024C125.435 24.024 125.103 24.132 124.847 24.348C124.599 24.564 124.419 24.88 124.307 25.296C124.195 25.712 124.139 26.22 124.139 26.82C124.139 27.42 124.203 27.928 124.331 28.344C124.459 28.752 124.651 29.06 124.907 29.268C125.163 29.476 125.475 29.576 125.843 29.568Z" fill="white"/>
</svg>
