<svg width="21" height="17" viewBox="0 0 21 17" fill="none" xmlns="http://www.w3.org/2000/svg">
<path d="M8.0379 0.100403C8.6211 0.100403 9.15188 0.429957 9.36896 0.940247L10.2645 3.03693C10.3541 3.2468 10.5723 3.38821 10.826 3.39044H18.6727C19.5604 3.39044 20.2996 4.06442 20.2996 4.90216V14.7879C20.2996 15.6257 19.5604 16.2996 18.6727 16.2996H1.72736C0.839622 16.2996 0.100403 15.6256 0.100403 14.7879V1.60919C0.100599 0.771375 0.83999 0.100403 1.72736 0.100403H8.0379ZM0.924622 14.7879C0.924622 15.1894 1.27284 15.5233 1.72736 15.5233H18.6717C19.1262 15.5233 19.4744 15.1894 19.4744 14.7879V4.90216C19.4744 4.50063 19.1262 4.16681 18.6717 4.16681H0.924622V14.7879ZM1.70685 0.87677C1.26238 0.886868 0.925598 1.21425 0.925598 1.60919V3.38947H9.52618C9.51593 3.36885 9.50509 3.34837 9.49591 3.32697V3.32599L8.60431 1.22931C8.51464 1.01873 8.29384 0.87677 8.0379 0.87677H1.70685Z" fill="white" stroke="white" stroke-width="0.2"/>
</svg>
