<svg width="16" height="15" viewBox="0 0 16 15" fill="none" xmlns="http://www.w3.org/2000/svg">
<path fill-rule="evenodd" clip-rule="evenodd" d="M8.31308 10.3671C8.31326 10.3673 8.31329 10.3676 8.31317 10.3678C8.00898 10.8895 7.85907 11.4093 7.84656 12.0099C7.83648 12.5314 8.40957 12.8572 8.85768 12.5902C9.38824 12.2738 9.76194 11.892 10.0713 11.3635L12.1495 7.7933C12.4311 7.30957 12.2636 6.68902 11.7768 6.41273C11.2983 6.14112 10.6904 6.30448 10.4124 6.77935L8.31299 10.3664C8.31286 10.3667 8.3129 10.3669 8.31308 10.3671ZM8.14465 3.4287C8.50336 3.4287 8.7952 3.71674 8.7952 4.07138C8.7952 4.42665 8.50274 4.71407 8.14465 4.71407H0.651169C0.29246 4.71407 0 4.42603 0 4.07138C0 3.71674 0.291836 3.4287 0.651169 3.4287H8.14529H8.14465ZM4.50702 10.2861C4.8676 10.2861 5.15819 10.5741 5.15819 10.9288C5.15819 11.2841 4.8676 11.5715 4.50702 11.5715H0.651169C0.29246 11.5715 0 11.2834 0 10.9288C0 10.5741 0.291836 10.2861 0.651169 10.2861H4.50702ZM6.02995 6.8574C6.38866 6.8574 6.68112 7.14544 6.68112 7.50009C6.68112 7.85474 6.38866 8.14277 6.02995 8.14277H0.651249C0.29254 8.14277 7.99844e-05 7.85535 7.99844e-05 7.50009C7.99844e-05 7.14482 0.291916 6.8574 0.651249 6.8574H6.02995ZM14.4721 0.000308371C14.4721 0.000138062 14.4723 -7.06044e-09 14.4724 7.1761e-08C14.831 0.000166022 15.1233 0.288135 15.1233 0.642682C15.1233 0.997332 14.8308 1.28536 14.4721 1.28536L0.651249 1.28598C0.29254 1.28598 7.99844e-05 0.997948 7.99844e-05 0.643299C7.99844e-05 0.288034 0.291916 0.000616742 0.651249 0.000616742H14.4718C14.472 0.000616742 14.4721 0.00047868 14.4721 0.000308371ZM4.5071 13.7143C4.5071 13.7142 4.50724 13.714 4.50741 13.714C4.86784 13.7142 5.15827 14.0022 5.15827 14.3567C5.15827 14.712 4.86768 14.9994 4.5071 14.9994L0.651249 15C0.29254 15 7.99844e-05 14.712 7.99844e-05 14.3573C7.99844e-05 14.0027 0.291916 13.7146 0.651249 13.7146H4.50679C4.50696 13.7146 4.5071 13.7145 4.5071 13.7143ZM13.308 5.80446C13.308 5.80442 13.308 5.80437 13.308 5.80433L13.7504 5.04514C14.1016 4.44132 13.8154 3.67527 13.1398 3.52786C12.7005 3.43164 12.2399 3.6617 12.0081 4.05645L11.6885 4.60102C11.6196 4.7184 11.6601 4.86946 11.7784 4.93664L13.3079 5.80463C13.308 5.80469 13.3081 5.80455 13.308 5.80446ZM6.71691 10.8164C6.71691 10.8159 6.71697 10.8155 6.71709 10.815C6.82208 10.4464 6.97825 10.0895 7.18997 9.72893L10.8839 3.41373C11.527 2.31278 12.9374 1.88412 14.0704 2.52988C15.174 3.15838 15.5209 4.57321 14.8741 5.68353L11.1958 12.0019C10.7752 12.7235 10.2465 13.2632 9.52911 13.6906L7.4868 14.9062C7.05373 15.1641 6.49255 14.8526 6.50193 14.345L6.55005 11.9852C6.55754 11.5722 6.61185 11.1882 6.71672 10.8177C6.71684 10.8173 6.71691 10.8168 6.71691 10.8164Z" fill="white"/>
</svg>
