<svg width="24" height="20" viewBox="0 0 24 20" fill="none" xmlns="http://www.w3.org/2000/svg">
<path fill-rule="evenodd" clip-rule="evenodd" d="M19.8643 3.31348C21.8963 3.31358 23.5497 4.86528 23.5498 6.77344V14.3398C23.5497 15.9755 22.3344 17.3497 20.708 17.708V17.7559C20.708 18.5674 20.2253 19.2911 19.4473 19.6445C19.134 19.7867 18.8009 19.8574 18.4697 19.8574C17.9788 19.8574 17.4926 19.7024 17.0879 19.4023L16.7715 19.167C15.5825 18.2856 14.093 17.7989 12.5771 17.7988H7.21289C5.18079 17.7988 3.52746 16.2461 3.52734 14.3379V6.77246C3.52744 4.86515 5.17982 3.31352 7.21094 3.31348H19.8643ZM7.21094 4.89258C6.10704 4.89261 5.20898 5.7359 5.20898 6.77246V14.3369C5.20898 15.3744 6.10801 16.2186 7.21289 16.2188H12.5771C14.4695 16.2188 16.3309 16.826 17.8154 17.9277L18.1318 18.1631C18.3777 18.3453 18.6203 18.2651 18.7139 18.2227C18.8075 18.1801 19.0254 18.049 19.0254 17.7559V17.0088C19.0254 16.5724 19.4015 16.2188 19.8662 16.2188C20.9699 16.2187 21.8679 15.3762 21.8682 14.3398V6.77344C21.8682 5.73694 20.9691 4.8927 19.8643 4.89258H7.21094Z" fill="#707070"/>
<path d="M16.8877 0.000976562C17.9369 0.000976562 18.9064 0.483554 19.4805 1.29199C19.738 1.65423 19.6338 2.1448 19.2471 2.38672C18.8696 2.62167 18.3703 2.53001 18.1064 2.19141C18.0991 2.18255 18.0884 2.17779 18.0811 2.16797C17.8203 1.79975 17.3744 1.5791 16.8887 1.5791H3.13672C2.33474 1.5793 1.68164 2.19317 1.68164 2.94629V11.5459C1.68164 11.997 1.91899 12.4172 2.31641 12.6699C2.39823 12.7232 2.45999 12.7913 2.51562 12.8623C2.71853 13.1239 2.7431 13.4842 2.53809 13.7676C2.37515 13.9927 2.11094 14.1133 1.8418 14.1133C1.67893 14.1133 1.51415 14.0683 1.36914 13.9756C0.512292 13.4277 0 12.5193 0 11.5459V2.94531C0.000258295 1.32177 1.40761 0.000219969 3.13672 0L16.8877 0.000976562Z" fill="#707070"/>
</svg>
