<svg width="36" height="32" viewBox="0 0 36 32" fill="none" xmlns="http://www.w3.org/2000/svg">
<path d="M21 18.66C21.5227 18.0871 21.8676 17.3746 21.9926 16.6092C22.1177 15.8438 22.0176 15.0586 21.7045 14.3491C21.3914 13.6396 20.8788 13.0364 20.229 12.613C19.5793 12.1895 18.8205 11.9641 18.045 11.9641C17.2695 11.9641 16.5107 12.1895 15.861 12.613C15.2112 13.0364 14.6986 13.6396 14.3855 14.3491C14.0724 15.0586 13.9723 15.8438 14.0974 16.6092C14.2224 17.3746 14.5673 18.0871 15.09 18.66C13.874 19.2158 12.8425 20.1083 12.1177 21.2318C11.3929 22.3553 11.0051 23.663 11 25C11.0033 25.3924 11.0401 25.7838 11.11 26.17C11.1505 26.4048 11.2735 26.6174 11.4568 26.7696C11.6401 26.9218 11.8718 27.0035 12.11 27H12.28C12.4103 26.9782 12.5349 26.9309 12.6468 26.8607C12.7587 26.7904 12.8555 26.6988 12.9318 26.5909C13.008 26.4831 13.0621 26.3612 13.091 26.2323C13.1199 26.1034 13.1229 25.9701 13.1 25.84C12.9613 25.1494 12.9701 24.4372 13.1258 23.7502C13.2815 23.0632 13.5806 22.4169 14.0035 21.8535C14.4264 21.2902 14.9636 20.8225 15.5798 20.4813C16.1961 20.14 16.8775 19.9328 17.5794 19.8733C18.2813 19.8137 18.9878 19.9031 19.6528 20.1357C20.3177 20.3683 20.926 20.7387 21.4378 21.2227C21.9496 21.7068 22.3533 22.2935 22.6225 22.9444C22.8917 23.5954 23.0204 24.2959 23 25C22.9995 25.2814 22.9761 25.5624 22.93 25.84C22.9083 25.9713 22.9127 26.1056 22.943 26.2352C22.9732 26.3649 23.0287 26.4873 23.1062 26.5954C23.2628 26.8139 23.4998 26.9612 23.765 27.005C24.0302 27.0488 24.302 26.9854 24.5204 26.8288C24.7389 26.6722 24.8862 26.4352 24.93 26.17C25.1863 24.6607 24.9407 23.109 24.2309 21.7525C23.5211 20.3961 22.3862 19.3098 21 18.66ZM18 14C18.3956 14 18.7822 14.1173 19.1111 14.3371C19.44 14.5568 19.6964 14.8692 19.8478 15.2346C19.9991 15.6001 20.0387 16.0022 19.9616 16.3902C19.8844 16.7781 19.6939 17.1345 19.4142 17.4142C19.1345 17.6939 18.7781 17.8844 18.3902 17.9616C18.0022 18.0387 17.6001 17.9991 17.2346 17.8478C16.8692 17.6964 16.5568 17.44 16.3371 17.1111C16.1173 16.7822 16 16.3956 16 16C16 15.4696 16.2107 14.9609 16.5858 14.5858C16.9609 14.2107 17.4696 14 18 14Z" fill="#F5F5F5"/>
<path d="M4.98999 5.98999C5.54227 5.98999 5.98999 5.54227 5.98999 4.98999C5.98999 4.43771 5.54227 3.98999 4.98999 3.98999C4.43771 3.98999 3.98999 4.43771 3.98999 4.98999C3.98999 5.54227 4.43771 5.98999 4.98999 5.98999Z" fill="#F5F5F5"/>
<path d="M8.98999 5.98999C9.54227 5.98999 9.98999 5.54227 9.98999 4.98999C9.98999 4.43771 9.54227 3.98999 8.98999 3.98999C8.43771 3.98999 7.98999 4.43771 7.98999 4.98999C7.98999 5.54227 8.43771 5.98999 8.98999 5.98999Z" fill="#F5F5F5"/>
<path d="M12.99 5.98999C13.5423 5.98999 13.99 5.54227 13.99 4.98999C13.99 4.43771 13.5423 3.98999 12.99 3.98999C12.4377 3.98999 11.99 4.43771 11.99 4.98999C11.99 5.54227 12.4377 5.98999 12.99 5.98999Z" fill="#F5F5F5"/>
<path d="M32 0H4C2.93913 0 1.92172 0.421427 1.17157 1.17157C0.421427 1.92172 0 2.93913 0 4V28C0 29.0609 0.421427 30.0783 1.17157 30.8284C1.92172 31.5786 2.93913 32 4 32H32C33.0609 32 34.0783 31.5786 34.8284 30.8284C35.5786 30.0783 36 29.0609 36 28V4C36 2.93913 35.5786 1.92172 34.8284 1.17157C34.0783 0.421427 33.0609 0 32 0ZM32 30H4C3.46957 30 2.96086 29.7893 2.58579 29.4142C2.21071 29.0391 2 28.5304 2 28V4C2 3.46957 2.21071 2.96086 2.58579 2.58579C2.96086 2.21071 3.46957 2 4 2H32C32.5304 2 33.0391 2.21071 33.4142 2.58579C33.7893 2.96086 34 3.46957 34 4V8H6C5.73478 8 5.48043 8.10536 5.29289 8.29289C5.10536 8.48043 5 8.73478 5 9C5 9.26522 5.10536 9.51957 5.29289 9.70711C5.48043 9.89464 5.73478 10 6 10H34V28C34 28.5304 33.7893 29.0391 33.4142 29.4142C33.0391 29.7893 32.5304 30 32 30Z" fill="#F5F5F5"/>
<path d="M19 6H31C31.2652 6 31.5196 5.89464 31.7071 5.70711C31.8946 5.51957 32 5.26522 32 5C32 4.73478 31.8946 4.48043 31.7071 4.29289C31.5196 4.10536 31.2652 4 31 4H19C18.7348 4 18.4804 4.10536 18.2929 4.29289C18.1054 4.48043 18 4.73478 18 5C18 5.26522 18.1054 5.51957 18.2929 5.70711C18.4804 5.89464 18.7348 6 19 6Z" fill="#F5F5F5"/>
</svg>
