<svg width="15" height="23" viewBox="0 0 15 23" fill="none" xmlns="http://www.w3.org/2000/svg">
<path d="M10.7226 7.55934C10.0966 7.09706 9.55613 6.69819 9.02788 5.98149C8.52899 5.30332 8.16623 4.50637 7.94857 3.61237L7.80021 3L7.29072 3.38042C6.27012 4.13885 5.42722 5.12921 4.85097 6.2408C4.18904 7.51687 3.97222 8.74964 3.93716 9.7272C3.72603 9.55465 3.53039 9.36365 3.3486 9.15979C3.00214 8.76733 2.71847 8.32753 2.50325 7.85321L2.2424 7.27616L1.81035 7.74485C-0.0865616 9.8099 -0.541539 12.8379 0.677251 15.2833C1.97747 17.8907 4.69863 19 7.01943 19C7.21752 19 7.41153 18.992 7.60148 18.9751C10.6838 18.7207 12.4843 16.4992 12.9645 15.8259C13.0566 15.6967 13.1463 15.5626 13.2278 15.427C14.4759 13.4029 14.1881 10.8001 12.5308 9.09481L12.23 9.37811L12.5056 9.06752C11.8338 8.38134 11.2412 7.94392 10.7195 7.55951L10.7226 7.55934ZM12.5169 15.0008C12.4435 15.1196 12.3644 15.2392 12.2829 15.3539C11.8574 15.9543 10.2547 17.9302 7.53279 18.1566C6.01165 18.2818 4.20612 17.8484 2.84152 16.7063L5.38165 14.4239L6.67127 15.9054L9.82285 12.8725V13.9078H10.6576V11.4832H8.19489V12.305H9.21711L6.72519 14.7031L5.45434 13.2441L2.24495 16.1285C1.93192 15.7753 1.65477 15.3741 1.42895 14.9206C0.448288 12.9543 0.706704 10.5522 2.04033 8.76737C2.23679 9.09803 2.46178 9.41263 2.71856 9.70236C3.12943 10.167 3.60955 10.5651 4.14594 10.8861L4.82824 11.2947L4.77851 10.5097C4.71982 9.56674 4.81193 8.1246 5.59451 6.61654C6.02005 5.79471 6.6086 5.04672 7.31211 4.42883C7.55829 5.18085 7.9072 5.86463 8.34903 6.46736C8.95225 7.28518 9.56771 7.73942 10.219 8.22015C10.7408 8.60458 11.2788 9.00266 11.9048 9.64231L12.2056 9.3566L11.9285 9.66478C13.3249 11.1006 13.567 13.2956 12.5146 15.0026L12.5169 15.0008Z" fill="white"/>
</svg>
